<svg width="14" height="27" viewBox="0 0 14 27" fill="none" xmlns="http://www.w3.org/2000/svg">
<path d="M0.999999 13.5L0.268944 12.8177C-0.0896488 13.2019 -0.0896488 13.7981 0.268944 14.1823L0.999999 13.5ZM12.9311 2.18232C13.3079 1.77857 13.2861 1.14578 12.8823 0.768944C12.4786 0.392111 11.8458 0.413931 11.4689 0.817681L12.9311 2.18232ZM11.4689 26.1823C11.8458 26.5861 12.4786 26.6079 12.8823 26.2311C13.2861 25.8542 13.3079 25.2214 12.9311 24.8177L11.4689 26.1823ZM1.73105 14.1823L12.9311 2.18232L11.4689 0.817681L0.268944 12.8177L1.73105 14.1823ZM12.9311 24.8177L1.73105 12.8177L0.268944 14.1823L11.4689 26.1823L12.9311 24.8177Z" fill="white"/>
</svg>
