<svg width="94" height="31" viewBox="0 0 94 31" fill="none" xmlns="http://www.w3.org/2000/svg">
<path d="M47 29L47.7085 30.8703C47.252 31.0432 46.748 31.0432 46.2915 30.8703L47 29ZM91.2915 10.0842C92.3245 9.69296 93.479 10.2131 93.8703 11.2461C94.2616 12.279 93.7414 13.4336 92.7085 13.8249L91.2915 10.0842ZM1.29155 13.8249C0.258597 13.4336 -0.261587 12.279 0.129681 11.2461C0.520949 10.2131 1.67551 9.69296 2.70845 10.0842L1.29155 13.8249ZM46.2915 27.1297L91.2915 10.0842L92.7085 13.8249L47.7085 30.8703L46.2915 27.1297ZM2.70845 10.0842L47.7085 27.1297L46.2915 30.8703L1.29155 13.8249L2.70845 10.0842Z" fill="#FCAA50"/>
<path d="M47 19.0454L47.7085 20.9157C47.252 21.0886 46.748 21.0886 46.2915 20.9157L47 19.0454ZM91.2915 0.129637C92.3245 -0.261631 93.479 0.258553 93.8703 1.2915C94.2616 2.32445 93.7414 3.47901 92.7085 3.87027L91.2915 0.129637ZM1.29155 3.87027C0.258597 3.47901 -0.261587 2.32445 0.129681 1.2915C0.520949 0.258553 1.67551 -0.261631 2.70845 0.129637L1.29155 3.87027ZM46.2915 17.1751L91.2915 0.129637L92.7085 3.87027L47.7085 20.9157L46.2915 17.1751ZM2.70845 0.129637L47.7085 17.1751L46.2915 20.9157L1.29155 3.87027L2.70845 0.129637Z" fill="#FCAA50"/>
</svg>
