<svg width="14" height="27" viewBox="0 0 14 27" fill="none" xmlns="http://www.w3.org/2000/svg">
<path d="M12.2 13.5L12.9311 12.8177C13.2897 13.2019 13.2897 13.7981 12.9311 14.1823L12.2 13.5ZM0.268957 2.18232C-0.107877 1.77857 -0.0860569 1.14578 0.317694 0.768944C0.721444 0.392111 1.35423 0.413931 1.73107 0.817681L0.268957 2.18232ZM1.73107 26.1823C1.35423 26.5861 0.721443 26.6079 0.317693 26.2311C-0.0860579 25.8542 -0.107878 25.2214 0.268956 24.8177L1.73107 26.1823ZM11.469 14.1823L0.268957 2.18232L1.73107 0.817681L12.9311 12.8177L11.469 14.1823ZM0.268956 24.8177L11.469 12.8177L12.9311 14.1823L1.73107 26.1823L0.268956 24.8177Z" fill="white"/>
</svg>
