<svg width="36" height="28" viewBox="0 0 36 28" fill="none" xmlns="http://www.w3.org/2000/svg">
<path d="M24.727 5.18019C23.461 5.18019 22.097 5.18019 21.454 5.18019C20.801 5.18019 20.148 5.85219 20.148 6.34719C20.148 6.85219 20.148 9.69119 20.148 9.69119C20.148 9.69119 24.193 9.69119 24.717 9.69119C24.529 12.2522 24.154 14.5972 24.154 14.5972H20.119V28.0002H14.104V14.6082H11.176V9.72019H14.104C14.104 9.72019 14.104 6.45619 14.104 5.72419C14.104 4.99219 13.955 0.106191 20.276 0.0961914C21.116 0.0961914 23.037 0.0961914 24.727 0.0961914C24.727 2.21319 24.727 4.51819 24.727 5.18019Z" fill="url(#paint0_linear)"/>
<defs>
<linearGradient id="paint0_linear" x1="17.9515" y1="0.0961914" x2="17.9515" y2="28.0002" gradientUnits="userSpaceOnUse">
<stop stop-color="#E3A83C"/>
<stop offset="1" stop-color="#F97D7D"/>
</linearGradient>
</defs>
</svg>
