<svg width="182" height="182" viewBox="0 0 182 182" fill="none" xmlns="http://www.w3.org/2000/svg">
<g clip-path="url(#clip0)">
<circle cx="88" cy="91" r="91" fill="#9381DA" fill-opacity="0.05"/>
<path d="M115.161 100.544C115.461 101.007 116.08 101.14 116.544 100.839C117.007 100.539 117.14 99.9196 116.839 99.4561L115.161 100.544ZM113.667 112.6L113.991 113.546H113.991L113.667 112.6ZM111.5 115C111.5 115.552 111.948 116 112.5 116C113.052 116 113.5 115.552 113.5 115H111.5ZM113.5 94C113.5 93.4477 113.052 93 112.5 93C111.948 93 111.5 93.4477 111.5 94H113.5ZM111.52 111.617C110.977 111.515 110.454 111.871 110.351 112.414C110.248 112.956 110.604 113.48 111.147 113.583L111.52 111.617ZM116.839 99.4561C116.324 98.6607 114.8 97.2 112.5 97.2V99.2C113.934 99.2 114.899 100.139 115.161 100.544L116.839 99.4561ZM112.5 97.2C109.588 97.2 108 99.4745 108 101.2H110C110 100.526 110.745 99.2 112.5 99.2V97.2ZM108 101.2C108 101.925 108.133 102.567 108.411 103.137C108.687 103.707 109.082 104.153 109.531 104.522C110.37 105.212 111.552 105.737 112.626 106.289L113.541 104.511C112.281 103.863 111.422 103.488 110.802 102.978C110.522 102.747 110.333 102.518 110.209 102.263C110.085 102.008 110 101.675 110 101.2H108ZM112.626 106.289C113.711 106.847 114.295 107.359 114.609 107.789C114.905 108.196 115 108.583 115 109H117C117 108.217 116.803 107.404 116.225 106.611C115.664 105.841 114.789 105.153 113.541 104.511L112.626 106.289ZM115 109C115 109.995 114.512 111.253 113.342 111.654L113.991 113.546C116.322 112.747 117 110.405 117 109H115ZM113.342 111.654C113.091 111.74 112.781 111.799 112.432 111.823L112.568 113.819C113.053 113.786 113.54 113.701 113.991 113.546L113.342 111.654ZM113.5 115V112.821H111.5V115H113.5ZM111.5 94V98.2H113.5V94H111.5ZM112.686 111.839L111.52 111.617L111.147 113.583L112.314 113.804L112.686 111.839Z" fill="url(#paint0_linear)"/>
<path d="M58.1169 81.8151C58.458 81.3807 58.3823 80.7521 57.948 80.411C57.5136 80.0699 56.885 80.1455 56.5439 80.5799L58.1169 81.8151ZM37.5868 115.217L36.6379 114.902H36.6379L37.5868 115.217ZM42.5227 142.433L43.2917 141.794L42.5227 142.433ZM111.008 135.629L110.022 135.465L111.008 135.629ZM109.774 117.073L108.852 117.46L109.774 117.073ZM50.5435 62.6412L51.453 62.2254L51.4084 62.128L51.3442 62.0422L50.5435 62.6412ZM57.3304 77.4862L56.4209 77.902L56.6104 78.3165L57.0476 78.4454L57.3304 77.4862ZM64.1172 58.9299L63.9206 59.9104L64.1172 58.9299ZM94.9666 57.6928L94.2586 58.399L94.9666 57.6928ZM99.2855 62.6412L99.9934 63.3474L99.2855 62.6412ZM78.0922 111.441C78.398 111.901 79.0188 112.026 79.4786 111.72C79.9385 111.414 80.0634 110.794 79.7576 110.334L78.0922 111.441ZM76.457 123.877L76.7739 124.825L76.457 123.877ZM75.223 124.105L75.1563 123.107L75.223 124.105ZM71.799 122.193C71.5525 121.699 70.952 121.498 70.4578 121.745C69.9635 121.991 69.7627 122.592 70.0092 123.086L71.799 122.193ZM74.223 128.825C74.223 129.377 74.6707 129.825 75.223 129.825C75.7753 129.825 76.223 129.377 76.223 128.825H74.223ZM76.223 104.702C76.223 104.15 75.7753 103.702 75.223 103.702C74.6707 103.702 74.223 104.15 74.223 104.702H76.223ZM92.6779 82.1212C93.188 81.9096 93.4301 81.3245 93.2185 80.8144C93.0069 80.3042 92.4219 80.0622 91.9117 80.2737L92.6779 82.1212ZM57.0244 80.247C56.4995 80.0752 55.9348 80.3615 55.763 80.8864C55.5912 81.4112 55.8775 81.976 56.4023 82.1478L57.0244 80.247ZM56.5439 80.5799C52.6911 85.4863 48.0956 92.9312 44.2893 99.68C40.4976 106.403 37.4138 112.568 36.6379 114.902L38.5357 115.533C39.2406 113.413 42.2238 107.413 46.0313 100.662C49.8243 93.9374 54.3602 86.5991 58.1169 81.8151L56.5439 80.5799ZM36.6379 114.902C34.7352 120.624 32.697 132.177 41.7537 143.072L43.2917 141.794C34.8676 131.659 36.7365 120.944 38.5357 115.533L36.6379 114.902ZM41.7537 143.072C45.1181 147.12 51.0396 149 58.5643 149V147C51.2814 147 46.0972 145.169 43.2917 141.794L41.7537 143.072ZM58.5643 149H93.1156V147H58.5643V149ZM93.1156 149C95.7939 149 100.102 147.852 103.904 145.7C107.695 143.555 111.253 140.256 111.995 135.793L110.022 135.465C109.427 139.044 106.506 141.93 102.919 143.96C99.3435 145.983 95.3731 147 93.1156 147V149ZM111.995 135.793C112.603 132.132 114.481 125.696 110.696 116.686L108.852 117.46C112.377 125.853 110.647 131.704 110.022 135.465L111.995 135.793ZM110.696 116.686C108.217 110.782 104.116 102.051 100.216 94.2078C96.3318 86.3984 92.5926 79.3586 90.8451 76.9059L89.2162 78.0665C90.8519 80.3622 94.5165 87.2396 98.4248 95.0984C102.316 102.923 106.396 111.612 108.852 117.46L110.696 116.686ZM49.6341 63.057L56.4209 77.902L58.2398 77.0704L51.453 62.2254L49.6341 63.057ZM51.3442 62.0422C51.3077 61.9933 51.3189 61.9893 51.3248 62.0271C51.3275 62.0447 51.3277 62.0634 51.3256 62.0805C51.3235 62.097 51.32 62.1056 51.3203 62.1048C51.3303 62.0799 51.4154 61.9328 51.7497 61.7066C52.4018 61.2655 53.5559 60.82 55.0249 60.4575C57.9531 59.7349 61.6496 59.4551 63.9206 59.9104L64.3138 57.9494C61.6489 57.4151 57.6331 57.7538 54.5457 58.5157C53.0069 58.8954 51.5773 59.4086 50.6291 60.05C50.1633 60.3651 49.694 60.7901 49.4655 61.3566C49.2014 62.0112 49.3254 62.6822 49.7428 63.2402L51.3442 62.0422ZM63.9206 59.9104C70.17 61.1634 72.0891 61.167 76.457 61.167V59.167C72.187 59.167 70.4042 59.1706 64.3138 57.9494L63.9206 59.9104ZM76.457 61.167C77.6736 61.167 79.3271 60.8266 81.0608 60.404C81.9431 60.189 82.8746 59.9452 83.8141 59.6992C84.7566 59.4523 85.7083 59.203 86.6443 58.9732C88.5277 58.5108 90.2913 58.1419 91.717 58.0327C92.4294 57.9781 93.0135 57.9923 93.4631 58.073C93.9189 58.1548 94.1489 58.289 94.2586 58.399L95.6746 56.9866C95.1673 56.478 94.4911 56.2256 93.8165 56.1045C93.1358 55.9822 92.3653 55.9771 91.5642 56.0385C89.9628 56.1612 88.0631 56.5655 86.1674 57.0309C85.2139 57.265 84.2472 57.5183 83.3074 57.7644C82.3646 58.0113 81.45 58.2507 80.5873 58.4609C78.8312 58.8889 77.3998 59.167 76.457 59.167V61.167ZM94.2586 58.399C94.9461 59.0882 95.7054 59.6345 96.3956 60.0858C97.147 60.577 97.6692 60.8691 98.1754 61.2205C98.4047 61.3796 98.5662 61.5095 98.6751 61.6186C98.786 61.7299 98.7997 61.7777 98.7948 61.7639C98.7372 61.5995 98.9138 61.5979 98.5775 61.935L99.9934 63.3474C100.583 62.7568 100.991 61.982 100.682 61.1024C100.438 60.4061 99.8053 59.9172 99.3158 59.5774C98.8194 59.2329 98.0691 58.7904 97.4901 58.4118C96.8499 57.9933 96.221 57.5344 95.6746 56.9866L94.2586 58.399ZM98.5775 61.935C98.189 62.3244 97.5472 63.176 96.8097 64.227C96.0521 65.3067 95.142 66.6721 94.2017 68.1494C92.3275 71.0939 90.3021 74.532 89.124 77.0644L90.9373 77.908C92.0588 75.4974 94.0274 72.148 95.8889 69.2233C96.8165 67.766 97.7098 66.4263 98.4469 65.3758C99.2041 64.2967 99.7485 63.593 99.9934 63.3474L98.5775 61.935ZM57.0476 78.4454C62.4347 80.0338 69.5528 80.5281 75.874 80.388C79.0444 80.3177 82.0397 80.0872 84.5484 79.7471C87.0318 79.4104 89.1166 78.9564 90.4189 78.4078L89.6424 76.5646C88.5954 77.0057 86.7291 77.4331 84.2797 77.7652C81.8554 78.0939 78.9359 78.3196 75.8297 78.3884C69.5976 78.5266 62.7148 78.0313 57.6132 76.527L57.0476 78.4454ZM79.7576 110.334C79.2143 109.517 77.6182 108.032 75.223 108.032V110.032C76.7765 110.032 77.8129 111.021 78.0922 111.441L79.7576 110.334ZM75.223 108.032C72.2004 108.032 70.5211 110.338 70.5211 112.125H72.5211C72.5211 111.437 73.3097 110.032 75.223 110.032V108.032ZM70.5211 112.125C70.5211 112.872 70.6621 113.532 70.954 114.117C71.2451 114.701 71.6594 115.157 72.1294 115.533C73.0098 116.24 74.2504 116.776 75.3919 117.348L76.2881 115.56C74.9616 114.895 74.0427 114.504 73.3807 113.973C73.0794 113.732 72.8767 113.491 72.7437 113.225C72.6114 112.959 72.5211 112.614 72.5211 112.125H70.5211ZM75.3919 117.348C76.5463 117.927 77.1704 118.459 77.5072 118.909C77.825 119.334 77.9249 119.736 77.9249 120.166H79.9249C79.9249 119.359 79.7163 118.523 79.1086 117.711C78.5199 116.924 77.6016 116.219 76.2881 115.56L75.3919 117.348ZM77.9249 120.166C77.9249 121.182 77.4144 122.503 76.14 122.928L76.7739 124.825C79.2014 124.014 79.9249 121.623 79.9249 120.166H77.9249ZM76.14 122.928C75.8663 123.02 75.532 123.082 75.1563 123.107L75.2896 125.103C75.7961 125.069 76.3045 124.982 76.7739 124.825L76.14 122.928ZM75.1563 123.107C74.4026 123.157 73.5729 123.053 72.8966 122.835C72.1581 122.597 71.8572 122.31 71.799 122.193L70.0092 123.086C70.4441 123.958 71.4246 124.462 72.2832 124.739C73.204 125.036 74.2873 125.17 75.2896 125.103L75.1563 123.107ZM76.223 128.825V124.105H74.223V128.825H76.223ZM74.223 104.702V109.032H76.223V104.702H74.223ZM91.9117 80.2737C89.0685 81.4529 83.875 82.6099 77.5912 82.8829C71.3219 83.1552 64.0425 82.5438 57.0244 80.247L56.4023 82.1478C63.6984 84.5356 71.2266 85.1613 77.678 84.881C84.1148 84.6014 89.5551 83.4162 92.6779 82.1212L91.9117 80.2737Z" fill="url(#paint1_linear)"/>
<path d="M122.25 68.6377C125.604 73.3086 136.929 96.0175 141.822 107.578C145.445 116.138 145.268 122.538 144.657 126.189C143.331 134.099 130.201 138 125.308 138H115.149M122.25 68.6377C124.53 63.7754 130.169 55.2844 131.425 54.0351C133.26 52.2098 131.425 50.3844 127.143 49.1675C123.81 48.22 113.076 51.6013 108.795 51.6013C104.513 51.6013 102.678 51.6013 96.5621 50.3844C91.6691 49.4109 81.8736 49.1675 83.1063 54.0351M122.25 68.6377C118.781 70.088 108.263 71.0656 98.825 70.2127M125.308 72.2883C119.821 73.5612 108.392 75.8888 96.5621 74.0267" stroke="url(#paint2_linear)" stroke-width="2" stroke-linecap="round"/>
<path d="M75.9411 56.0959C76.4795 54.9624 76.7808 53.6945 76.7808 52.3562C76.7808 47.5369 72.874 43.6301 68.0548 43.6301C63.2355 43.6301 59.3288 47.5369 59.3288 52.3562C59.3288 53.2225 59.455 54.0593 59.6901 54.8493" stroke="url(#paint3_linear)" stroke-width="2" stroke-linecap="round"/>
<path d="M71.8143 48.6165C73.1706 50.6651 73.3863 53.1369 72.6138 55.2836" stroke="url(#paint4_linear)" stroke-width="2" stroke-linecap="round"/>
<path d="M94 34C94 38.368 90.2461 42 85.5 42C80.7539 42 77 38.368 77 34C77 29.632 80.7539 26 85.5 26C90.2461 26 94 29.632 94 34Z" stroke="url(#paint5_linear)" stroke-width="2"/>
<path d="M86 38C88.418 37.287 90 36.1023 90 34.7615C90 33.6864 88.9829 32.7117 87.3333 32" stroke="url(#paint6_linear)" stroke-width="2" stroke-linecap="round"/>
<path d="M69 22V36.4831M65 28.7812V38" stroke="url(#paint7_linear)" stroke-width="2" stroke-linecap="round" stroke-linejoin="round"/>
<path d="M86 15.3361V22M83 9V21.563" stroke="url(#paint8_linear)" stroke-width="2" stroke-linecap="round" stroke-linejoin="round"/>
</g>
<defs>
<linearGradient id="paint0_linear" x1="112.5" y1="94" x2="112.5" y2="115" gradientUnits="userSpaceOnUse">
<stop stop-color="#E3A83C"/>
<stop offset="1" stop-color="#F97D7D"/>
</linearGradient>
<linearGradient id="paint1_linear" x1="74" y1="57" x2="74" y2="148" gradientUnits="userSpaceOnUse">
<stop stop-color="#E3A83C"/>
<stop offset="1" stop-color="#F97D7D"/>
</linearGradient>
<linearGradient id="paint2_linear" x1="114" y1="49" x2="114" y2="138" gradientUnits="userSpaceOnUse">
<stop stop-color="#E3A83C"/>
<stop offset="1" stop-color="#F97D7D"/>
</linearGradient>
<linearGradient id="paint3_linear" x1="68.0548" y1="43.6301" x2="68.0548" y2="56.0959" gradientUnits="userSpaceOnUse">
<stop stop-color="#E3A83C"/>
<stop offset="1" stop-color="#F97D7D"/>
</linearGradient>
<linearGradient id="paint4_linear" x1="70.5578" y1="49.4483" x2="73.8703" y2="54.4517" gradientUnits="userSpaceOnUse">
<stop stop-color="#E3A83C"/>
<stop offset="1" stop-color="#F97D7D"/>
</linearGradient>
<linearGradient id="paint5_linear" x1="85.5" y1="25" x2="85.5" y2="43" gradientUnits="userSpaceOnUse">
<stop stop-color="#E3A83C"/>
<stop offset="1" stop-color="#F97D7D"/>
</linearGradient>
<linearGradient id="paint6_linear" x1="88" y1="32" x2="88" y2="38" gradientUnits="userSpaceOnUse">
<stop stop-color="#E3A83C"/>
<stop offset="1" stop-color="#F97D7D"/>
</linearGradient>
<linearGradient id="paint7_linear" x1="67" y1="22" x2="67" y2="38" gradientUnits="userSpaceOnUse">
<stop stop-color="#E3A83C"/>
<stop offset="1" stop-color="#F97D7D"/>
</linearGradient>
<linearGradient id="paint8_linear" x1="84.5" y1="9" x2="84.5" y2="22" gradientUnits="userSpaceOnUse">
<stop stop-color="#E3A83C"/>
<stop offset="1" stop-color="#F97D7D"/>
</linearGradient>
<clipPath id="clip0">
<rect width="182" height="182" fill="white"/>
</clipPath>
</defs>
</svg>
