<svg width="182" height="182" viewBox="0 0 182 182" fill="none" xmlns="http://www.w3.org/2000/svg">
<circle cx="91" cy="91" r="91" fill="#9381DA" fill-opacity="0.05"/>
<path d="M11.5 76C11.5 76 29.5 64.3594 31 63.5C32.5 62.6406 37.4289 65.0426 40 66.0782M169 56.609L164 59.8771L138 47C131.377 51.4984 124.043 55.0458 119.5 57M74.5 63.5C75 63 76.278 62.027 79.5 59.8771C87.1306 54.7855 83 56.609 95 68.5643C97.2479 70.8038 102 66.5 105.5 63.5M59.5423 94.3464C59.5423 95.8119 58.3649 97 56.9126 97C55.4602 97 54.2828 95.8119 54.2828 94.3464C54.2828 92.8808 55.4602 91.6928 56.9126 91.6928C58.3649 91.6928 59.5423 92.8808 59.5423 94.3464ZM62.1997 65.8129C62.1997 69.0911 59.5661 71.7487 56.3174 71.7487C53.0687 71.7487 50.4351 69.0911 50.4351 65.8129C50.4351 62.5347 53.0687 59.8771 56.3174 59.8771C59.5661 59.8771 62.1997 62.5347 62.1997 65.8129ZM56.3174 87.9079C55.6946 87.9079 55.1132 87.5866 54.7672 87.0559C54.1859 86.1481 53.5077 85.1146 52.7742 84.0112C49.0095 78.3129 43.8607 70.5195 43.8607 66.0782C43.8607 59.1508 49.4385 53.5223 56.3036 53.5223C63.1686 53.5223 68.7464 59.1508 68.7464 66.0782C68.7464 70.5056 63.5976 78.3129 59.8329 84.0112C59.1132 85.1006 58.4212 86.1481 57.8399 87.0559C57.5215 87.5866 56.9541 87.9079 56.3174 87.9079ZM110.652 56.609C108.922 56.609 107.524 55.1844 107.524 53.4526C107.524 51.7207 108.936 50.2961 110.652 50.2961C112.382 50.2961 113.78 51.7207 113.78 53.4526C113.78 55.1844 112.382 56.609 110.652 56.609ZM112.078 70.1565C112.078 71.0358 111.371 71.7487 110.5 71.7487C109.628 71.7487 108.922 71.0358 108.922 70.1565C108.922 69.2771 109.628 68.5643 110.5 68.5643C111.371 68.5643 112.078 69.2771 112.078 70.1565ZM110.652 65.9945C110.361 65.9945 110.098 65.8548 109.932 65.6034C109.6 65.0866 109.226 64.5001 108.811 63.8855C106.707 60.7012 103.815 56.3296 103.815 53.8855C103.815 50.0866 106.874 47 110.638 47C114.403 47 117.462 50.0866 117.462 53.8855C117.462 56.3296 114.583 60.6872 112.465 63.8855C112.064 64.5001 111.676 65.0866 111.344 65.6034C111.22 65.8548 110.957 65.9945 110.652 65.9945Z" stroke="url(#paint0_linear)" stroke-width="2"/>
<path d="M62.5223 114.287C62.5272 113.734 62.0835 113.283 61.5312 113.278C60.979 113.273 60.5273 113.717 60.5224 114.269L62.5223 114.287ZM102.218 155.545L102.086 154.554L102.218 155.545ZM121.507 126.369L120.634 126.858L120.634 126.858L121.507 126.369ZM116.534 69.5362C115.982 69.505 115.51 69.9268 115.479 70.4782C115.448 71.0296 115.87 71.5018 116.421 71.533L116.534 69.5362ZM149.349 93.9941L149.21 93.0038L149.012 93.0317L148.84 93.1334L149.349 93.9941ZM60.768 119.789C60.8233 120.339 61.3136 120.739 61.8631 120.684C62.4126 120.629 62.8133 120.138 62.758 119.589L60.768 119.789ZM63.6039 124.804C63.4814 124.265 62.9455 123.928 62.407 124.051C61.8685 124.173 61.5313 124.709 61.6538 125.248L63.6039 124.804ZM65.5623 135.595C65.8289 136.078 66.4371 136.254 66.9208 135.988C67.4044 135.721 67.5804 135.113 67.3138 134.629L65.5623 135.595ZM70.184 139.039C69.8498 138.6 69.2225 138.514 68.7828 138.848C68.3431 139.182 68.2575 139.81 68.5917 140.25L70.184 139.039ZM76.454 148.03C76.8955 148.362 77.5224 148.273 77.8542 147.831C78.1859 147.39 78.0969 146.763 77.6554 146.431L76.454 148.03ZM82.07 149.327C81.5902 149.054 80.9795 149.221 80.7061 149.701C80.4326 150.181 80.5999 150.791 81.0797 151.065L82.07 149.327ZM91.2617 155.326C91.7935 155.475 92.3454 155.165 92.4942 154.633C92.6431 154.101 92.3327 153.549 91.8008 153.4L91.2617 155.326ZM96.9593 154.463C96.4114 154.394 95.9108 154.781 95.8412 155.329C95.7717 155.877 96.1594 156.378 96.7073 156.447L96.9593 154.463ZM107.198 155.686C107.737 155.566 108.077 155.032 107.958 154.493C107.838 153.954 107.304 153.614 106.765 153.734L107.198 155.686ZM111.315 152.455C110.793 152.637 110.518 153.208 110.701 153.729C110.883 154.25 111.453 154.525 111.975 154.343L111.315 152.455ZM120.665 149.383C121.069 149.006 121.092 148.374 120.716 147.969C120.339 147.565 119.707 147.542 119.302 147.918L120.665 149.383ZM122.073 144.385C121.809 144.871 121.989 145.478 122.474 145.742C122.959 146.005 123.566 145.826 123.83 145.34L122.073 144.385ZM125.552 135.365C125.487 134.816 124.99 134.424 124.441 134.489C123.893 134.554 123.501 135.052 123.566 135.6L125.552 135.365ZM122.524 131.103C122.702 131.626 123.27 131.905 123.793 131.727C124.316 131.549 124.596 130.981 124.418 130.458L122.524 131.103ZM121.222 121.454C121.234 120.901 120.796 120.444 120.244 120.432C119.692 120.42 119.235 120.858 119.223 121.41L121.222 121.454ZM120.67 116.044C120.421 116.536 120.618 117.138 121.111 117.387C121.604 117.637 122.205 117.44 122.455 116.947L120.67 116.044ZM128.765 109.314C129.175 108.944 129.207 108.312 128.837 107.902C128.467 107.492 127.835 107.459 127.425 107.829L128.765 109.314ZM131.459 104.487C131.021 104.824 130.939 105.452 131.276 105.889C131.613 106.327 132.241 106.409 132.678 106.072L131.459 104.487ZM141.084 100.228C141.549 99.9297 141.684 99.3111 141.386 98.8463C141.087 98.3816 140.469 98.2467 140.004 98.545L141.084 100.228ZM144.401 95.7967C143.93 96.0845 143.781 96.6999 144.069 97.1713C144.357 97.6427 144.972 97.7916 145.443 97.5038L144.401 95.7967ZM153.203 89.8086C153.24 89.2576 152.823 88.7809 152.272 88.744C151.721 88.707 151.245 89.1238 151.208 89.6748L153.203 89.8086ZM150.077 84.8998C150.333 85.3894 150.937 85.5792 151.426 85.3238C151.916 85.0683 152.106 84.4643 151.85 83.9746L150.077 84.8998ZM143.587 76.0386C143.107 75.7653 142.496 75.9328 142.223 76.4128C141.949 76.8927 142.117 77.5033 142.597 77.7766L143.587 76.0386ZM137.752 75.516C138.268 75.7131 138.846 75.4546 139.043 74.9387C139.24 74.4228 138.982 73.8448 138.466 73.6477L137.752 75.516ZM127.631 70.7671C127.087 70.6721 126.569 71.0362 126.474 71.5803C126.379 72.1243 126.743 72.6423 127.287 72.7373L127.631 70.7671ZM121.895 71.9806C122.445 72.0405 122.938 71.6439 122.998 71.0948C123.058 70.5458 122.661 70.0522 122.112 69.9924L121.895 71.9806ZM60.5224 114.269C60.5054 116.183 60.5903 118.022 60.768 119.789L62.758 119.589C62.5878 117.896 62.5059 116.13 62.5223 114.287L60.5224 114.269ZM61.6538 125.248C62.5291 129.094 63.8749 132.534 65.5623 135.595L67.3138 134.629C65.7162 131.731 64.4375 128.467 63.6039 124.804L61.6538 125.248ZM68.5917 140.25C70.925 143.319 73.6142 145.896 76.454 148.03L77.6554 146.431C74.9489 144.398 72.3952 141.949 70.184 139.039L68.5917 140.25ZM81.0797 151.065C84.5148 153.023 88.0147 154.417 91.2617 155.326L91.8008 153.4C88.7022 152.533 85.355 151.199 82.07 149.327L81.0797 151.065ZM96.7073 156.447C98.8562 156.72 100.787 156.746 102.351 156.536L102.086 154.554C100.739 154.734 98.989 154.721 96.9593 154.463L96.7073 156.447ZM102.351 156.536C104.082 156.305 105.695 156.02 107.198 155.686L106.765 153.734C105.322 154.054 103.765 154.329 102.086 154.554L102.351 156.536ZM111.975 154.343C115.716 153.035 118.56 151.341 120.665 149.383L119.302 147.918C117.437 149.654 114.848 151.22 111.315 152.455L111.975 154.343ZM123.83 145.34C125.585 142.111 125.938 138.62 125.552 135.365L123.566 135.6C123.916 138.553 123.584 141.605 122.073 144.385L123.83 145.34ZM124.418 130.458C123.841 128.764 123.122 127.209 122.379 125.881L120.634 126.858C121.322 128.088 121.99 129.532 122.524 131.103L124.418 130.458ZM122.379 125.881C121.544 124.389 121.19 122.916 121.222 121.454L119.223 121.41C119.182 123.247 119.634 125.07 120.634 126.858L122.379 125.881ZM122.455 116.947C123.72 114.447 125.903 111.895 128.765 109.314L127.425 107.829C124.476 110.49 122.093 113.234 120.67 116.044L122.455 116.947ZM132.678 106.072C135.234 104.106 138.082 102.156 141.084 100.228L140.004 98.545C136.972 100.492 134.074 102.476 131.459 104.487L132.678 106.072ZM145.443 97.5038C146.902 96.6135 148.378 95.7302 149.858 94.8548L148.84 93.1334C147.354 94.0121 145.87 94.9003 144.401 95.7967L145.443 97.5038ZM149.488 94.9843C151.672 94.6769 153.031 92.375 153.203 89.8086L151.208 89.6748C151.062 91.8468 150.002 92.8923 149.21 93.0038L149.488 94.9843ZM151.85 83.9746C150.427 81.2466 147.813 78.4457 143.587 76.0386L142.597 77.7766C146.552 80.0292 148.862 82.571 150.077 84.8998L151.85 83.9746ZM138.466 73.6477C135.437 72.4907 131.852 71.5039 127.631 70.7671L127.287 72.7373C131.401 73.4553 134.86 74.411 137.752 75.516L138.466 73.6477ZM122.112 69.9924C120.347 69.8001 118.489 69.6466 116.534 69.5362L116.421 71.533C118.343 71.6416 120.167 71.7922 121.895 71.9806L122.112 69.9924Z" fill="url(#paint1_linear)"/>
<path d="M55.4414 110.972L60.1915 104.671L66.3812 108.237" stroke="url(#paint2_linear)" stroke-width="2" stroke-miterlimit="10" stroke-linecap="round"/>
<path d="M139.213 118.676V123.412M139.213 132.521V127.238M139.213 123.412L141.262 121.59M139.213 123.412V127.238M139.213 127.238L136.823 123.412M136.823 128.521C133.5 127.238 132 123.28 132 118.676C132 115.153 137.164 110.656 139.213 111.021C143.5 111.783 140 116.998 143.5 116.998C147 116.998 145.36 125.325 142.286 127.238" stroke="url(#paint3_linear)" stroke-width="2" stroke-linecap="round" stroke-linejoin="round"/>
<path d="M150.819 103.28V105.921M150.819 111V108.054M150.819 105.921L152.188 104.905M150.819 105.921V108.054M150.819 108.054L149.222 105.921M149.222 108.77C147.002 108.054 146 105.847 146 103.28C146 101.315 149.45 98.8084 150.819 99.0116C153.684 99.4367 151.345 102.344 153.684 102.344C156.022 102.344 154.926 106.988 152.873 108.054" stroke="url(#paint4_linear)" stroke-width="2" stroke-linecap="round" stroke-linejoin="round"/>
<path d="M127.819 89.2799V91.921M127.819 97V94.0542M127.819 91.921L129.188 90.9052M127.819 91.921V94.0542M127.819 94.0542L126.222 91.921M126.222 94.7696C124.002 94.0542 123 91.8471 123 89.2799C123 87.3155 126.45 84.8084 127.819 85.0116C130.684 85.4367 128.345 88.3443 130.684 88.3443C133.022 88.3443 131.926 92.9876 129.873 94.0542" stroke="url(#paint5_linear)" stroke-width="2" stroke-linecap="round" stroke-linejoin="round"/>
<path d="M84.7018 112.5C84.7018 111.948 84.254 111.5 83.7018 111.5C83.1495 111.5 82.7018 111.948 82.7018 112.5H84.7018ZM82.7018 122C82.7018 122.552 83.1495 123 83.7018 123C84.254 123 84.7018 122.552 84.7018 122H82.7018ZM81 109.125L80.4759 108.273C80.0949 108.508 79.916 108.967 80.0378 109.397C80.1596 109.828 80.5526 110.125 81 110.125V109.125ZM102.614 109.125V110.125C103.049 110.125 103.435 109.843 103.567 109.429C103.699 109.014 103.548 108.562 103.193 108.31L102.614 109.125ZM92.5789 102L93.1579 101.185C92.8308 100.952 92.3965 100.938 92.0549 101.148L92.5789 102ZM82.5439 111.125C81.9916 111.125 81.5439 111.573 81.5439 112.125C81.5439 112.677 81.9916 113.125 82.5439 113.125V111.125ZM84.8596 113.125C85.4119 113.125 85.8596 112.677 85.8596 112.125C85.8596 111.573 85.4119 111.125 84.8596 111.125V113.125ZM82.5439 121C81.9916 121 81.5439 121.448 81.5439 122C81.5439 122.552 81.9916 123 82.5439 123V121ZM84.8596 123C85.4119 123 85.8596 122.552 85.8596 122C85.8596 121.448 85.4119 121 84.8596 121V123ZM90.1053 112.5C90.1053 111.948 89.6575 111.5 89.1053 111.5C88.553 111.5 88.1053 111.948 88.1053 112.5H90.1053ZM88.1053 122C88.1053 122.552 88.553 123 89.1053 123C89.6575 123 90.1053 122.552 90.1053 122H88.1053ZM87.9474 111.125C87.3951 111.125 86.9474 111.573 86.9474 112.125C86.9474 112.677 87.3951 113.125 87.9474 113.125V111.125ZM90.2632 113.125C90.8154 113.125 91.2632 112.677 91.2632 112.125C91.2632 111.573 90.8154 111.125 90.2632 111.125V113.125ZM87.9474 121C87.3951 121 86.9474 121.448 86.9474 122C86.9474 122.552 87.3951 123 87.9474 123V121ZM90.2632 123C90.8154 123 91.2632 122.552 91.2632 122C91.2632 121.448 90.8154 121 90.2632 121V123ZM95.5088 112.5C95.5088 111.948 95.0611 111.5 94.5088 111.5C93.9565 111.5 93.5088 111.948 93.5088 112.5H95.5088ZM93.5088 122C93.5088 122.552 93.9565 123 94.5088 123C95.0611 123 95.5088 122.552 95.5088 122H93.5088ZM93.3509 111.125C92.7986 111.125 92.3509 111.573 92.3509 112.125C92.3509 112.677 92.7986 113.125 93.3509 113.125V111.125ZM95.6667 113.125C96.219 113.125 96.6667 112.677 96.6667 112.125C96.6667 111.573 96.219 111.125 95.6667 111.125V113.125ZM93.3509 121C92.7986 121 92.3509 121.448 92.3509 122C92.3509 122.552 92.7986 123 93.3509 123V121ZM95.6667 123C96.219 123 96.6667 122.552 96.6667 122C96.6667 121.448 96.219 121 95.6667 121V123ZM100.912 112.5C100.912 111.948 100.465 111.5 99.9123 111.5C99.36 111.5 98.9123 111.948 98.9123 112.5H100.912ZM98.9123 122C98.9123 122.552 99.36 123 99.9123 123C100.465 123 100.912 122.552 100.912 122H98.9123ZM98.7544 111.125C98.2021 111.125 97.7544 111.573 97.7544 112.125C97.7544 112.677 98.2021 113.125 98.7544 113.125V111.125ZM101.07 113.125C101.622 113.125 102.07 112.677 102.07 112.125C102.07 111.573 101.622 111.125 101.07 111.125V113.125ZM98.7544 121C98.2021 121 97.7544 121.448 97.7544 122C97.7544 122.552 98.2021 123 98.7544 123V121ZM101.07 123C101.622 123 102.07 122.552 102.07 122C102.07 121.448 101.622 121 101.07 121V123ZM81.386 123.75C80.8337 123.75 80.386 124.198 80.386 124.75C80.386 125.302 80.8337 125.75 81.386 125.75V123.75ZM103 125.75C103.552 125.75 104 125.302 104 124.75C104 124.198 103.552 123.75 103 123.75V125.75ZM81.386 127C80.8337 127 80.386 127.448 80.386 128C80.386 128.552 80.8337 129 81.386 129V127ZM103 129C103.552 129 104 128.552 104 128C104 127.448 103.552 127 103 127V129ZM82.7018 112.5V122H84.7018V112.5H82.7018ZM81 110.125H102.614V108.125H81V110.125ZM103.193 108.31L93.1579 101.185L92 102.815L102.035 109.94L103.193 108.31ZM92.0549 101.148L80.4759 108.273L81.5241 109.977L93.103 102.852L92.0549 101.148ZM82.5439 113.125H84.8596V111.125H82.5439V113.125ZM82.5439 123H84.8596V121H82.5439V123ZM88.1053 112.5V122H90.1053V112.5H88.1053ZM87.9474 113.125H90.2632V111.125H87.9474V113.125ZM87.9474 123H90.2632V121H87.9474V123ZM93.5088 112.5V122H95.5088V112.5H93.5088ZM93.3509 113.125H95.6667V111.125H93.3509V113.125ZM93.3509 123H95.6667V121H93.3509V123ZM98.9123 112.5V122H100.912V112.5H98.9123ZM98.7544 113.125H101.07V111.125H98.7544V113.125ZM98.7544 123H101.07V121H98.7544V123ZM81.386 125.75H103V123.75H81.386V125.75ZM81.386 129H103V127H81.386V129Z" fill="url(#paint6_linear)"/>
<path d="M23.3846 100H28.7692V92.8621H33.6154M23.3846 100V95.6207H18V111H23.3846M23.3846 100V111M39 111V95.6207M39 111H45.5V95.6207H39M39 111H23.3846M33.6154 92.8621V89H39V92.8621M33.6154 92.8621H39M39 95.6207V92.8621M41.5 98.5H43.5M41.5 102H43.5M41.5 105.5H43.5M31 95.6207H36.5M25.5 103H36.5M31 99.5H36.5M25.5 106.5H36.5" stroke="url(#paint7_linear)" stroke-width="2"/>
<defs>
<linearGradient id="paint0_linear" x1="90.25" y1="47" x2="90.25" y2="97" gradientUnits="userSpaceOnUse">
<stop stop-color="#E3A83C"/>
<stop offset="1" stop-color="#F97D7D"/>
</linearGradient>
<linearGradient id="paint1_linear" x1="105.336" y1="81.2787" x2="96.0332" y2="135.379" gradientUnits="userSpaceOnUse">
<stop stop-color="#E3A83C"/>
<stop offset="1" stop-color="#F97D7D"/>
</linearGradient>
<linearGradient id="paint2_linear" x1="66.0584" y1="106.456" x2="56.3787" y2="108.21" gradientUnits="userSpaceOnUse">
<stop stop-color="#E3A83C"/>
<stop offset="1" stop-color="#F97D7D"/>
</linearGradient>
<linearGradient id="paint3_linear" x1="138.735" y1="111" x2="138.735" y2="132.521" gradientUnits="userSpaceOnUse">
<stop stop-color="#E3A83C"/>
<stop offset="1" stop-color="#F97D7D"/>
</linearGradient>
<linearGradient id="paint4_linear" x1="150.5" y1="99" x2="150.5" y2="111" gradientUnits="userSpaceOnUse">
<stop stop-color="#E3A83C"/>
<stop offset="1" stop-color="#F97D7D"/>
</linearGradient>
<linearGradient id="paint5_linear" x1="127.5" y1="85" x2="127.5" y2="97" gradientUnits="userSpaceOnUse">
<stop stop-color="#E3A83C"/>
<stop offset="1" stop-color="#F97D7D"/>
</linearGradient>
<linearGradient id="paint6_linear" x1="92" y1="102" x2="92" y2="128" gradientUnits="userSpaceOnUse">
<stop stop-color="#E3A83C"/>
<stop offset="1" stop-color="#F97D7D"/>
</linearGradient>
<linearGradient id="paint7_linear" x1="31.75" y1="89" x2="31.75" y2="111" gradientUnits="userSpaceOnUse">
<stop stop-color="#E3A83C"/>
<stop offset="1" stop-color="#F97D7D"/>
</linearGradient>
</defs>
</svg>
