<svg width="182" height="182" viewBox="0 0 182 182" fill="none" xmlns="http://www.w3.org/2000/svg">
<circle cx="91" cy="91" r="91" fill="#9381DA" fill-opacity="0.05"/>
<path d="M51 152H102.934V132.584H124.527V116.202H145.726V98H163" stroke="url(#paint0_linear)" stroke-width="2" stroke-linecap="round" stroke-linejoin="round"/>
<path d="M153 95V66.5833M153 51V54.2083M153 54.2083H168L163.714 60.625L168 66.5833H153M153 54.2083V66.5833" stroke="url(#paint1_linear)" stroke-width="2" stroke-linecap="round" stroke-linejoin="round"/>
<path d="M84.9921 52.5992L82.348 56.303M82.348 56.303C81.9954 57.1849 82.0307 59.4777 84.9921 61.5942C85.8098 62.1786 86.5119 62.5613 87.1074 62.798M82.348 56.303C81.6858 56.038 80.2277 55.5141 78.6463 55.0904M89.7514 62.6524L91.3379 57.3612M89.7514 62.6524C89.7514 62.6524 93.4531 65.8271 93.4531 67.9436C93.4531 72.1339 93.1006 75.7039 90.2803 77.9968M89.7514 62.6524C89.4962 63.0354 88.6684 63.4184 87.1074 62.798M65.4259 64.2397C64.3682 64.0362 51.6766 66.3562 51.6766 66.3562C51.6766 66.3562 43.7444 76.9385 42.6867 78.5259C42.3245 79.0695 41.1561 78.7443 39.8611 77.9968M65.4259 64.2397C66.4835 64.4433 46.9173 82.2296 45.8596 83.817C45.426 84.4679 47.0127 85.8885 49.0325 88.05C51.2917 91.2196 60.6665 95.8985 64.3682 96.5158M65.4259 64.2397C79.1751 66.8853 77.3771 54.7174 78.6463 55.0904M64.3682 96.5158C73.8869 98.1032 73.5344 95.4576 74.9446 94.3994L90.2803 77.9968M64.3682 96.5158C71.2343 90.7926 82.4333 73.4967 87.1074 62.798M90.2803 77.9968L102.972 85.4044H119.365C121.48 85.4044 122.538 76.9385 120.952 76.9385C119.365 76.9385 105.616 75.8803 105.616 75.8803L92.9499 66.3562M60.1377 102.336C59.0801 106.569 58.234 112.072 56.9648 112.918L29.9951 130.908L22.5917 121.384L45.8596 106.569C46.7057 105.299 48.3274 95.8103 49.0325 91.2247M39.8611 77.9968L35.2833 83.2879C34.2257 83.817 32.6392 82.7588 32.1104 82.2297C31.4415 81.5604 29.9951 79.9369 30.5239 79.5841C31.5816 78.5259 32.8507 78.4201 33.6968 77.9968L35.8121 76.9385L37.1095 75.8803M39.8611 77.9968C38.9244 77.456 37.9215 76.6942 37.1095 75.8803M37.1095 75.8803C35.7659 74.5335 34.9451 73.0439 35.8121 72.1765C37.9273 70.06 49.0325 56.303 49.0325 56.303C57.4936 55.5975 74.9445 54.2924 77.0598 54.7157C77.5859 54.8209 78.1228 54.9502 78.6463 55.0904M122.009 79.5201L127.807 78.0411C129.232 79.0931 132.067 81.433 131.999 82.3771C131.931 83.3211 130.644 83.6236 130.01 83.6568C129.342 83.055 128.679 82.3745 127.736 82.3063C126.885 82.7565 124.865 83.6568 123.596 83.6568H120.952M49.0325 87.5208C48.5037 88.5791 47.9749 90.1664 50.0901 92.2829C52.7342 94.9285 71.2428 109.744 73.3581 112.389C75.4734 115.035 74.4157 135.67 74.4157 137.258C74.4157 138.528 82.8768 138.492 87.1073 138.316C87.1073 129.321 86.8958 111.014 86.0497 109.744C85.2036 108.474 78.6463 100.749 74.4157 95.4576M23.1205 122.443C21.534 122.972 18.2553 124.241 17.8323 125.088C17.4092 125.935 18.0086 128.439 18.8899 129.85C19.595 129.497 21.0713 127.945 21.0713 128.792C21.0713 129.85 18.9561 128.792 22.0628 134.083C23.3124 136.211 27.1747 140.609 27.8798 140.432L29.4663 138.316C28.5849 137.081 27.8798 134.295 27.8798 133.025V128.792M77.564 139.255C77.0744 140.855 76.2061 144.263 76.6499 145.099C77.0936 145.935 79.4802 146.9 81.1401 147C81.262 146.221 80.8549 144.117 81.5441 144.608C82.4056 145.222 80.317 146.332 86.4266 146.87C88.884 147.086 94.7046 146.489 94.9701 145.812L94.1675 143.292C92.6511 143.294 89.9735 142.252 88.9398 141.515L85.4939 139.059M98.2125 51.0118C98.2125 51.0118 96.0972 47.8372 95.5684 49.9536C95.0396 52.0701 97.1549 52.0701 97.1549 52.0701M97.1457 40.5911C97.3033 40.9066 97.3344 42.3895 97.145 42.9574M83.6633 47.9224L86.0264 53.8388C90.5185 58.0995 93.8296 57.6272 97.1421 52.4225C98.2549 50.674 98.5207 47.986 99.2725 46.0342C99.7011 44.9215 101.637 46.0349 101.874 44.1419C99.9833 41.5385 98.564 37.2607 97.8569 34.9122M16.4694 80.0625C18.6974 78.4006 21.0128 77.4689 22.5359 78.3599C23.4284 78.8821 24.6603 79.8806 26.042 81.1369M16.4694 80.0625C12.6384 82.92 9.06525 87.9365 10.2207 89.5585C15.0816 94.3472 25.1361 103.985 26.4664 104.224C27.4733 104.406 31.395 101.217 34.3752 98.4326M16.4694 80.0625C17.1805 81.4218 19.2177 84.5708 22.3462 87.8293M34.3752 98.4326C36.3164 96.6191 37.8581 94.9773 37.935 94.5502C38.0161 94.0991 36.0771 91.6359 33.4873 88.7396M34.3752 98.4326C32.8777 97.214 28.7996 93.7993 24.4675 89.8884M24.4675 89.8884C23.7134 89.2077 23.0055 88.5161 22.3462 87.8293M24.4675 89.8884L22.9692 91.8547L20.5875 89.1896L22.3462 87.8293M24.4675 89.8884L26.4226 88.5635L23.9434 86.4399L22.3462 87.8293M33.4873 88.7396C31.1987 86.1802 28.4019 83.2826 26.042 81.1369M33.4873 88.7396C34.8232 87.6758 37.8368 84.9172 37.4713 84.4041C37.3166 84.1869 36.6566 83.4939 35.8121 82.6436M26.042 81.1369C27.4051 79.9219 30.3335 77.6401 31.1424 78.233C31.3149 78.3594 31.5993 78.6036 31.9549 78.9249M89.5789 37.2759C89.5789 37.2759 95.0186 36.3311 97.3839 35.1487C99.7496 32.7831 98.3319 28.76 98.3319 28.76C98.3319 28.76 95.7302 29.4691 91.7101 28.5214C87.69 27.5736 84.7413 27.8899 82.2499 29.7016C79.6479 31.5937 74.6799 37.0346 79.8806 43.8985C81.3093 45.7841 82.0082 46.9753 82.9535 48.8687L84.8462 46.7396C84.8462 46.7396 82.6519 45.1949 82.429 43.5318C82.2062 41.8687 82.9032 39.7459 84.5583 40.6929C85.6617 41.3242 86.0298 42.7961 86.266 43.6638L87.6852 42.9544C87.6854 42.1656 87.3085 37.4645 89.5789 37.2759Z" stroke="url(#paint2_linear)" stroke-width="2"/>
<defs>
<linearGradient id="paint0_linear" x1="107" y1="98" x2="107" y2="152" gradientUnits="userSpaceOnUse">
<stop stop-color="#E3A83C"/>
<stop offset="1" stop-color="#F97D7D"/>
</linearGradient>
<linearGradient id="paint1_linear" x1="160.5" y1="51" x2="160.5" y2="95" gradientUnits="userSpaceOnUse">
<stop stop-color="#E3A83C"/>
<stop offset="1" stop-color="#F97D7D"/>
</linearGradient>
<linearGradient id="paint2_linear" x1="71" y1="28" x2="71" y2="147" gradientUnits="userSpaceOnUse">
<stop stop-color="#E3A83C"/>
<stop offset="1" stop-color="#F97D7D"/>
</linearGradient>
</defs>
</svg>
