<svg width="182" height="182" viewBox="0 0 182 182" fill="none" xmlns="http://www.w3.org/2000/svg">
<g clip-path="url(#clip0)">
<circle cx="94" cy="92" r="91" fill="#9381DA" fill-opacity="0.05"/>
<path d="M50.1667 98V90.8571M64.1667 98L63.1667 89.4286M39.7071 66.047C39.533 65.4915 38.7668 64.7138 37.0953 66.047C35.0059 67.7135 37.0953 71.602 37.0953 72.713C37.0953 73.824 38.6624 76.6014 39.7071 75.4904C40.7518 74.3794 39.7071 80.4899 41.2742 82.1564C42.8412 83.8229 49.6319 89.9333 50.6766 91.0443C51.7213 92.1553 60.6014 92.1553 62.1684 91.0443C63.7355 89.9333 71.0485 83.2674 71.0485 82.1564C71.0485 81.0454 71.0485 71.602 71.5709 72.1575C72.0932 72.713 71.5709 74.9349 73.138 74.3794C74.705 73.824 75.7497 70.491 75.7497 68.8245C75.7497 67.158 76.2721 64.3805 74.705 63.825C73.4514 63.3806 72.0932 64.3805 71.5709 64.936M50.1667 80.8571L52.7593 83.3061H59.6944L63 80.8571M52.5 74.7347C52.5 74.7347 53.9 75.9592 56 75.9592C58.1 75.9592 59.5 74.7347 59.5 74.7347M44.3333 60.6531C43.1667 59.0459 45.3939 58.6633 51.2273 58.6633M60.7727 58.6633H67.6667M37 65.5L39.7071 65.3114L41.356 54.9806L46.123 52.2513L45.0637 45.701H39.767C39.767 45.701 36.589 51.1596 36.589 52.7972C36.589 55.854 36.0593 58.6196 36.0593 59.8933L37 65.5ZM46.123 44.6093L47.1823 41.3342C49.8307 39.6966 55.3392 37.6224 56.1867 38.0591C57.246 38.6049 69.2342 41.4494 72.0767 42.4259C75.2547 43.5176 78.4327 44.0635 76.314 45.701C74.6191 47.0111 69.6049 50.6137 67.8393 52.2513H50.3603C48.6654 52.2513 47.5354 51.5235 47.1823 51.1596C46.8292 49.3401 46.123 45.4827 46.123 44.6093ZM69.958 52.2513L71.0173 63.7143L74.1953 62.6226L75.2547 51.1596L72.0767 50.0679L69.958 52.2513Z" stroke="url(#paint0_linear)" stroke-width="2"/>
<path d="M127.125 89.4755C127.774 92.0717 127.866 100.823 127.086 102.381C126.307 103.939 123.028 107.574 121.729 108.223M121.729 108.223C123.19 111.63 128 118.045 134.811 117.477C141.623 116.91 143.589 114.828 147.485 105.579M121.729 108.223L115 111M139.385 88.3773C138.898 90.3245 139.315 98 140.483 99.9472C141.652 101.894 144.742 104.328 146.69 105.302C146.933 105.387 147.199 105.48 147.485 105.579M147.485 105.579C151.033 106.813 157.695 109.089 161.3 110.17C165.196 111.338 170.5 114.426 170.5 115.83M123.323 42.1226L128.708 38.2029C133.114 37.3863 143.982 37.8109 148.29 42.1226C153.675 47.5123 153.7 49.5476 154.164 50.9421C155.143 53.8819 156.469 61.7214 155 63.6813M154.164 71.0315C154.164 72.5014 154.751 78.4784 157.101 80.8303C160.039 83.7701 160.665 83.0054 159.549 85.24C158.57 87.1999 154.164 91.1197 147.31 91.6096C145.357 91.7493 140.479 92 139.5 92M127.543 93C124.117 94.4699 117.938 85.24 113.532 87.1999C111.768 87.9845 108.802 86.2437 106.461 84.2601M120.875 52.902C119.57 58.2917 116.175 70.4429 113.042 75.9306C109.909 81.4183 107.349 83.7701 106.461 84.2601M106.461 84.2601C104.015 82.1877 102.251 79.8503 103.251 79.8503C105.016 79.8503 110.595 75.9306 110.595 71.5209C110.595 68.3835 110.105 61.2315 109.615 52.902C109.126 44.5725 113.532 43.5925 115.49 42.1226C117.057 40.9467 121.201 42.7759 122.344 43.5925L123.323 51.922C127.402 54.6985 136.834 60.1535 141.925 59.7616C147.017 59.3696 149.269 62.2114 149.758 63.6813L150.635 66.2711C150.964 65.785 151.917 64.9101 153.099 65.299C154.577 65.785 154.577 68.7013 154.577 69.6734C154.577 70.6455 153.099 73.0758 152.606 73.5618C151.983 74.1766 150.635 73.5618 150.143 73.0758C149.65 72.5897 150.537 76.3809 148.172 79.8805C145.215 84.2549 139.302 90.5736 132.404 90.5736C125.506 90.5736 119.593 83.2828 118.607 81.8247C117.819 80.6581 115.5 76.5 115.5 70.5291M146.201 66.2711L144.23 65.3476L140.781 64.8129H138.81M125.506 64.3269C124.027 64.3269 122.862 64.3091 121.564 64.8129C120.265 65.3168 119.593 65.785 119.593 65.785M129.447 74.5339C130.104 75.02 130.926 75.9921 132.404 75.9921C133.882 75.9921 134.375 75.506 135.36 74.0479M126.984 81.3386H127.969C128.462 81.8247 129.94 83.7689 132.404 83.7689C134.868 83.7689 135.853 81.3386 136.346 81.3386C136.839 81.3386 136.839 81.1766 137.331 81.3386M119.593 61.4106C119.987 61.4106 121.071 61.0865 121.564 60.9245H125.506M138.317 61.8966H143.244L145.708 62.8687M62 162.5C66.3768 157.847 70.3396 146.164 71.6698 143.832C73 141.5 76.471 139.118 79.3938 138.165C81.732 137.403 88.6493 136.1 91.0849 135.783M105.287 133.809C107.885 133.968 116.221 135.497 119.339 138.165C121.63 140.126 125.639 144.61 128.7 148.173M105.287 133.809C104.805 135.78 102.4 138.243 99.0317 138.736C94.2203 139.44 92.6165 137.586 90.8523 136.272L91.5 127.302M105.287 133.809L101.5 126.732M126 161C125.298 160.245 122.059 156.322 120.383 154.832M120.383 154.832C118.182 152.876 115.884 151.076 115.442 151.508C114.662 152.271 119.863 162.07 121 163.5M120.383 154.832L128.7 148.173M120.383 154.832L120.369 154.844M81 164.5C81 163 82.5114 155.607 81.3423 154.844C80.5714 154.341 79.4756 155.469 78.5859 156.75M128.7 148.173C130.631 150.421 132.615 153.207 134.262 154.844M74 164C74.5 163 78.1263 157.412 78.5859 156.75M78.5859 156.75L68.3598 152.098M71.6065 109.666L70.1631 105.232C69.7782 104.049 72.8896 103.754 74.4934 103.754V108.681L71.6065 109.666ZM71.6065 109.666L67.4266 119.329M110.098 97.8414L111.06 94.3924C111.83 93.6041 113.306 94.7209 113.947 95.3778C113.787 96.8559 113.177 99.8122 112.023 99.8122C110.868 99.8122 110.258 98.4983 110.098 97.8414ZM110.098 97.8414C102.5 97.8414 93.6215 92.2245 92.2957 91.4362C90.9699 90.6478 90.1395 88.1514 89.89 87.0018M69.682 105.725H62.4648C61.8233 106.71 61.2377 107.971 61.2377 111.987C61.2377 117.548 66.5 119 67.4266 119.329M67.4266 119.329C67.2774 119.674 67.3784 119.551 67.2774 119.674L67.4266 119.329ZM74.4934 102.768C74.4934 99.6479 75.4557 92.8157 79.3048 90.4507C83.154 88.0858 87.9654 87.166 89.89 87.0018M89.89 87.0018L90.8523 91.4362C86.6824 96.8559 76.5397 109 75 109M89.89 87.0018C92.1995 85.031 99.5129 85.031 101.919 85.5237C106.73 87.0018 107.692 88.9726 108.655 90.4507C109.424 91.6332 111.06 93.8679 111.06 93.8679M76.2481 109.47C75.2711 109.47 73.317 109.754 73.317 110.889C73.317 112.307 75.2711 116.089 76.2481 116.089C77.0298 116.089 77.8766 115.459 78.2023 115.144C80.4821 118.769 84.7594 123.804 86.5072 125.073C90.4155 127.909 95.3008 127.909 98.2319 127.909C101.163 127.909 107.025 122.709 108.002 121.763C108.98 120.817 111.911 112.78 111.911 109.47C111.911 106.161 113.865 110.416 114.353 106.161C114.842 101.905 114.353 102.854 111.911 102.381M92.8581 112.307C92.8581 112.307 94.1245 113.005 94.8122 113.253C95.5 113.5 96.5 112 96.5 112M82.1105 106.161L86.5072 103.324M98.7205 100.487C99.8604 100.802 102.531 101.433 104.094 101.433M92.8581 120.345C93.3466 120.975 94.5556 121.526 96.2778 121.763C98 122 98.7205 120.817 99.6975 118.453M114.353 95.5151L121.681 93.8679C122.658 94.8135 124.417 97.2721 123.635 99.5415C122.658 102.378 119.438 104.3 119.438 104.3L111.911 99.5415M25 114.543L30.3253 108.266L47.7534 103.439M47.7534 103.439V97.1622L53.0786 99.0934L57.9198 105.37M47.7534 103.439L57.9198 110.68V105.37M57.9198 105.37L61.5 98.5L70 97L68.5703 102.768M57.9198 110.889C57.9198 119.674 53.2254 147.551 54 163M62.2768 120.772V163" stroke="url(#paint1_linear)" stroke-width="2"/>
<path d="M143.666 66.0208C143.666 66.8957 143.507 68.8885 141.695 68.8885C139.724 68.8885 139.724 66.9443 140.217 65.4861L143.666 66.0208Z" fill="url(#paint2_linear)"/>
<path d="M124.942 66.9443C124.942 68.1108 122.971 68.6455 122.478 68.4024C121.493 67.9164 121.143 67.0804 121 65.4861C122.298 64.9823 123.464 65.0001 124.942 65.0001V66.9443Z" fill="url(#paint3_linear)"/>
<path d="M87.0495 110.191C86.561 110.664 85.2908 111.326 84.1183 110.191C83.4804 109.741 85.5839 106.882 86.561 107.827C87.3426 108.584 87.2123 109.718 87.0495 110.191Z" fill="url(#paint4_linear)"/>
<path d="M103.659 106.882C103.659 107.827 102.194 106.882 100.728 106.882C98.7742 106.882 101.235 103.581 102.194 104.045C103.153 104.509 103.659 105.824 103.659 106.882Z" fill="url(#paint5_linear)"/>
<path d="M87.0495 110.191C86.561 110.664 85.2908 111.326 84.1183 110.191C83.4804 109.741 85.5839 106.882 86.561 107.827C87.3426 108.584 87.2123 109.718 87.0495 110.191Z" stroke="url(#paint6_linear)"/>
<path d="M103.659 106.882C103.659 107.827 102.194 106.882 100.728 106.882C98.7742 106.882 101.235 103.581 102.194 104.045C103.153 104.509 103.659 105.824 103.659 106.882Z" stroke="url(#paint7_linear)"/>
<path d="M65.731 67H61.5383C61.3719 67.9608 61.3386 70.5002 63.6346 70.5002C64.8326 70.5002 65.731 68.8531 65.731 67Z" fill="url(#paint8_linear)"/>
<path d="M50.5904 67C50.5904 67.9608 50.5904 71 48.494 70.5002C46.3976 70.0005 46.9966 68.8531 46.9966 67H50.5904Z" fill="url(#paint9_linear)"/>
<path d="M50.5904 67H46.9966H45" stroke="url(#paint10_linear)" stroke-width="2"/>
<path d="M67.5904 67H63.9966H62" stroke="url(#paint11_linear)" stroke-width="2"/>
</g>
<defs>
<linearGradient id="paint0_linear" x1="56.5297" y1="38" x2="56.5297" y2="98" gradientUnits="userSpaceOnUse">
<stop stop-color="#E3A83C"/>
<stop offset="1" stop-color="#F97D7D"/>
</linearGradient>
<linearGradient id="paint1_linear" x1="97.75" y1="37.8641" x2="97.75" y2="164.5" gradientUnits="userSpaceOnUse">
<stop stop-color="#E3A83C"/>
<stop offset="1" stop-color="#F97D7D"/>
</linearGradient>
<linearGradient id="paint2_linear" x1="132.333" y1="65" x2="132.333" y2="68.8885" gradientUnits="userSpaceOnUse">
<stop stop-color="#E3A83C"/>
<stop offset="1" stop-color="#F97D7D"/>
</linearGradient>
<linearGradient id="paint3_linear" x1="132.333" y1="65" x2="132.333" y2="68.8885" gradientUnits="userSpaceOnUse">
<stop stop-color="#E3A83C"/>
<stop offset="1" stop-color="#F97D7D"/>
</linearGradient>
<linearGradient id="paint4_linear" x1="93.8297" y1="104" x2="93.8297" y2="110.818" gradientUnits="userSpaceOnUse">
<stop stop-color="#E3A83C"/>
<stop offset="1" stop-color="#F97D7D"/>
</linearGradient>
<linearGradient id="paint5_linear" x1="93.8297" y1="104" x2="93.8297" y2="110.818" gradientUnits="userSpaceOnUse">
<stop stop-color="#E3A83C"/>
<stop offset="1" stop-color="#F97D7D"/>
</linearGradient>
<linearGradient id="paint6_linear" x1="93.8297" y1="104" x2="93.8297" y2="110.818" gradientUnits="userSpaceOnUse">
<stop stop-color="#E3A83C"/>
<stop offset="1" stop-color="#F97D7D"/>
</linearGradient>
<linearGradient id="paint7_linear" x1="93.8297" y1="104" x2="93.8297" y2="110.818" gradientUnits="userSpaceOnUse">
<stop stop-color="#E3A83C"/>
<stop offset="1" stop-color="#F97D7D"/>
</linearGradient>
<linearGradient id="paint8_linear" x1="55.3655" y1="67" x2="55.3655" y2="70.5553" gradientUnits="userSpaceOnUse">
<stop stop-color="#E3A83C"/>
<stop offset="1" stop-color="#F97D7D"/>
</linearGradient>
<linearGradient id="paint9_linear" x1="55.3655" y1="67" x2="55.3655" y2="70.5553" gradientUnits="userSpaceOnUse">
<stop stop-color="#E3A83C"/>
<stop offset="1" stop-color="#F97D7D"/>
</linearGradient>
<linearGradient id="paint10_linear" x1="47.7952" y1="67" x2="47.7952" y2="68" gradientUnits="userSpaceOnUse">
<stop stop-color="#E3A83C"/>
<stop offset="1" stop-color="#F97D7D"/>
</linearGradient>
<linearGradient id="paint11_linear" x1="64.7952" y1="67" x2="64.7952" y2="68" gradientUnits="userSpaceOnUse">
<stop stop-color="#E3A83C"/>
<stop offset="1" stop-color="#F97D7D"/>
</linearGradient>
<clipPath id="clip0">
<rect width="182" height="182" fill="white"/>
</clipPath>
</defs>
</svg>
