<svg width="182" height="182" viewBox="0 0 182 182" fill="none" xmlns="http://www.w3.org/2000/svg">
<circle cx="91" cy="91" r="91" fill="#9381DA" fill-opacity="0.05"/>
<path d="M57.0166 112.52V123.592C57.0166 125.968 58.9688 127.892 61.3794 127.892H134.148C136.558 127.892 138.51 125.968 138.51 123.592V100.51M138.51 100.51C140.249 99.8941 141.411 98.2816 141.419 96.4587V67.643C141.435 65.267 139.475 63.335 137.064 63.335H118.143V57.5937C118.135 53.6363 114.887 50.4267 110.864 50.4189H84.6712C80.6562 50.4267 77.3999 53.6285 77.392 57.5937V63.335H58.4709C56.0603 63.335 54.1081 65.267 54.1081 67.643V70.0946M138.51 100.51L105.757 105.757M70.7094 102.465L90.3851 105.757M112.326 63.3428V57.6015C112.326 56.8069 111.678 56.1681 110.872 56.1681H84.6712C83.865 56.1681 83.2169 56.8069 83.2169 57.6015V63.3428H112.326ZM105.118 107.536C105.118 108.331 104.47 108.97 103.663 108.97H91.8792C91.0731 108.97 90.425 108.331 90.425 107.536V101.842C90.425 101.047 91.0731 100.408 91.8792 100.408H103.663C104.47 100.408 105.118 101.047 105.118 101.842V107.536Z" stroke="url(#paint0_linear)" stroke-width="2"/>
<path d="M42.5728 106.975C41.3751 108.139 39.7755 108.838 38.0634 108.87C34.3819 108.942 31.3355 106.011 31.2631 102.325C31.1908 98.6394 34.1167 95.588 37.782 95.5077M34.8803 91.9102C33.7659 90.9662 32.0267 89.4931 32.0267 89.4931C31.6168 89.1478 31.022 89.1398 30.604 89.4851L26.9547 92.4803C26.5367 92.8176 26.4241 93.4118 26.6894 93.8775C26.6894 93.8775 29.16 95.8517 28.4899 97.1458C27.8191 98.4415 24.7763 97.5553 24.7763 97.5553C24.2538 97.6196 23.8519 98.0291 23.8037 98.5511L23.3696 102.984C23.3214 103.506 23.6429 103.995 24.1413 104.156C24.1413 104.156 27.2976 103.879 27.7022 105.28C28.1062 106.679 25.2988 108.131 25.2988 108.131C24.9532 108.541 24.9451 109.143 25.2908 109.552L28.281 113.206C28.6186 113.624 29.2053 113.736 29.6796 113.471C29.6796 113.471 31.6488 110.996 32.9431 111.664C34.2406 112.335 33.345 115.382 33.345 115.382C33.4013 115.904 33.8112 116.322 34.3417 116.378L38.7627 116.82C39.2852 116.868 39.7755 116.547 39.9363 116.049C39.9363 116.049 39.6581 112.886 41.0616 112.483C42.4612 112.082 43.9071 114.892 43.9071 114.892C44.3171 115.238 44.9119 115.246 45.3299 114.9L50.2894 110.942M71.6629 89.8625L67.6518 89.2843C67.0892 89.204 66.6953 88.6821 66.7757 88.1199C66.8159 87.8469 66.9605 87.606 67.1776 87.4374L70.417 85.0043C70.8751 84.659 70.9636 84.0165 70.6259 83.5588L66.9123 78.6042C66.5747 78.1465 65.9236 78.0582 65.4655 78.3955L62.2261 80.8286C61.7759 81.1739 61.1248 81.0856 60.7792 80.6278C60.6104 80.411 60.5381 80.13 60.5783 79.8569L61.149 75.8419C61.2293 75.2798 60.8355 74.7578 60.2728 74.6695L54.1558 73.7942C53.5931 73.7139 53.0706 74.1074 52.9902 74.6695L52.4195 78.6846C52.3391 79.2467 51.8167 79.6401 51.254 79.5598C50.9807 79.5197 50.7396 79.3751 50.5708 79.1583L48.1432 75.9142C47.8056 75.4564 47.1545 75.3681 46.6964 75.7054L43.6017 78.0341L41.3912 79.9935C41.3751 80.0336 41.359 80.0657 41.351 80.1059C41.3108 80.3789 41.3831 80.6519 41.5439 80.8687L43.9714 84.1129C44.2286 84.4421 44.2528 84.8999 44.0357 85.2612C43.8267 85.6226 43.4168 85.8153 43.0068 85.7591L38.9958 85.1809C38.4331 85.1006 37.9107 85.4941 37.8303 86.0562L36.9541 92.1912C36.8737 92.7533 37.2676 93.2753 37.8303 93.3636L41.8413 93.9418C42.404 94.0221 42.7979 94.544 42.7175 95.1061C42.6773 95.3792 42.5326 95.6201 42.3156 95.7887L39.0762 98.2218C38.618 98.5671 38.5296 99.2095 38.8672 99.6673L42.5808 104.622C42.9184 105.08 43.5695 105.168 44.0277 104.831L47.2671 102.398C47.7252 102.052 48.3683 102.149 48.7139 102.606C48.8747 102.823 48.947 103.096 48.9069 103.369L48.3361 107.384C48.2558 107.946 48.6496 108.476 49.2123 108.557L55.3374 109.432C55.3856 109.44 55.4338 109.44 55.4821 109.44C55.9965 109.44 56.4306 109.062 56.5029 108.557L57.0736 104.542C57.154 103.979 57.6765 103.586 58.2391 103.666C58.5124 103.706 58.7536 103.851 58.9224 104.068L61.3499 107.312C61.6875 107.77 62.3386 107.858 62.7968 107.521L67.7483 103.803C68.2065 103.457 68.2949 102.815 67.9573 102.357L65.5298 99.1132C65.2725 98.7839 65.2484 98.3262 65.4655 97.9649C65.6744 97.6035 66.0844 97.4028 66.4943 97.467L70.5054 98.0371C71.068 98.1174 71.5905 97.724 71.6709 97.1619L72.5471 91.0268C72.6114 90.4647 72.2255 89.9428 71.6629 89.8625ZM54.7426 83.3501C50.1849 83.3501 46.4954 87.0519 46.4954 91.613C46.4954 96.1742 50.1849 99.876 54.7426 99.876C59.3002 99.876 62.9897 96.1742 62.9897 91.613C62.9897 87.0519 59.3002 83.3581 54.7426 83.3501Z" stroke="url(#paint1_linear)" stroke-width="2"/>
<defs>
<linearGradient id="paint0_linear" x1="97.7635" y1="50.4189" x2="97.7635" y2="127.892" gradientUnits="userSpaceOnUse">
<stop stop-color="#E3A83C"/>
<stop offset="1" stop-color="#F97D7D"/>
</linearGradient>
<linearGradient id="paint1_linear" x1="47.9595" y1="73.7838" x2="47.9595" y2="116.824" gradientUnits="userSpaceOnUse">
<stop stop-color="#E3A83C"/>
<stop offset="1" stop-color="#F97D7D"/>
</linearGradient>
</defs>
</svg>
