<svg width="182" height="182" viewBox="0 0 182 182" fill="none" xmlns="http://www.w3.org/2000/svg">
<g clip-path="url(#clip0)">
<circle cx="91" cy="94" r="91" fill="#9381DA" fill-opacity="0.05"/>
<path d="M72.6883 104.428L73.162 103.547L73.1007 103.517L72.6883 104.428ZM56.9571 86.0384L57.9554 85.9794L56.9571 85.0384V86.0384ZM49.4335 77.1842L48.5056 76.8115L49.4335 77.1842ZM56.9571 74.4599L56.8472 75.4538L57.9557 74.5126L56.9571 74.4599ZM66.5326 55.3894L67.1002 56.2127L66.5326 55.3894ZM121.25 55.3894L122.055 54.7964L121.25 55.3894ZM127.405 69.6922L126.457 69.3748L127.601 70.6729L127.405 69.6922ZM133.561 74.4598L132.585 74.242V74.242L133.561 74.4598ZM127.405 80.5896L127.515 79.5957L126.512 80.1409L127.405 80.5896ZM108.254 104.428L108.604 105.365L108.254 104.428ZM83.3799 76.8318C83.1852 77.3486 83.4464 77.9254 83.9633 78.12C84.4801 78.3147 85.0569 78.0535 85.2516 77.5366L83.3799 76.8318ZM92.5016 76.5306C92.893 76.9203 93.5261 76.919 93.9158 76.5276C94.3055 76.1363 94.3042 75.5031 93.9129 75.1134L92.5016 76.5306ZM99.7609 67.4055C99.6265 67.9411 99.9517 68.4844 100.487 68.6189C101.023 68.7533 101.566 68.4281 101.701 67.8925L99.7609 67.4055ZM106.865 67.6764C107.256 68.0661 107.889 68.0648 108.279 67.6734C108.669 67.2821 108.667 66.6489 108.276 66.2592L106.865 67.6764ZM78.0452 70.2938C78.3775 70.735 79.0045 70.8232 79.4456 70.491C79.8868 70.1587 79.9751 69.5317 79.6428 69.0906L78.0452 70.2938ZM69.7085 70.6816C69.5026 71.1941 69.7512 71.7764 70.2637 71.9823C70.7762 72.1882 71.3585 71.9396 71.5644 71.4271L69.7085 70.6816ZM66.2661 66.004C65.7338 66.1513 65.4216 66.7021 65.5688 67.2344C65.7161 67.7667 66.267 68.0789 66.7992 67.9316L66.2661 66.004ZM79.844 60.838C79.844 60.2858 79.3963 59.838 78.844 59.838C78.2917 59.838 77.844 60.2858 77.844 60.838H79.844ZM101.388 57.3597C100.971 56.9969 100.34 57.0404 99.9769 57.4568C99.6141 57.8732 99.6575 58.5048 100.074 58.8676L101.388 57.3597ZM111.551 64.5547C112.099 64.623 112.598 64.234 112.667 63.6859C112.735 63.1379 112.346 62.6383 111.798 62.57L111.551 64.5547ZM74.6302 47.5291C75.1792 47.5899 75.6734 47.1941 75.7342 46.6452C75.7949 46.0962 75.3991 45.602 74.8502 45.5413L74.6302 47.5291ZM70.6364 41.0865L69.7179 40.6912L70.6364 41.0865ZM82.9478 39.7243L83.6534 39.0157V39.0157L82.9478 39.7243ZM87.3172 47.2985L87.4036 48.2948L87.3172 47.2985ZM94.9799 37.9144C95.4849 37.6909 95.7131 37.1003 95.4896 36.5953C95.2661 36.0903 94.6755 35.862 94.1705 36.0856L94.9799 37.9144ZM102.099 88.0816L103.069 87.8381L102.099 88.0816ZM93.8912 95.5736L93.7398 96.562L93.8912 95.5736ZM81.5799 97.6168L81.4161 98.6033L81.5799 97.6168ZM76.7921 93.5303L77.728 93.1779L76.7921 93.5303ZM82.9234 84.0074L83.3752 84.8996L83.3753 84.8995L82.9234 84.0074ZM84.3157 83.314L83.9752 82.3737L83.9752 82.3737L84.3157 83.314ZM83.6317 88.7627L82.6419 88.9047L83.8135 89.746L83.6317 88.7627ZM87.3172 88.0816L87.499 89.065L88.3172 88.0816H87.3172ZM87.3172 82.6795L87.235 81.6829L87.3172 82.6795ZM122.734 59.3274C123.028 59.7948 123.645 59.9353 124.113 59.6412C124.58 59.3471 124.721 58.7297 124.426 58.2622L122.734 59.3274ZM128.391 67.3239C128.297 66.7796 127.78 66.4143 127.236 66.5079C126.692 66.6015 126.326 67.1187 126.42 67.663L128.391 67.3239ZM30.2826 104.428L31.1957 104.835L31.2826 104.428H30.2826ZM53.0998 125.212L52.8321 126.176L53.0998 125.212ZM61.1993 130.803L60.2807 130.408L60.2377 130.529L61.1993 130.803ZM48.6307 158.161C48.3014 158.605 48.3939 159.231 48.8373 159.56C49.2806 159.89 49.907 159.797 50.2363 159.354L48.6307 158.161ZM37.8061 101.703L37.1831 102.486L37.8061 101.703ZM64.4807 110.558L63.9277 109.724L64.4807 110.558ZM117.146 109.195L117.699 108.362L117.146 109.195ZM138.456 118.379L139.06 119.175L138.456 118.379ZM58.9309 139.73C58.4915 139.395 57.864 139.48 57.5294 139.92C57.1949 140.359 57.2798 140.986 57.7192 141.321L58.9309 139.73ZM93.8912 147.336L93.9936 148.331L93.8912 147.336ZM123.77 140.525L124.729 140.245L124.709 140.181L123.77 140.525ZM132.747 160.581C133.068 161.03 133.692 161.135 134.142 160.814C134.592 160.493 134.696 159.869 134.375 159.419L132.747 160.581ZM55.5892 65.6057L55.2742 66.5548L56.2948 64.8971L55.5892 65.6057ZM46.6977 66.2868L47.5913 65.8381L46.6977 66.2868ZM120.566 65.6057L119.585 65.4088L121.145 66.4206L120.566 65.6057ZM126.721 60.8382L126.526 61.8189L126.721 60.8382ZM129.457 64.9246L129.903 65.8198L129.457 64.9246ZM140.401 71.0544L140.277 70.0621L139.695 71.763L140.401 71.0544ZM39.858 71.0544L40.0171 72.0417L39.858 70.0544V71.0544ZM36.4382 76.5031L35.4683 76.2596L36.4382 76.5031ZM31.6505 75.1409L32.5987 75.4584L31.6505 75.1409ZM43.2779 84.6762L44.1715 85.1249L43.8309 83.843L43.2779 84.6762ZM37.1222 88.0816L38.0921 88.3251L37.1222 88.0816ZM86.0515 77.7456C86.0515 78.2978 86.4993 78.7456 87.0515 78.7456C87.6038 78.7456 88.0515 78.2978 88.0515 77.7456H86.0515ZM88.0515 77.1842C88.0515 76.6319 87.6038 76.1842 87.0515 76.1842C86.4993 76.1842 86.0515 76.6319 86.0515 77.1842H88.0515ZM91.7897 77.9572C92.2167 77.6068 92.2787 76.9767 91.9283 76.5498C91.578 76.1229 90.9478 76.0608 90.5209 76.4112L91.7897 77.9572ZM89.837 76.9726C89.41 77.3229 89.348 77.953 89.6984 78.38C90.0487 78.8069 90.6789 78.8689 91.1058 78.5186L89.837 76.9726ZM90.4714 158.758L90.5536 159.754L90.4714 158.758ZM89.9461 123.266C90.2435 122.8 90.1073 122.182 89.6419 121.885C89.1765 121.587 88.5582 121.723 88.2608 122.189L89.9461 123.266ZM87.3172 129.561L86.7462 130.382L87.3172 129.561ZM94.5752 129.561L93.7626 128.978L94.5752 129.561ZM94.1344 122.353C93.9275 121.841 93.3447 121.593 92.8326 121.8C92.3205 122.007 92.0732 122.59 92.2801 123.102L94.1344 122.353ZM78.844 118.379L77.9224 117.991L78.2878 119.21L78.844 118.379ZM102.099 118.379L102.558 119.267L102.975 117.897L102.099 118.379ZM73.1007 103.517C70.6823 102.422 66.9873 100.202 63.845 97.1391C60.6938 94.0674 58.2081 90.2579 57.9554 85.9794L55.9589 86.0973C56.2533 91.0816 59.1254 95.3316 62.449 98.5713C65.7815 101.82 69.6786 104.163 72.2759 105.339L73.1007 103.517ZM56.9571 85.0384C51.4427 85.0384 49.2819 80.2444 50.3615 77.5569L48.5056 76.8115C46.8493 80.9349 50.1602 87.0384 56.9571 87.0384V85.0384ZM50.3615 77.5569C50.7282 76.6441 51.6993 76.0275 53.077 75.6859C54.423 75.3521 55.9073 75.3498 56.8472 75.4538L57.0671 73.4659C55.9551 73.3429 54.2248 73.3406 52.5955 73.7447C50.998 74.1409 49.2332 75 48.5056 76.8115L50.3615 77.5569ZM57.9557 74.5126C58.0641 72.4618 58.6569 69.0307 60.0887 65.524C61.5212 62.0156 63.7583 58.5166 67.1002 56.2127L65.9651 54.566C62.1938 57.166 59.7571 61.0454 58.2371 64.7679C56.7165 68.4921 56.0781 72.1443 55.9585 74.4071L57.9557 74.5126ZM89.1035 48.2163C91.6094 48.2163 97.6121 47.7076 104.034 48.4648C110.476 49.2245 116.943 51.2279 120.445 55.9823L122.055 54.7964C118.033 49.3345 110.821 47.2513 104.268 46.4786C97.694 45.7034 91.3852 46.2163 89.1035 46.2163V48.2163ZM127.601 70.6729C128.626 70.4688 130.203 70.4601 131.333 70.9763C131.872 71.2227 132.26 71.5647 132.483 72.0209C132.706 72.4786 132.823 73.1748 132.585 74.242L134.537 74.6776C134.846 73.2929 134.752 72.1106 134.28 71.1436C133.808 70.1753 133.016 69.5467 132.164 69.1573C130.512 68.4022 128.465 68.4616 127.21 68.7114L127.601 70.6729ZM132.585 74.242C132.236 75.8045 132.058 77.043 131.903 77.9268C131.735 78.8833 131.61 79.2913 131.461 79.5037C131.396 79.5959 131.285 79.7345 130.688 79.7847C130.043 79.839 129.072 79.7679 127.515 79.5957L127.295 81.5835C128.817 81.7518 129.983 81.851 130.856 81.7776C131.777 81.7001 132.563 81.413 133.097 80.6539C133.546 80.0149 133.72 79.1459 133.873 78.2719C134.039 77.3253 134.202 76.18 134.537 74.6776L132.585 74.242ZM126.512 80.1409C125.782 81.5943 125.237 83.4934 124.615 85.4473C123.978 87.4452 123.23 89.6104 122.076 91.7846C119.792 96.091 115.873 100.516 107.905 103.491L108.604 105.365C117.052 102.21 121.34 97.44 123.843 92.722C125.083 90.384 125.875 88.0795 126.52 86.0547C127.18 83.9859 127.661 82.3093 128.299 81.0383L126.512 80.1409ZM107.905 103.491C99.8656 106.493 91.9827 106.947 85.6815 106.42C79.3491 105.89 74.7094 104.379 73.162 103.547L72.2146 105.308C74.087 106.316 79.0228 107.87 85.5148 108.413C92.0379 108.958 100.228 108.492 108.604 105.365L107.905 103.491ZM85.2516 77.5366C85.5283 76.8017 86.4035 75.5129 87.6412 74.9423C88.2286 74.6715 88.8983 74.5601 89.6641 74.7412C90.4427 74.9255 91.3975 75.4311 92.5016 76.5306L93.9129 75.1134C92.6231 73.8291 91.355 73.0861 90.1245 72.795C88.8811 72.5008 87.7554 72.6873 86.8039 73.126C84.9638 73.9743 83.7871 75.7505 83.3799 76.8318L85.2516 77.5366ZM101.701 67.8925C101.909 67.0624 102.609 66.5462 103.662 66.4666C104.73 66.3858 105.982 66.797 106.865 67.6764L108.276 66.2592C106.971 64.9592 105.144 64.3488 103.511 64.4723C101.862 64.5971 100.237 65.5112 99.7609 67.4055L101.701 67.8925ZM79.6428 69.0906C78.3012 67.3093 76.0593 66.9646 74.18 67.3504C72.3182 67.7327 70.422 68.9054 69.7085 70.6816L71.5644 71.4271C71.9452 70.479 73.1269 69.6084 74.5823 69.3096C76.0202 69.0143 77.3349 69.3507 78.0452 70.2938L79.6428 69.0906ZM66.7992 67.9316C68.8784 67.3565 72.0045 66.3544 74.6269 65.2112C75.9324 64.6421 77.1585 64.0186 78.074 63.3727C78.5306 63.0506 78.9485 62.6962 79.2613 62.309C79.5688 61.9282 79.844 61.4286 79.844 60.838H77.844C77.844 60.7924 77.8627 60.8575 77.7054 61.0523C77.5533 61.2406 77.2979 61.4726 76.9209 61.7386C76.1692 62.269 75.0869 62.8289 73.8276 63.3779C71.3203 64.4709 68.2907 65.444 66.2661 66.004L66.7992 67.9316ZM100.074 58.8676C101.037 59.7066 102.735 60.9727 104.757 62.1027C106.771 63.2275 109.18 64.2597 111.551 64.5547L111.798 62.57C109.791 62.3203 107.641 61.4227 105.733 60.3567C103.834 59.2958 102.249 58.11 101.388 57.3597L100.074 58.8676ZM74.8502 45.5413C73.9302 45.4395 72.7237 45.0734 71.9636 44.405C71.6023 44.0873 71.3664 43.7243 71.2733 43.3006C71.1801 42.876 71.208 42.2879 71.555 41.4818L69.7179 40.6912C69.2441 41.7921 69.1181 42.8103 69.3199 43.7294C69.5218 44.6494 70.0297 45.3677 70.643 45.9069C71.8322 46.9527 73.4983 47.4039 74.6302 47.5291L74.8502 45.5413ZM71.555 41.4818C72.4311 39.446 74.1624 38.297 76.1326 38.079C78.117 37.8595 80.388 38.5865 82.2422 40.4329L83.6534 39.0157C81.4038 36.7756 78.5451 35.7999 75.9127 36.0912C73.2662 36.384 70.8936 37.9593 69.7179 40.6912L71.555 41.4818ZM67.1002 56.2127C74.8385 50.8779 82.5533 48.715 87.4036 48.2948L87.2309 46.3023C82.0343 46.7525 73.9879 49.0351 65.9651 54.566L67.1002 56.2127ZM87.4036 48.2948C88.0225 48.2412 88.5909 48.2163 89.1035 48.2163V46.2163C88.5272 46.2163 87.9009 46.2442 87.2309 46.3023L87.4036 48.2948ZM82.2422 40.4329C82.4313 40.6213 82.7287 41.0194 83.1087 41.6145C83.476 42.1898 83.8831 42.8887 84.293 43.6283C85.1125 45.1068 85.9226 46.7107 86.4168 47.7336L88.2176 46.8635C87.7114 45.8157 86.884 44.1774 86.0424 42.6588C85.6218 41.9 85.1925 41.1617 84.7943 40.5381C84.4088 39.9344 84.0114 39.3722 83.6534 39.0157L82.2422 40.4329ZM90.0993 47.1254C89.9978 46.0133 90.1205 44.1639 90.8367 42.3575C91.5454 40.57 92.8119 38.8739 94.9799 37.9144L94.1705 36.0856C91.4139 37.3056 89.8305 39.4689 88.9775 41.6204C88.132 43.753 87.9811 45.922 88.1076 47.3072L90.0993 47.1254ZM101.129 88.3251C101.4 89.4046 101.196 91.2425 100.139 92.6649C99.145 94.0026 97.3083 95.0854 94.0426 94.5851L93.7398 96.562C97.6476 97.1607 100.257 95.8597 101.744 93.8577C103.169 91.9405 103.482 89.483 103.069 87.8381L101.129 88.3251ZM94.0426 94.5851C89.418 93.8766 87.1441 94.5746 85.4738 95.4552C83.8384 96.3173 83.3733 96.9008 81.7436 96.6303L81.4161 98.6033C83.8902 99.014 85.135 97.8947 86.4065 97.2244C87.643 96.5725 89.4729 95.9084 93.7398 96.562L94.0426 94.5851ZM81.7436 96.6303C80.1651 96.3684 79.3883 95.9222 78.9125 95.4313C78.4055 94.9083 78.1236 94.2285 77.728 93.1779L75.8563 93.8827C76.2301 94.8754 76.6353 95.9556 77.4764 96.8233C78.3488 97.7233 79.581 98.2988 81.4161 98.6033L81.7436 96.6303ZM77.728 93.1779C76.9225 91.039 77.9123 89.167 79.49 87.6165C81.0565 86.077 82.9773 85.101 83.3752 84.8996L82.4716 83.1153C82.0494 83.3291 79.8897 84.4195 78.0881 86.19C76.2977 87.9496 74.6318 90.6314 75.8563 93.8827L77.728 93.1779ZM83.3753 84.8995L83.3997 84.8871L82.4959 83.103L82.4715 83.1154L83.3753 84.8995ZM83.4003 84.8868C83.957 84.6043 84.2539 84.3999 84.6562 84.2542L83.9752 82.3737C83.4266 82.5724 82.8118 82.9427 82.4952 83.1033L83.4003 84.8868ZM81.9579 84.1371L82.6419 88.9047L84.6216 88.6207L83.9377 83.8531L81.9579 84.1371ZM83.8135 89.746L87.499 89.065L87.1355 87.0983L83.45 87.7793L83.8135 89.746ZM84.6562 84.2542C85.5167 83.9426 86.4382 83.7555 87.3995 83.6761L87.235 81.6829C86.1224 81.7748 85.0242 81.9939 83.9752 82.3737L84.6562 84.2542ZM87.3995 83.6761C90.7839 83.3967 94.1709 84.1156 96.7778 85.192C98.0802 85.7298 99.1577 86.3445 99.9278 86.9415C100.739 87.5703 101.064 88.0671 101.129 88.3251L103.069 87.8381C102.835 86.9067 102.055 86.06 101.153 85.3609C100.21 84.63 98.9677 83.9324 97.5411 83.3434C94.6901 82.1662 90.9849 81.3733 87.235 81.6829L87.3995 83.6761ZM88.3172 88.0816V82.6795H86.3172V88.0816H88.3172ZM120.445 55.9823C121.322 57.1738 122.08 58.2888 122.734 59.3274L124.426 58.2622C123.745 57.1798 122.959 56.0245 122.055 54.7964L120.445 55.9823ZM126.42 67.663C126.589 68.6448 126.52 69.1868 126.457 69.3748L128.354 70.0096C128.569 69.3661 128.583 68.4423 128.391 67.3239L126.42 67.663ZM29.3694 104.02C28.4575 106.063 29.3399 108.404 30.7827 110.523C32.2675 112.703 34.5638 114.979 37.1402 117.089C42.2766 121.295 48.7894 125.052 52.8321 126.176L53.3676 124.249C49.6997 123.229 43.436 119.659 38.4074 115.541C35.9013 113.489 33.768 111.354 32.4358 109.397C31.0616 107.379 30.7397 105.857 31.1957 104.835L29.3694 104.02ZM52.8321 126.176C55.4843 126.913 57.6883 127.556 59.0882 128.339C59.7844 128.728 60.152 129.084 60.3127 129.384C60.4406 129.623 60.4908 129.92 60.2807 130.408L62.1179 131.198C62.5309 130.238 62.5333 129.294 62.0758 128.44C61.6511 127.647 60.8957 127.058 60.0644 126.593C58.4094 125.668 55.9406 124.964 53.3676 124.249L52.8321 126.176ZM31.2826 104.428C31.2826 103.16 32.0355 102.146 33.1413 101.692C34.2358 101.243 35.7362 101.333 37.1831 102.486L38.4292 100.921C36.4563 99.3495 34.1949 99.0985 32.3825 99.8416C30.5815 100.58 29.2826 102.29 29.2826 104.428H31.2826ZM37.1831 102.486C41.7735 106.142 48.0698 108.743 53.4363 110.26C56.1274 111.021 58.6187 111.518 60.5864 111.739C61.568 111.848 62.4426 111.892 63.158 111.858C63.8147 111.826 64.5311 111.724 65.0338 111.391L63.9277 109.724C63.9448 109.713 63.8981 109.746 63.7278 109.783C63.5684 109.818 63.3484 109.846 63.0623 109.86C62.4899 109.887 61.7294 109.854 60.8087 109.751C58.9719 109.546 56.5899 109.073 53.9803 108.335C48.7453 106.855 42.7304 104.348 38.4292 100.921L37.1831 102.486ZM116.593 110.029C117.208 110.437 117.966 110.632 118.75 110.707C119.543 110.783 120.435 110.742 121.378 110.619C123.265 110.375 125.471 109.79 127.727 109.025C132.237 107.495 137.096 105.194 140.245 103.233L139.188 101.535C136.182 103.406 131.465 105.645 127.084 107.131C124.894 107.874 122.826 108.415 121.121 108.636C120.269 108.746 119.536 108.773 118.94 108.716C118.335 108.659 117.939 108.521 117.699 108.362L116.593 110.029ZM140.245 103.233C141.817 102.255 143.16 101.377 144.402 100.622C145.636 99.8725 146.664 99.3115 147.528 98.9904C148.403 98.665 148.959 98.6438 149.329 98.7696C149.659 98.8821 150.052 99.1866 150.426 100.055L152.263 99.2648C151.757 98.0904 151.026 97.2348 149.973 96.8764C148.96 96.5313 147.873 96.7282 146.831 97.1158C145.777 97.5076 144.612 98.1545 143.364 98.9132C142.124 99.6665 140.695 100.598 139.188 101.535L140.245 103.233ZM150.426 100.055C150.826 100.985 151.042 101.862 150.993 102.801C150.944 103.739 150.625 104.823 149.822 106.152C148.191 108.853 144.664 112.414 137.852 117.582L139.06 119.175C145.897 113.989 149.693 110.235 151.534 107.186C152.467 105.641 152.921 104.241 152.99 102.905C153.06 101.569 152.742 100.379 152.263 99.2648L150.426 100.055ZM137.852 117.582C134.144 120.395 129.971 122.115 126.569 123.702C124.902 124.479 123.37 125.248 122.253 126.113C121.131 126.982 120.25 128.088 120.25 129.561H122.25C122.25 128.99 122.565 128.401 123.478 127.694C124.395 126.984 125.733 126.298 127.414 125.514C130.707 123.979 135.137 122.152 139.06 119.175L137.852 117.582ZM57.7192 141.321C58.7965 142.141 60.6118 143.078 62.9166 143.994C65.2409 144.918 68.1238 145.844 71.3782 146.623C77.8816 148.18 85.9205 149.163 93.9936 148.331L93.7887 146.342C85.9939 147.145 78.1876 146.197 71.8439 144.678C68.6747 143.919 65.8836 143.021 63.6552 142.135C61.4074 141.242 59.7914 140.385 58.9309 139.73L57.7192 141.321ZM120.25 129.561C120.25 131.754 120.916 134.611 121.547 136.847C121.868 137.981 122.187 138.984 122.427 139.703C122.547 140.063 122.647 140.353 122.718 140.553C122.753 140.654 122.781 140.732 122.8 140.785C122.81 140.812 122.817 140.833 122.822 140.847C122.825 140.854 122.827 140.859 122.828 140.863C122.829 140.865 122.83 140.866 122.83 140.867C122.83 140.868 122.83 140.868 122.83 140.869C122.83 140.869 122.831 140.869 122.831 140.869C122.831 140.869 122.831 140.869 123.77 140.525C124.709 140.181 124.709 140.181 124.709 140.182C124.709 140.181 124.709 140.182 124.709 140.181C124.709 140.181 124.708 140.181 124.708 140.181C124.708 140.18 124.708 140.179 124.707 140.178C124.706 140.175 124.705 140.171 124.702 140.164C124.698 140.152 124.691 140.134 124.682 140.109C124.665 140.06 124.638 139.986 124.605 139.89C124.537 139.699 124.441 139.419 124.325 139.071C124.092 138.373 123.782 137.4 123.472 136.304C122.844 134.079 122.25 131.454 122.25 129.561H120.25ZM93.9936 148.331C109.984 146.684 119.373 143.062 124.089 141.473L123.45 139.578C118.735 141.167 109.534 144.72 93.7887 146.342L93.9936 148.331ZM56.2948 64.8971C54.3552 62.9657 51.3525 62.0873 49.0737 62.2086C47.9522 62.2683 46.7821 62.5827 46.0464 63.3773C45.6582 63.7966 45.4162 64.3269 45.3792 64.9381C45.3433 65.5324 45.5043 66.1386 45.804 66.7355L47.5913 65.8381C47.4017 65.4603 47.3666 65.2077 47.3756 65.0588C47.3836 64.9268 47.4275 64.8295 47.514 64.7361C47.7275 64.5054 48.2615 64.2546 49.1801 64.2057C50.9815 64.1098 53.4034 64.8403 54.8836 66.3143L56.2948 64.8971ZM45.804 66.7355C46.0388 67.2031 46.3626 67.5971 46.8075 67.8518C47.2547 68.1077 47.7275 68.1674 48.1605 68.1354C48.9483 68.0773 49.8091 67.6871 50.5222 67.3715C52.1215 66.6637 53.6439 66.0137 55.2742 66.5548L55.9042 64.6566C53.4307 63.8356 51.1913 64.8883 49.7128 65.5426C48.8869 65.9081 48.3798 66.1138 48.0134 66.1409C47.8694 66.1515 47.8185 66.126 47.8009 66.1159C47.7809 66.1045 47.6985 66.0515 47.5913 65.8381L45.804 66.7355ZM121.546 65.8026C122.143 62.8319 124.432 61.4018 126.526 61.8189L126.917 59.8574C123.54 59.1848 120.357 61.5687 119.585 65.4088L121.546 65.8026ZM126.526 61.8189C128.004 62.1133 128.731 62.8129 128.991 63.3301C129.276 63.8969 129.013 64.0288 129.012 64.0295L129.903 65.8198C131.27 65.1393 131.349 63.5686 130.778 62.4327C130.183 61.2472 128.858 60.2441 126.917 59.8574L126.526 61.8189ZM129.012 64.0295C128.352 64.3581 127.892 64.3684 127.492 64.2895C126.989 64.19 126.617 63.9801 125.889 63.6954C125.221 63.4339 124.403 63.1916 123.38 63.3085C122.371 63.424 121.272 63.8763 119.986 64.7908L121.145 66.4206C122.254 65.6324 123.036 65.361 123.608 65.2956C124.167 65.2316 124.632 65.3511 125.16 65.5579C125.629 65.7415 126.369 66.1062 127.105 66.2516C127.945 66.4174 128.853 66.3425 129.903 65.8198L129.012 64.0295ZM140.524 72.0467C142.961 71.7434 144.243 72.6216 144.763 73.4712C145.334 74.4025 145.101 75.3202 144.59 75.7019L145.787 77.3043C147.328 76.1536 147.437 74.0064 146.469 72.4262C145.45 70.7643 143.312 69.6844 140.277 70.0621L140.524 72.0467ZM144.59 75.7019C144.444 75.8109 144.401 75.7949 144.443 75.7934C144.495 75.7916 144.506 75.8164 144.451 75.7764C144.277 75.6503 144.028 75.3145 143.679 74.6536C143.517 74.346 143.354 74.0094 143.175 73.6426C143 73.2817 142.811 72.8954 142.61 72.5152C142.213 71.7662 141.729 70.9657 141.106 70.3458L139.695 71.763C140.099 72.1647 140.469 72.7477 140.842 73.4514C141.026 73.7974 141.2 74.1547 141.377 74.5182C141.551 74.8757 141.73 75.2441 141.91 75.5857C142.246 76.2231 142.68 76.9622 143.276 77.3948C143.605 77.6342 144.023 77.8093 144.513 77.7922C144.992 77.7754 145.42 77.5785 145.787 77.3043L144.59 75.7019ZM39.699 70.0671C38.5414 70.2536 37.649 70.6384 36.9899 71.2131C36.3245 71.7933 35.975 72.4989 35.7897 73.1849C35.6099 73.8506 35.5784 74.5251 35.5602 75.0569C35.5398 75.6504 35.5327 76.0033 35.4683 76.2596L37.4081 76.7466C37.5382 76.2284 37.5429 75.5955 37.559 75.1254C37.5772 74.5936 37.6069 74.1267 37.7205 73.7065C37.8285 73.3067 38.0046 72.9819 38.3043 72.7205C38.6103 72.4537 39.1228 72.1857 40.0171 72.0417L39.699 70.0671ZM35.4683 76.2596C35.2907 76.9673 34.3695 77.5127 33.4065 77.3848C32.9772 77.3278 32.7075 77.1465 32.5742 76.9323C32.4476 76.729 32.3189 76.2944 32.5987 75.4584L30.7022 74.8235C30.2981 76.0307 30.3404 77.1286 30.8764 77.9894C31.4056 78.8395 32.2901 79.2541 33.1433 79.3674C34.7451 79.5801 36.9018 78.7633 37.4081 76.7466L35.4683 76.2596ZM32.5987 75.4584C33.0055 74.2432 34.147 73.3773 35.6616 72.8077C37.1556 72.246 38.8101 72.0544 39.858 72.0544V70.0544C38.6261 70.0544 36.724 70.2715 34.9577 70.9357C33.2121 71.5921 31.3898 72.7694 30.7022 74.8235L32.5987 75.4584ZM42.3842 84.2274C42.3223 84.3506 42.2661 84.4029 42.1156 84.5029C41.9653 84.6026 41.561 84.8291 41.2285 85.2263C40.5475 86.0401 40.226 87.4037 40.226 90.1249H42.226C42.226 87.3973 42.5884 86.7176 42.7623 86.5099C42.8574 86.3963 42.9232 86.3673 43.2218 86.1691C43.5201 85.971 43.8914 85.6828 44.1715 85.1249L42.3842 84.2274ZM40.226 90.1249C40.226 90.2059 40.1638 90.4149 39.8307 90.641C39.5101 90.8587 39.0923 90.9746 38.7405 90.9466C38.4222 90.9212 38.2066 90.7915 38.0724 90.5349C37.9124 90.229 37.7795 89.5702 38.0921 88.3251L36.1523 87.8381C35.7809 89.3174 35.819 90.5418 36.3002 91.4619C36.8072 92.4312 37.7031 92.8703 38.5817 92.9403C39.4269 93.0076 40.2915 92.7455 40.9541 92.2957C41.6041 91.8544 42.226 91.1064 42.226 90.1249H40.226ZM38.0921 88.3251C38.5421 86.5326 39.6116 85.8162 40.6199 85.538C41.1493 85.3919 41.6756 85.3659 42.1004 85.4004C42.3118 85.4176 42.4857 85.4488 42.6107 85.4813C42.7568 85.5192 42.7754 85.5429 42.7248 85.5093L43.8309 83.843C43.6094 83.6959 43.3415 83.6047 43.113 83.5454C42.8635 83.4806 42.5746 83.4324 42.2624 83.407C41.6399 83.3564 40.8751 83.3928 40.0879 83.61C38.463 84.0583 36.7966 85.2717 36.1523 87.8381L38.0921 88.3251ZM88.0515 77.7456V77.1842H86.0515V77.7456H88.0515ZM90.5209 76.4112L89.837 76.9726L91.1058 78.5186L91.7897 77.9572L90.5209 76.4112ZM60.2377 130.529L54.6276 150.195L56.5508 150.744L62.161 131.077L60.2377 130.529ZM54.7864 149.873L48.6307 158.161L50.2363 159.354L56.392 151.066L54.7864 149.873ZM55.1232 151.354C58.9382 153.364 64.8229 155.701 71.2155 157.417C77.5996 159.13 84.5768 160.248 90.5536 159.754L90.3891 157.761C84.7385 158.228 78.0143 157.171 71.734 155.485C65.4621 153.802 59.7195 151.515 56.0552 149.585L55.1232 151.354ZM122.81 140.806L125.654 150.543L127.573 149.982L124.729 140.245L122.81 140.806ZM125.799 150.844L132.747 160.581L134.375 159.419L127.427 149.682L125.799 150.844ZM90.5536 159.754C94.339 159.442 100.651 158.762 107.413 157.431C114.16 156.102 121.425 154.111 127.078 151.148L126.149 149.377C120.75 152.207 113.707 154.153 107.026 155.468C100.361 156.781 94.1274 157.452 90.3891 157.761L90.5536 159.754ZM88.2608 122.189C87.6414 123.158 86.7954 124.689 86.2848 126.138C86.0319 126.855 85.8357 127.622 85.8261 128.322C85.8166 129.012 85.9938 129.858 86.7462 130.382L87.8883 128.74C87.8875 128.739 87.8882 128.74 87.8876 128.739C87.8864 128.737 87.879 128.727 87.8693 128.702C87.8482 128.646 87.8234 128.536 87.8259 128.349C87.8312 127.966 87.9476 127.436 88.171 126.803C88.6131 125.549 89.3747 124.16 89.9461 123.266L88.2608 122.189ZM86.7462 130.382C87.8902 131.177 89.7306 131.492 91.2818 131.492C92.0834 131.492 92.8858 131.409 93.5739 131.226C94.2139 131.055 94.9554 130.746 95.3877 130.143L93.7626 128.978C93.7662 128.973 93.7326 129.019 93.6027 129.09C93.4768 129.158 93.2967 129.23 93.0588 129.293C92.5815 129.42 91.9601 129.492 91.2818 129.492C89.8734 129.492 88.5305 129.186 87.8883 128.74L86.7462 130.382ZM95.3877 130.143C95.6054 129.84 95.6986 129.495 95.7414 129.203C95.7855 128.903 95.7868 128.583 95.7659 128.269C95.7243 127.643 95.5863 126.93 95.4113 126.228C95.0598 124.819 94.5225 123.313 94.1344 122.353L92.2801 123.102C92.6451 124.005 93.1483 125.419 93.4707 126.712C93.6327 127.362 93.74 127.945 93.7703 128.402C93.7855 128.63 93.7794 128.799 93.7626 128.913C93.7445 129.036 93.7232 129.033 93.7626 128.978L95.3877 130.143ZM78.2878 119.21C79.1432 119.782 81.3058 120.9 83.7278 121.87C86.1302 122.832 88.9752 123.727 91.1553 123.727V121.727C89.3881 121.727 86.8511 120.966 84.4714 120.013C82.1113 119.068 80.0919 118.011 79.4002 117.548L78.2878 119.21ZM91.1553 123.727C93.3659 123.727 95.7721 122.812 97.7894 121.843C98.8139 121.35 99.7707 120.827 100.589 120.367C101.425 119.897 102.078 119.515 102.558 119.267L101.64 117.49C101.118 117.76 100.396 118.181 99.6088 118.623C98.8041 119.076 97.8904 119.575 96.9228 120.04C94.9561 120.986 92.8921 121.727 91.1553 121.727V123.727ZM102.975 117.897L101.607 115.412L99.8548 116.376L101.223 118.861L102.975 117.897ZM100.387 114.955C96.8673 116.243 95.7133 117.379 90.4714 117.379V119.379C96.1728 119.379 97.8038 118.03 101.074 116.833L100.387 114.955ZM90.4714 117.379C85.2143 117.379 81.62 115.415 80.2056 114.945L79.5753 116.843C80.6551 117.202 84.785 119.379 90.4714 119.379V117.379ZM78.9689 115.506L77.9224 117.991L79.7656 118.767L80.8121 116.282L78.9689 115.506ZM65.0338 111.391C66.0445 110.72 68.092 109.034 69.9125 107.619L68.6852 106.04C66.7551 107.54 64.8569 109.108 63.9277 109.724L65.0338 111.391ZM69.9125 107.619C71.222 106.601 72.4126 105.723 73.1724 105.303L72.2042 103.553C71.285 104.061 69.9725 105.039 68.6852 106.04L69.9125 107.619ZM68.4121 107.292C69.6304 109.628 73.5171 114.741 79.5627 116.839L80.2183 114.949C74.8061 113.071 71.2543 108.417 70.1855 106.367L68.4121 107.292ZM110.411 105.243C113.743 107.613 113.617 107.782 114.586 108.587L115.864 107.049C115.066 106.386 114.972 106.032 111.57 103.613L110.411 105.243ZM114.586 108.587C114.999 108.931 115.566 109.347 116.593 110.029L117.699 108.362C116.696 107.696 116.197 107.325 115.864 107.049L114.586 108.587ZM101.218 116.768L115.712 108.692L114.739 106.945L100.244 115.02L101.218 116.768Z" fill="url(#paint0_linear)"/>
</g>
<defs>
<linearGradient id="paint0_linear" x1="91" y1="37" x2="91" y2="160" gradientUnits="userSpaceOnUse">
<stop stop-color="#E3A83C"/>
<stop offset="1" stop-color="#F97D7D"/>
</linearGradient>
<clipPath id="clip0">
<rect width="182" height="182" fill="white"/>
</clipPath>
</defs>
</svg>
