<svg width="400" height="326" viewBox="0 0 400 326" fill="none" xmlns="http://www.w3.org/2000/svg">
<g clip-path="url(#clip0)">
<path d="M46.8696 325H88.518H338.408C345.072 318.471 385.949 267.603 396.894 223.178C408.555 175.844 385.513 128.302 358.858 108.716C332.203 89.1298 351.295 58.9878 311.313 24.7119C271.33 -9.56404 208.215 -5.74606 173.181 13.9041C141.169 31.8598 29.5447 12.4171 29.5447 108.716C29.5447 175.396 -9.01489 157.96 10.5266 223.178C20.1299 255.228 32.4989 309.147 46.8696 325Z" fill="#EDEBF4"/>
<path d="M233.991 164.931C233.991 164.931 234.67 116.037 224.161 98.9249C213.652 81.8124 201.488 83.8361 201.488 83.8361C201.488 83.8361 190.557 75.3217 179.978 87.7977C169.399 100.274 167.645 110.722 165.595 148.265C166.005 185.33 156 182.97 156 182.97L167.645 174.119C167.645 174.119 181.506 157.597 194.299 160.126C207.092 162.655 233.991 164.931 233.991 164.931Z" fill="#221E1B" stroke="#222121" stroke-width="0.7013" stroke-miterlimit="10"/>
<path d="M187.525 156.17L212.5 154.5L219 170.5L200.5 221L181.038 172.492L187.525 156.17Z" fill="#877666"/>
<path d="M190.5 142.5C190.5 142.5 189.567 152.765 188 157C186.433 161.235 192.601 168.575 200.763 168.99C208.925 169.405 213.5 155.5 213.5 155.5C213.5 155.5 206.863 151.135 209.61 142C202.912 147.813 199.971 149.791 190.5 142.5Z" fill="#DFBDA5" stroke="#EDC7AE" stroke-width="0.7013" stroke-miterlimit="10"/>
<path d="M180.5 127.738C179.854 129.087 177.595 127.112 176.143 121.717C174.69 116.321 174.55 114.402 176.143 114.012C178.079 113.538 178.886 117.21 178.886 117.21L178.659 110.828C178.354 109.197 178.16 108.157 178.16 108.157C178.16 108.157 182.193 86.1692 197.846 86.0011C213.499 85.8323 219.146 105.31 219.146 105.31L220.114 116.57C220.114 116.57 220.922 112.899 222.857 113.373C224.452 113.763 224.309 115.681 222.857 121.077C221.404 126.474 219.307 127.823 218.662 126.474C218.016 125.125 213.308 136.705 208.818 142.663C203.736 149.408 197.257 149.949 191.149 143.202C182.005 133.101 180.5 127.738 180.5 127.738Z" fill="#F1D8C8" stroke="#EAC2A7" stroke-width="0.7013" stroke-miterlimit="10"/>
<path d="M199.016 85.6002C199.016 85.6002 201.721 86.5357 212.993 99.6346C219.032 106.652 220.332 115.901 220.332 115.901C220.332 115.901 220.959 113.305 222.664 113.285C224.367 113.266 226.125 115.092 225.618 117.412C225.109 119.732 222.664 130.386 220.979 128.639C220.224 130.025 219.561 145.977 216.149 153.902C214.511 157.707 217.465 159.955 220.979 161.265C224.782 162.683 229.242 163 229.242 163C229.242 163 230.948 122.812 229.242 115.005C227.535 107.197 226.979 90.27 209.837 81.3897C207.4 80.5178 205.059 81.0603 201.836 83.5101C198.616 85.9591 199.016 85.6002 199.016 85.6002Z" fill="#221E1B"/>
<path d="M218.39 157.153C218.39 157.153 236.657 155.932 241.004 160.387C245.351 164.84 234.056 167.319 234.22 211.799C229.709 228.211 229.347 253 229.347 253L170.963 251.232C170.963 251.232 168.379 222.611 164.847 199.5C169.5 189 170 169.5 168 166C168 166 166.5 162.5 164 163C172.147 159.66 184.713 157.153 184.713 157.153L200.798 160.387L218.39 157.153Z" fill="#CFD6ED" stroke="#C4C4C4" stroke-width="0.7013" stroke-miterlimit="10"/>
<path d="M193 116.285C193 117.477 192.245 118.5 191.168 118.936C190.809 119.082 188.783 118.975 188.3 118.656C187.515 118.137 187.001 117.269 187 116.285C187 115.491 187.336 114.772 187.878 114.251C188.421 113.73 192.171 114.043 192.67 114.971C192.881 115.366 193 115.811 193 116.285Z" fill="white"/>
<path d="M207 110C207 110 211.154 107.771 211.846 108.019C212.539 108.267 216 108 216 108" stroke="#262425" stroke-miterlimit="10" stroke-linecap="round" stroke-linejoin="round"/>
<path d="M195 109.469L187.5 109L183 112" stroke="#262425" stroke-miterlimit="10" stroke-linecap="round" stroke-linejoin="round"/>
<path d="M194.787 134.357C195.262 133.957 197.787 131.832 197.787 131.832L199.787 133.095L201.786 131.832C201.786 131.832 204.084 134.051 204.5 134.357C203.5 135 198.121 135.2 194.787 134.357Z" fill="#C84464" stroke="#C84464" stroke-width="0.7013" stroke-miterlimit="10"/>
<path d="M199.417 138C197.402 138.012 196.25 136.303 195 135C198.502 135.472 202.372 135.475 204 135C202.872 136.239 201.585 137.987 199.417 138Z" fill="#E04F72" stroke="#CD4A6A" stroke-width="0.7013" stroke-miterlimit="10"/>
<path d="M206 116L209.546 113H215" stroke="#221E1B" stroke-miterlimit="10"/>
<path d="M186 114L191.011 114.03L194 116" stroke="#C4C4C4" stroke-width="0.7013" stroke-miterlimit="10"/>
<path d="M199.6 113C199.6 113 200.187 121.779 200.858 123.636C201.53 125.494 199.6 126 199.6 126H197" stroke="#CCAC96" stroke-miterlimit="10" stroke-linecap="round" stroke-linejoin="round"/>
<path d="M213 115.504C213 116.437 212.546 117.258 211.859 117.732C211.468 118.001 209.784 118.073 209.47 117.922C208.604 117.506 208 116.58 208 115.504C208 114.603 208.422 113.808 209.068 113.328C209.474 113.026 211.174 112.924 211.472 113.058C212.371 113.46 213 114.403 213 115.504Z" fill="white"/>
<path d="M214 115.504C214 116.437 213.637 117.258 213.087 117.732C212.774 118.001 211.427 118.073 211.176 117.922C210.483 117.506 210 116.58 210 115.504C210 114.603 210.337 113.808 210.855 113.328C211.179 113.026 212.539 112.924 212.778 113.058C213.497 113.46 214 114.403 214 115.504Z" fill="#2E2B2B" stroke="#303136" stroke-width="0.7013" stroke-miterlimit="10"/>
<path d="M243.047 280.057L237.16 324.778L210 324.823C210 324.823 204.823 306.084 201.192 300.319C198.671 296.316 201.192 324.823 201.192 324.823H166.133C166.133 324.823 156.492 295.273 157.573 291.669C158.654 288.065 157.573 284.103 157.573 284.103L175.766 263.202L243.047 280.057Z" fill="#454D69" stroke="#838383" stroke-width="0.7013" stroke-miterlimit="10"/>
<path d="M193 116.285C193 117.477 192.371 118.5 191.473 118.936C191.174 119.082 189.486 118.975 189.083 118.656C188.429 118.137 188.001 117.269 188 116.285C188 115.491 188.28 114.772 188.732 114.251C189.184 113.73 192.309 114.043 192.725 114.971C192.901 115.366 193 115.811 193 116.285Z" fill="#211E1E"/>
<path d="M208 119C208 119 208.204 118.514 209.956 118.189C211.704 117.865 213.558 118.189 213.558 118.189L214.5 116" stroke="#CCAC96" stroke-width="0.7013" stroke-miterlimit="10"/>
<path d="M209 113.959L214.779 114L215 113H209.914L209 113.959Z" fill="#262424" stroke="#221E1B" stroke-miterlimit="10"/>
<path d="M193 114.98L185.681 115L185 114L191.042 114.019L193 114.98Z" fill="#221E1B" stroke="#23201D" stroke-miterlimit="10"/>
<path d="M201 84.2521C201 84.2521 193.497 90.838 190.203 94.0468C186.909 97.2549 178.138 116 178.138 116C178.138 116 177.762 113.969 176.114 113.675C174.466 113.383 174.383 100.38 177.679 96.4112C180.976 92.4424 188.228 78.8486 201 84.2521Z" fill="#221E1B" stroke="#221E1B" stroke-width="0.7013" stroke-miterlimit="10"/>
<path d="M125.317 220.587C125.317 220.587 153.294 167.71 163.559 163.344C173.824 158.978 166.413 197.577 166.413 197.577C166.413 197.577 147.921 218.142 149.481 221.026C151.042 223.911 166.873 252.877 166.413 256.217C165.953 259.556 151.399 277 151.399 277C151.399 277 121.627 227.394 125.317 220.587Z" fill="#CFD6ED" stroke="#292929" stroke-opacity="0.2" stroke-width="0.7013" stroke-miterlimit="10"/>
<path d="M218.561 157L182.561 160.5V165V179L202.561 219.5L222.561 179L218.561 157Z" fill="#FAFAFA" stroke="black"/>
<path d="M171.061 177.041C171.061 177.041 195.658 211.637 197.548 218.843C199.438 226.051 198.41 247.697 198.41 247.697H203.088C203.088 247.697 201.96 219.924 200.518 214.158C199.077 208.393 184.813 174.158 184.918 170.914C185.023 167.672 188.111 154 188.111 154L171.061 160.464L182.279 168.032L171.061 177.041Z" fill="#8360B8" stroke="#A9A1A1" stroke-width="0.7013" stroke-miterlimit="10"/>
<path d="M169.535 124.918C180.605 117.015 199.545 87.4693 199.978 84.9397C200.41 82.4101 194.443 83.0804 194.443 83.0804C194.443 83.0804 172.372 124.938 164 127.707C164 129.299 169.824 123.829 169.535 124.918Z" fill="#352D27" stroke="#332C26" stroke-miterlimit="10"/>
<path d="M169 128C179.345 119.689 193.596 86.6603 194 84" stroke="#070707" stroke-width="0.5" stroke-miterlimit="10"/>
<path d="M242.047 279.057L232.424 257.435L218.592 279.057C218.591 279.057 231.571 280.499 242.047 279.057Z" fill="#B6BED9" stroke="#C4C4C4" stroke-width="0.7013" stroke-miterlimit="10"/>
<path d="M157.572 284.103L175.766 263.202L171.384 257.436L157.572 279.698V284.103Z" fill="#959598" stroke="#83858D" stroke-width="0.7013" stroke-miterlimit="10"/>
<path d="M171.384 257.436C171.384 257.436 168.061 258 168.061 262.5C168.061 267 215.364 284.103 215.364 284.103L232.424 257.435C232.424 257.435 179.975 261.039 171.384 257.436Z" fill="#CFD6ED" stroke="#C4C4C4" stroke-width="0.7013" stroke-miterlimit="10"/>
<path d="M192 120C192 120 191.824 119.351 190.324 118.919C188.823 118.487 187 118.919 187 118.919L186 116" stroke="#CCAC96" stroke-miterlimit="10"/>
<path d="M288 200.565C288 200.565 287.926 196.686 290.691 195.235C293.455 193.785 301.815 191.039 307.258 191.407C310.174 191.604 312.824 190.574 314.137 191.21C318.128 193.141 317.776 193.129 314.137 193.399C310.497 193.67 296.358 198.935 296.358 198.935L290.691 203L288 200.565Z" fill="#E5B28D" stroke="#EDC2A4" stroke-width="0.7013" stroke-miterlimit="10"/>
<path d="M238.844 160.034C250.064 158.322 259.476 221.01 262.01 222.864C264.543 224.719 285.9 196.898 285.9 196.898L304 215.815C304 215.815 260.563 245.862 256.58 246.975C252.598 248.087 232.487 211.736 232.046 206.172C231.603 200.608 234.394 176.402 238.844 160.034Z" fill="#CFD6ED" stroke="#C4C4C4" stroke-width="0.7013" stroke-miterlimit="10"/>
<path d="M164.755 259.518L168.702 261.758L160.223 275.424L156.302 270.769L164.755 259.518Z" fill="#FADDC8" stroke="#EABFA1" stroke-width="0.7013" stroke-miterlimit="10"/>
<path d="M327.48 184.28C326.236 182.207 317.75 192.209 317.75 192.209C317.75 192.209 295.407 193.65 294.326 195.451C289 195.451 289 201.398 289 201.398L292.325 205.108C292.325 205.108 294.685 200.855 297.209 201.398C299.731 201.938 316.668 198.695 318.831 199.055C320.993 199.415 328.561 186.08 327.48 184.28Z" fill="#FADDC8" stroke="#EABC9C" stroke-width="0.7013" stroke-miterlimit="10"/>
<path d="M187.363 155.602C187.363 155.602 194.148 158.53 201.943 157.816C209.738 157.105 211.987 154 211.987 154L215.061 160.749C215.061 160.749 206.906 167.429 196.982 165.72C191.286 164.741 186.061 161.048 186.061 161.048L187.363 155.602Z" fill="#EFD9E6" stroke="#C4C4C4" stroke-width="0.7013" stroke-miterlimit="10"/>
<path d="M232.643 177.59C232.643 177.59 208.047 212.186 206.157 219.393C202.72 232.5 203.061 247 203.061 247L200.561 231.5C200.561 231.5 199.12 225.159 200.561 219.393C202.003 213.629 218.891 174.708 218.787 171.464C218.682 168.221 212.255 153.673 212.255 153.673L232.643 161.013L221.425 168.582L232.643 177.59Z" fill="#8360B8" stroke="#898989" stroke-width="0.7013" stroke-miterlimit="10"/>
<path d="M199.278 210V165.743L202.743 166.203L206.061 204L201.061 218L199.278 210Z" fill="#EFD9E6" stroke="#C4C4C4" stroke-width="0.7013" stroke-miterlimit="10"/>
<path d="M201 116.273C201 116.273 197.31 115.484 196 116.589C196.095 117.611 196.097 118 196.097 118C196.097 118 196.635 117.002 198.319 117.128C200.002 117.253 200.999 117.542 200.999 117.542V116.273H201Z" fill="#33302F"/>
<path d="M171.443 256.066L171.061 246C171.061 246 224.516 247.826 229.72 246C232.402 248.859 232.482 256.066 232.482 256.066C232.482 256.066 175.349 260.752 171.443 256.066Z" fill="#8360B8" stroke="#C4C4C4" stroke-width="0.7013" stroke-miterlimit="10"/>
<path d="M179.449 117.732C180.207 115.67 182.388 110.779 184.02 110.302C185.652 109.825 193.536 111.346 195.264 114.307C196.991 117.268 195.883 121.871 193.781 122.885C191.679 123.899 185.667 126.643 183.197 125.967C182.288 125.718 179.005 118.939 179.449 117.732Z" stroke="#262424" stroke-width="0.7013" stroke-miterlimit="10"/>
<path d="M218.055 117.226C217.297 115.164 215.116 110.272 213.484 109.796C211.852 109.319 203.968 110.84 202.241 113.8C200.513 116.761 201.621 121.365 203.723 122.378C205.825 123.391 211.837 126.137 214.307 125.46C215.216 125.211 218.498 118.432 218.055 117.226Z" stroke="#262424" stroke-miterlimit="10"/>
<path d="M194.946 85.5979C188.91 97.5992 180.269 121.252 169 131L170.81 131C170.81 131 190.135 113.369 194.946 101.741C198.878 92.24 200 85.5978 200 85.5978C200 85.5978 196.657 84.2527 194.946 85.5979Z" fill="#44372D" stroke="#332C26" stroke-width="0.7013" stroke-miterlimit="10"/>
<path d="M201.346 86.0662C209.76 94.1554 224.661 111.048 234.784 115.76L233.85 116.289C233.85 116.289 216.087 107.458 208.47 99.3176C202.246 92.6666 198.735 87.5416 198.735 87.5416C198.735 87.5416 199.868 85.4615 201.346 86.0662Z" fill="#44372D" stroke="#332C26" stroke-width="0.7013" stroke-miterlimit="10"/>
<path d="M271.412 157.65C273.5 162.671 279.826 170.742 289.176 170.274C298.527 169.807 302.584 181.657 318.112 177.68C321.775 176.742 329.004 169.878 332.326 167.938C339.436 163.781 344.376 163.93 348.5 157.65C354 151.15 351 133.828 344 124C337.061 114.258 332.408 114.258 321.437 114.259L321.145 114.259C314.99 116.227 307.944 110.626 301.695 108.664C294.541 106.418 285.924 112.757 282.268 118.492C278.414 124.535 274.765 128.027 269.097 132.403C262.084 137.818 268.092 149.673 271.412 157.65Z" fill="#FAF9FC"/>
<path d="M289.151 169.775L289.151 169.775C284.636 170.001 280.838 168.168 277.897 165.641C274.95 163.11 272.89 159.903 271.874 157.458L271.874 157.458C271.567 156.721 271.239 155.956 270.902 155.168C269.398 151.653 267.707 147.7 266.867 143.956C265.838 139.367 266.138 135.319 269.403 132.799C275.1 128.4 278.795 124.867 282.69 118.761L282.69 118.761C284.474 115.962 287.482 113 290.919 111.018C294.362 109.033 298.155 108.077 301.545 109.141C303.073 109.621 304.659 110.326 306.292 111.095C306.7 111.287 307.112 111.484 307.527 111.682C308.759 112.27 310.012 112.868 311.261 113.396C314.562 114.791 317.983 115.763 321.222 114.759L321.437 114.759C326.951 114.759 330.759 114.765 334.062 115.947C337.329 117.116 340.153 119.461 343.593 124.29C347.039 129.129 349.515 135.839 350.443 142.146C350.906 145.297 350.981 148.329 350.607 150.962C350.231 153.6 349.411 155.799 348.118 157.327L348.099 157.35L348.082 157.376C346.083 160.419 343.899 161.899 341.316 163.139C340.47 163.546 339.563 163.933 338.601 164.343C336.649 165.176 334.465 166.108 332.074 167.506C330.807 168.246 328.988 169.682 327.048 171.215C326.387 171.736 325.713 172.269 325.041 172.789C323.703 173.825 322.366 174.821 321.139 175.615C319.902 176.416 318.821 176.982 317.988 177.196C314.172 178.173 311.084 178.173 308.453 177.645C305.819 177.116 303.619 176.051 301.58 174.861C300.8 174.406 300.049 173.936 299.305 173.47C299.073 173.325 298.842 173.18 298.611 173.036C297.641 172.433 296.674 171.849 295.685 171.348C293.7 170.341 291.605 169.652 289.151 169.775Z" stroke="black" stroke-opacity="0.2"/>
<path d="M254.611 112.584C256.63 115.712 260.448 118.638 264.095 117.878C267.742 117.12 270.661 103.865 264.095 104.001C257.53 104.137 252.141 108.75 254.611 112.584Z" fill="#FAF9FC"/>
<path d="M263.994 117.389L263.993 117.389C262.335 117.734 260.599 117.249 259.005 116.264C257.413 115.28 256.005 113.822 255.031 112.313C254.491 111.475 254.386 110.613 254.611 109.774C254.839 108.92 255.418 108.059 256.297 107.28C258.057 105.718 260.927 104.567 264.106 104.501C264.839 104.486 265.411 104.657 265.858 104.947C266.308 105.238 266.662 105.67 266.927 106.222C267.463 107.339 267.605 108.901 267.428 110.551C267.251 112.192 266.765 113.857 266.111 115.145C265.784 115.789 265.423 116.324 265.05 116.713C264.675 117.106 264.315 117.322 263.994 117.389Z" stroke="black" stroke-opacity="0.2"/>
<path d="M239.623 102.293C242.832 106.287 248.506 99.1042 246.169 97.2332C243.83 95.3632 241.025 95.8312 239.623 97.2332C238.221 98.6362 239.623 102.293 239.623 102.293Z" fill="#FAF9FC"/>
<path d="M239.977 97.5868C239.977 97.5867 239.977 97.5867 239.977 97.5866C241.195 96.3683 243.713 95.9098 245.857 97.6237L239.977 97.5868ZM239.977 97.5868C239.734 97.8293 239.586 98.1974 239.528 98.6761C239.47 99.1523 239.507 99.69 239.591 100.21C239.674 100.727 239.799 101.205 239.905 101.556C239.957 101.731 240.004 101.873 240.038 101.97C240.048 101.997 240.056 102.021 240.063 102.042M239.977 97.5868L240.063 102.042M240.063 102.042C240.744 102.854 241.507 103.068 242.255 102.956C243.059 102.836 243.904 102.329 244.622 101.609C245.338 100.892 245.877 100.014 246.103 99.2356C246.334 98.438 246.205 97.903 245.857 97.6237L240.063 102.042Z" stroke="black" stroke-opacity="0.2"/>
<path d="M98.9525 155.472H97.0148V127.332C97.0148 126.023 95.949 124.957 94.6392 124.957H90.3082C88.9993 124.957 87.9326 126.023 87.9326 127.332V155.472H83.0126V140.082C83.0126 138.772 81.9469 137.707 80.6371 137.707H76.3051C74.9953 137.707 73.9296 138.772 73.9296 140.082V155.472H69.0087V147.501C69.0087 146.191 67.943 145.126 66.6331 145.126H62.3021C60.9932 145.126 59.9266 146.191 59.9266 147.501V155.472H57.8844C57.3962 155.472 57 155.866 57 156.355C57 156.842 57.3953 157.239 57.8844 157.239H98.9516C99.4398 157.239 99.8361 156.843 99.8361 156.355C99.8369 155.866 99.4407 155.472 98.9525 155.472ZM67.2416 155.472H61.6945V147.501C61.6945 147.165 61.9669 146.893 62.303 146.893H66.634C66.9692 146.893 67.2416 147.165 67.2416 147.501V155.472ZM81.2446 155.472H75.6967V140.082C75.6967 139.746 75.97 139.474 76.3051 139.474H80.6371C80.9714 139.474 81.2446 139.746 81.2446 140.082V155.472ZM95.2477 155.472H89.7006V127.332C89.7006 126.997 89.9739 126.725 90.3091 126.725H94.6401C94.9753 126.725 95.2486 126.997 95.2486 127.332V155.472H95.2477Z" fill="#9D83C7"/>
<path d="M97.013 112.929C97.0254 112.687 96.9405 112.443 96.7556 112.259C96.5725 112.074 96.3276 111.989 96.0852 112.002C96.0711 112.001 96.0578 112 96.0419 112H90.6973C90.2091 112 89.8138 112.394 89.8138 112.884C89.8138 113.373 90.2091 113.767 90.6973 113.767H93.9971L85.2626 122.503L81.969 119.209C81.8027 119.044 81.579 118.949 81.3437 118.949C81.1102 118.949 80.8847 119.044 80.7193 119.209L64.836 135.092C64.491 135.438 64.491 135.996 64.836 136.343C65.0084 136.514 65.2348 136.601 65.4604 136.601C65.6868 136.601 65.9132 136.515 66.0857 136.343L81.3437 121.083L84.6382 124.377C84.984 124.723 85.542 124.723 85.887 124.377L95.2468 115.018V118.004C95.2468 118.493 95.6421 118.889 96.1312 118.889C96.6185 118.889 97.0139 118.493 97.0139 118.004V112.973C97.0148 112.958 97.013 112.943 97.013 112.929Z" fill="#9D83C7"/>
<path d="M62.4834 139.682C62.9714 139.682 63.3669 139.287 63.3669 138.799C63.3669 138.311 62.9714 137.915 62.4834 137.915C61.9954 137.915 61.5999 138.311 61.5999 138.799C61.5999 139.287 61.9954 139.682 62.4834 139.682Z" fill="#9D83C7"/>
<path d="M54.5205 225.12C54.5894 228.627 57.4864 231.412 60.9948 231.341C62.6208 231.309 64.15 230.648 65.2935 229.538C64.6748 229.456 64.1045 229.129 63.7277 228.627L63.4902 228.309C62.2704 229.258 60.5741 229.501 59.0816 228.793C56.9747 227.79 56.076 225.27 57.0788 223.162C57.7093 221.842 58.9599 220.962 60.3659 220.785C60.4407 220.712 60.5154 220.637 60.6005 220.572L61.4552 219.93L60.7412 218.647C57.2328 218.716 54.4486 221.615 54.5205 225.12Z" fill="#FB5882" fill-opacity="0.7"/>
<path d="M65.2055 233.136C64.3141 232.382 62.9784 232.494 62.2234 233.385C62.043 233.599 61.9052 233.847 61.8231 234.114L61.0109 236.688L58.5097 236.442L58.215 233.762C58.0889 232.601 57.045 231.76 55.8809 231.887C55.6053 231.917 55.3341 232.004 55.0877 232.139L52.7537 233.426L51.0236 231.322L52.7449 229.284C53.4999 228.393 53.3885 227.057 52.4971 226.302C52.2831 226.12 52.0353 225.984 51.7684 225.9L49.1969 225.088L49.4446 222.585L52.1232 222.292C53.2859 222.165 54.1245 221.118 53.9955 219.955C53.9632 219.68 53.8782 219.413 53.7462 219.169L52.4546 216.828L54.5629 215.104L56.6022 216.828C57.1256 217.271 57.8015 217.406 58.4232 217.269C58.0874 216.784 57.9438 216.202 58.0273 215.617L58.1798 214.545L57.9702 215.214L55.2534 212.915C54.8634 212.585 54.2931 212.581 53.8972 212.905L50.427 215.752C50.0311 216.076 49.9255 216.634 50.1718 217.082L51.8857 220.19L48.3538 220.574C47.8568 220.633 47.4683 221.027 47.4229 221.523L47.005 225.736C46.9566 226.233 47.263 226.699 47.741 226.849L51.1292 227.918L48.8406 230.63C48.5107 231.02 48.5078 231.587 48.8318 231.983L51.6761 235.454C51.9986 235.85 52.5601 235.955 53.0058 235.709L56.1126 233.99L56.4996 237.524C56.5495 238.022 56.9468 238.417 57.4453 238.468L61.6574 238.884C62.1559 238.934 62.6222 238.628 62.7717 238.151L63.8405 234.762L66.5528 237.05C66.9458 237.38 67.5117 237.383 67.909 237.061L72.627 233.296L69.7255 232.829L67.2434 234.86L65.2055 233.136Z" fill="#FB5882" fill-opacity="0.7"/>
<path d="M92.9783 213.28L92.9753 213.277L89.1576 212.732C88.6224 212.655 88.2486 212.158 88.3248 211.622C88.3615 211.364 88.4992 211.132 88.706 210.975L91.7922 208.66C92.2276 208.335 92.3127 207.72 91.9901 207.285L88.4567 202.574C88.1298 202.14 87.5155 202.054 87.0815 202.379L83.9968 204.693C83.5643 205.021 82.95 204.938 82.6201 204.505C82.4632 204.295 82.3943 204.032 82.4324 203.771L82.9778 199.953C83.0555 199.416 82.6831 198.919 82.148 198.842H82.1451L76.3202 198.01C75.7836 197.933 75.2851 198.306 75.2088 198.842L74.662 202.659C74.5858 203.196 74.0887 203.568 73.5506 203.492C73.2941 203.455 73.061 203.318 72.907 203.109L70.5935 200.025C70.268 199.591 69.6508 199.503 69.2183 199.828L66.2684 202.042L64.1616 203.904C64.1484 203.938 64.1352 203.974 64.1235 204.011C64.0883 204.269 64.1543 204.53 64.3126 204.74L66.6232 207.823C66.8695 208.14 66.893 208.572 66.6848 208.912C66.4825 209.255 66.0969 209.442 65.7025 209.384L61.8847 208.839C61.3496 208.761 60.8511 209.134 60.7748 209.672L59.9421 215.5C59.8629 216.036 60.2368 216.535 60.7734 216.611C60.7734 216.611 60.7734 216.611 60.7748 216.611L64.5926 217.156C65.1278 217.234 65.5002 217.73 65.4254 218.268C65.3858 218.524 65.2509 218.757 65.0413 218.914L61.9565 221.226C61.5226 221.552 61.4346 222.168 61.7616 222.602L65.2934 227.312C65.6175 227.746 66.2332 227.834 66.6686 227.509L69.7534 225.195C70.1874 224.87 70.8046 224.959 71.1286 225.394C71.2826 225.601 71.3486 225.862 71.3134 226.12L70.7665 229.938C70.6902 230.475 71.0641 230.972 71.5992 231.048L77.43 231.881C77.4755 231.886 77.5224 231.888 77.5693 231.888C78.0575 231.889 78.4724 231.53 78.5414 231.046L79.0853 227.229C79.163 226.692 79.66 226.318 80.1966 226.396C80.4546 226.432 80.6863 226.57 80.8432 226.78L83.1552 229.863C83.4807 230.297 84.0965 230.384 84.5305 230.06L89.2397 226.526C89.6736 226.201 89.7616 225.587 89.4361 225.153L87.124 222.068C86.8807 221.753 86.8587 221.319 87.0654 220.979C87.2633 220.633 87.6533 220.445 88.0448 220.508L91.8626 221.052C92.3992 221.13 92.8991 220.757 92.9753 220.221C92.9753 220.221 92.9753 220.221 92.9753 220.219L93.8066 214.39C93.8858 213.853 93.5134 213.355 92.9783 213.28ZM91.1676 218.966L88.3219 218.561C86.712 218.329 85.221 219.449 84.9923 221.059C84.8809 221.832 85.0832 222.618 85.5509 223.242L87.2751 225.541L84.1346 227.896L82.409 225.598C81.4325 224.296 79.5881 224.032 78.2862 225.009C77.6617 225.477 77.2497 226.173 77.1412 226.947L76.7439 229.799L72.8586 229.243L73.2648 226.396C73.4935 224.786 72.3763 223.295 70.768 223.065C69.9953 222.955 69.208 223.156 68.5834 223.625L66.286 225.349L63.9314 222.209L66.2274 220.483C67.5293 219.507 67.7917 217.662 66.8153 216.362C66.3476 215.737 65.6512 215.324 64.8785 215.212L62.0328 214.806L62.5884 210.921L65.4342 211.327C67.044 211.557 68.5351 210.44 68.7652 208.829C68.8752 208.056 68.6743 207.27 68.2052 206.646L66.4722 204.344L69.617 201.989L71.3412 204.288C72.3162 205.589 74.162 205.853 75.464 204.876C76.0885 204.408 76.502 203.712 76.6119 202.938L77.0166 200.092L80.9018 200.646L80.4986 203.492C80.267 205.102 81.3856 206.593 82.9954 206.822C83.7681 206.933 84.5524 206.731 85.1785 206.263L87.4774 204.539L89.8305 207.679L87.5316 209.405C86.2326 210.38 85.9673 212.226 86.9437 213.528C87.4099 214.152 88.1092 214.566 88.8819 214.676L91.7277 215.082L91.1676 218.966Z" fill="#FB5882" fill-opacity="0.7"/>
<path d="M76.8728 207.091C72.5375 207.091 69.0232 210.606 69.0232 214.942C69.0232 219.279 72.536 222.793 76.8728 222.793C81.2096 222.793 84.7239 219.279 84.7239 214.942C84.7224 210.609 81.2082 207.097 76.8728 207.091ZM76.8728 220.83C73.6224 220.83 70.9848 218.194 70.9848 214.942C70.9848 211.691 73.6224 209.054 76.8728 209.054C80.1262 209.054 82.7622 211.691 82.7622 214.942C82.7608 218.193 80.1262 220.827 76.8728 220.83Z" fill="#FB5882" fill-opacity="0.7"/>
<path d="M111.948 66.0038L114.697 67.592C115.075 67.8132 115.56 67.6865 115.782 67.3088C116.004 66.9311 115.877 66.4448 115.499 66.2237C115.495 66.2224 115.493 66.2198 115.49 66.2185L112.74 64.6315C112.36 64.4155 111.875 64.5488 111.659 64.929C111.444 65.3041 111.573 65.7839 111.948 66.0038Z" fill="#EE778B"/>
<path d="M114.697 82.0884L111.948 83.6754C111.566 83.8914 111.434 84.3764 111.65 84.7579C111.867 85.1382 112.351 85.2727 112.733 85.0554C112.735 85.0541 112.739 85.0515 112.742 85.0502L115.491 83.462C115.872 83.246 116.005 82.761 115.789 82.3807C115.573 82.0005 115.088 81.866 114.708 82.0833C114.704 82.0846 114.7 82.0859 114.697 82.0884Z" fill="#EE778B"/>
<path d="M145.729 83.6752L142.979 82.0882C142.602 81.8658 142.115 81.9925 141.893 82.3702C141.672 82.7478 141.797 83.2341 142.176 83.4566C142.18 83.4579 142.183 83.4592 142.185 83.4618L144.935 85.05C145.313 85.2712 145.799 85.1444 146.02 84.7668C146.241 84.3891 146.115 83.9028 145.737 83.6804C145.736 83.6778 145.732 83.6765 145.729 83.6752Z" fill="#EE778B"/>
<path d="M142.584 67.6971C142.723 67.6971 142.859 67.6609 142.981 67.591L145.73 66.0028C146.112 65.7868 146.244 65.3017 146.028 64.9202C145.812 64.54 145.327 64.4067 144.947 64.6227C144.944 64.624 144.94 64.6266 144.938 64.6279L142.188 66.2149C141.809 66.4335 141.678 66.9185 141.897 67.2987C142.039 67.5457 142.3 67.6971 142.584 67.6971Z" fill="#EE778B"/>
<path d="M136.377 61.7824C136.756 62.0009 137.241 61.8703 137.461 61.4913L139.048 58.7429C139.265 58.3627 139.132 57.8764 138.75 57.6604C138.372 57.4457 137.893 57.575 137.674 57.9488L136.086 60.6985C135.867 61.0775 135.998 61.5625 136.377 61.7824Z" fill="#EE778B"/>
<path d="M128.838 59.7622C129.276 59.7622 129.632 59.4078 129.632 58.968V55.7941C129.632 55.3557 129.277 55 128.838 55C128.401 55 128.045 55.3544 128.045 55.7941V58.968C128.045 59.4065 128.401 59.7622 128.838 59.7622Z" fill="#EE778B"/>
<path d="M120.215 61.4914C120.431 61.8729 120.916 62.0048 121.297 61.7888C121.678 61.5716 121.812 61.0879 121.595 60.7063C121.594 60.7037 121.591 60.7011 121.59 60.6972L120.003 57.9475C119.78 57.5699 119.294 57.4418 118.916 57.6643C118.541 57.8842 118.413 58.364 118.628 58.7417L120.215 61.4914Z" fill="#EE778B"/>
<path d="M113.761 74.839C113.761 74.4018 113.407 74.0461 112.968 74.0461H109.793C109.354 74.0461 109 74.4005 109 74.839C109 75.2774 109.354 75.6331 109.793 75.6331H112.968C113.405 75.6331 113.761 75.2774 113.761 74.839Z" fill="#EE778B"/>
<path d="M147.884 74.0461H144.71C144.273 74.0461 143.917 74.4005 143.917 74.839C143.917 75.2774 144.273 75.6331 144.71 75.6331H147.884C148.322 75.6331 148.678 75.2787 148.678 74.839C148.678 74.4005 148.322 74.0461 147.884 74.0461Z" fill="#EE778B"/>
<path d="M134.874 71.6481L126.458 80.0654L122.53 76.1374C122.214 75.8322 121.713 75.8412 121.407 76.1568C121.111 76.4646 121.111 76.9522 121.407 77.26L125.897 81.7493C126.207 82.0584 126.709 82.0584 127.019 81.7493L135.998 72.772C136.307 72.4616 136.307 71.9585 135.998 71.6481C135.687 71.3377 135.184 71.3377 134.874 71.6481Z" fill="#EE778B"/>
<path d="M129.519 61.3659C122.079 60.9896 115.741 66.7179 115.365 74.1587C115.353 74.3863 115.347 74.6126 115.347 74.839C115.354 79.6658 117.933 84.1228 122.112 86.5336C122.839 86.9565 123.285 87.7364 123.283 88.5784V97.8532C123.283 98.2916 123.637 98.6473 124.076 98.6473H124.87C124.87 100.838 126.645 102.614 128.836 102.614C131.029 102.614 132.804 100.837 132.804 98.6473H133.597C134.036 98.6473 134.39 98.2929 134.39 97.8532V88.581C134.375 87.7571 134.803 86.9863 135.51 86.5621C141.985 82.8747 144.244 74.6385 140.558 68.1626C138.282 64.1609 134.119 61.5974 129.519 61.3659ZM132.807 89.1229V90.7112H124.871V89.1022L132.807 89.1229ZM124.871 92.2982H132.807V93.9252C128.283 93.9045 126.029 93.8968 124.871 93.9252V92.2982ZM128.838 101.027C127.524 101.027 126.458 99.9614 126.458 98.6473H131.22C131.22 99.9614 130.153 101.027 128.838 101.027ZM124.871 97.059V95.4993C126.393 95.4902 129.982 95.4992 132.807 95.5122V97.059H124.871ZM134.729 85.182C133.843 85.6955 133.2 86.5439 132.944 87.536L124.725 87.5166C124.452 86.5207 123.799 85.6735 122.906 85.1562C119.218 83.0286 116.943 79.0967 116.936 74.839C116.936 68.2648 122.265 62.9361 128.839 62.9361C129.041 62.9361 129.241 62.9412 129.442 62.9516C136.008 63.2853 141.06 68.8791 140.728 75.4442C140.519 79.5003 138.259 83.1721 134.729 85.182Z" fill="#EE778B"/>
<path d="M309.023 152.391C309.055 150.531 309.266 149.062 309.656 147.984C310.047 146.906 310.844 145.711 312.047 144.398L315.117 141.234C316.43 139.75 317.086 138.156 317.086 136.453C317.086 134.812 316.656 133.531 315.797 132.609C314.938 131.672 313.688 131.203 312.047 131.203C310.453 131.203 309.172 131.625 308.203 132.469C307.234 133.312 306.75 134.445 306.75 135.867H302.414C302.445 133.336 303.344 131.297 305.109 129.75C306.891 128.188 309.203 127.406 312.047 127.406C315 127.406 317.297 128.203 318.938 129.797C320.594 131.375 321.422 133.547 321.422 136.312C321.422 139.047 320.156 141.742 317.625 144.398L315.07 146.93C313.93 148.195 313.359 150.016 313.359 152.391H309.023ZM308.836 159.82C308.836 159.117 309.047 158.531 309.469 158.062C309.906 157.578 310.547 157.336 311.391 157.336C312.234 157.336 312.875 157.578 313.312 158.062C313.75 158.531 313.969 159.117 313.969 159.82C313.969 160.523 313.75 161.109 313.312 161.578C312.875 162.031 312.234 162.258 311.391 162.258C310.547 162.258 309.906 162.031 309.469 161.578C309.047 161.109 308.836 160.523 308.836 159.82Z" fill="#FB808C"/>
</g>
<defs>
<clipPath id="clip0">
<rect width="400" height="326" fill="white"/>
</clipPath>
</defs>
</svg>
