<svg width="400" height="326" viewBox="0 0 400 326" fill="none" xmlns="http://www.w3.org/2000/svg">
<path d="M39.4262 326H80.1242H324.312C330.824 319.035 386.873 274.139 397.568 226.742C408.964 176.242 378.033 150.122 351.987 129.225C325.94 108.329 350.359 68.2773 311.289 31.7085C272.219 -4.8602 197.531 2.47965 163.297 23.4443C132.015 42.6011 25.3834 -7.49275 25.3834 95.2479C25.3834 166.389 -13.8556 178.058 5.23993 247.638C14.6242 281.833 25.3834 309.087 39.4262 326Z" fill="#EDEBF4"/>
<path d="M339.429 276.753C331 264.5 272 139 232 145.5C197 145.5 112.5 291 112.5 291C112.5 291 339.429 323.5 350.5 300.5L339.429 276.753Z" fill="#CFD6ED"/>
<path d="M170.672 165.327C170.672 165.327 159.072 155.208 145.688 158.754C135.258 161.517 67.1035 231.117 15 281C15 281 34.5 325.5 41.5 325.5H161.5H327L346.5 304.5C274.817 244.24 170.672 165.327 170.672 165.327Z" fill="#DFDFDF"/>
<path d="M288.265 82.008C288.265 82.008 286.611 85.3058 286.24 86.3317C285.87 87.3576 286.295 91.1452 285.878 92.6915C285.46 94.2378 284.751 96.4948 284.223 98.6566C283.696 100.818 286.682 106.089 287.683 106.729C288.684 107.368 293.554 107.581 294.767 107.699C295.982 107.817 300.876 101.331 301.326 100.621C302.271 99.1141 302.752 91.6263 302.752 91.6263L301.113 92.0759C301.113 92.0759 302.059 87.9103 301.744 85.7476C301.429 83.5849 301.429 83.5857 301.429 83.5857C301.429 83.5857 292.389 83.4914 290.624 82.5127C288.84 81.5348 288.265 82.008 288.265 82.008Z" fill="#F4CEB2" stroke="#E9CBB5" stroke-width="0.25" stroke-miterlimit="10"/>
<path d="M305.121 90.003C306.067 89.8921 305.105 92.8747 304.649 94.7999C304.192 96.7251 304.585 96.9539 303.332 96.733C302.078 96.5121 302 95.7071 302 95.7071L302.261 91.999C302.261 91.999 302.694 90.2868 305.121 90.003Z" fill="#E9CBB5"/>
<path d="M260.268 128.198C262.054 123 274.163 116.674 272.508 121.221C270.582 126.513 272.191 136.605 272.508 138.105C272.825 139.605 271.509 147.431 271.509 147.431L268.237 166.798L257.696 169.379C257.696 169.379 255.761 141.32 260.268 128.198Z" fill="#F4CEB2" stroke="#EDC7AB" stroke-width="0.25" stroke-miterlimit="10"/>
<path d="M301.451 83.3178L303.965 79.3015L303.082 77.4871C303.082 77.4871 298.739 75.5855 297.715 75.2144C296.69 74.8434 291.89 77.5657 288.045 76.1216C284.199 74.6775 285.224 75.0407 285.224 75.0407C285.224 75.0407 283.545 78.6388 284.609 79.9249C285.673 81.211 287.225 82.1103 291.071 83.3178C294.917 84.5262 299.512 84.1935 301.451 83.3178Z" fill="#312A25" stroke="black" stroke-width="0.25" stroke-miterlimit="10"/>
<path d="M260.268 128.199C262.054 123 274.163 116.674 272.508 121.221C270.582 126.513 272.191 136.605 272.508 138.105C272.825 139.605 271.509 147.431 271.509 147.431L268 150L258 146.5C258 146.5 255.761 141.32 260.268 128.199Z" fill="white"/>
<path d="M289.03 93.0546C289.03 93.0546 288.722 93.5122 287.958 93.1647C287.193 92.818 286.665 92.77 286.602 92.3841C286.571 92.2025 286.5 91.9816 286.5 91.9816L287.027 91.208L289.052 91.4132C289.053 91.4132 289.74 91.3032 289.03 93.0546Z" fill="white" stroke="#C1A38E" stroke-width="0.25" stroke-miterlimit="10"/>
<path d="M304.02 84.107C304.02 84.107 304.863 88.4741 304.5 89.5C304.137 90.5259 304 90.5 304 90.5L302.168 92.0916L300.528 92.5413C300.528 92.5413 301.316 87.2947 301.159 86.2138C301.001 85.1329 300.528 83.2234 300.528 83.2234L302.278 83.3963L304.02 84.107Z" fill="#312A25" stroke="black" stroke-width="0.25" stroke-miterlimit="10"/>
<path d="M293.964 93.0389C293.964 93.0389 293.719 93.7478 294.09 94.1826C294.46 94.6175 295.359 94.6637 295.579 94.5773C295.8 94.4821 296.667 94.0482 297.147 94.49C297.629 94.9318 297.18 94.2141 297.18 94.2141L296.233 92.928C296.225 92.9201 294.223 91.8078 293.964 93.0389Z" fill="#FEFEFE" stroke="#C1A38E" stroke-width="0.25" stroke-miterlimit="10"/>
<path d="M295.401 93.3986C295.458 92.8171 295.151 92.3107 294.713 92.2671C294.276 92.2243 293.874 92.66 293.817 93.2406C293.76 93.8221 294.067 94.3285 294.505 94.3721C294.942 94.4149 295.344 93.9792 295.401 93.3986Z" fill="#252731"/>
<path d="M285.033 95.8085L284.301 95.3187C283.709 94.5303 283.6 93.4886 284.01 92.5885L284.592 91.3023L284.576 89.543L285.601 88.5564C285.601 88.5486 286.507 91.6891 285.033 95.8085Z" fill="#E9CBB5"/>
<path d="M287.654 91.0335C288.092 91.0772 288.399 91.5836 288.341 92.1642C288.306 92.5261 288.138 92.8314 287.91 93L286.758 92.6086C286.709 92.4509 286.739 92.1926 286.758 92.0071C286.815 91.4256 287.216 90.9899 287.654 91.0335Z" fill="#252731"/>
<path d="M289.196 91.4212L287.029 91.2081L286.296 92.2733C285.871 92.6915 286.824 91.1846 286.848 90.9244C286.871 90.6633 289.221 91.161 289.221 91.161L289.196 91.4212Z" fill="#948377"/>
<path d="M294.169 92.1858L296.486 92.4155L297.44 94.1119L297.4 94.5136L296.225 92.928L294.169 92.5L293.811 92.9279C293.811 92.9279 293.908 92.1623 294.169 92.1858Z" fill="#948377"/>
<path d="M286.437 81.4553C286.437 81.4553 284.633 86.4426 284.553 87.2388C284.474 88.0281 284.781 90.5846 284.781 90.5846L285.822 91.0971L286.24 86.3474L288.264 82.0237L286.437 81.4553Z" fill="#312A25" stroke="black" stroke-width="0.25" stroke-miterlimit="10"/>
<path d="M290.567 91.5635C290.567 91.5635 290.694 93.5594 290.315 94.1278C289.936 94.6953 288.613 96.0845 288.888 96.5499C289.164 97.0152 289.416 97.6465 289.416 97.6465C289.416 97.6465 291.465 97.9233 291.607 97.8674C291.748 97.8124 292.591 97.3627 292.624 97.1025C292.647 96.8423 292.394 96.2818 292.394 96.2818" stroke="#C1A38E" stroke-width="0.25" stroke-miterlimit="10"/>
<path d="M288.597 100.156L289.196 100.211L291.977 100.488C291.977 100.488 292.813 100.574 293.396 100.093C293.971 99.6198 294.295 99.1142 294.554 99.1457C294.815 99.1771 293.451 102.231 292.632 102.421C291.994 102.562 289.944 102.689 288.919 102.318C287.793 101.923 288.068 100.101 288.597 100.156Z" fill="#FAFAFA"/>
<path d="M288.597 100.156L289.196 100.211L291.977 100.488C291.977 100.488 292.813 100.574 293.396 100.093C293.971 99.6198 294.295 99.1142 294.554 99.1457C294.815 99.1771 293.451 102.231 292.632 102.421C291.994 102.562 289.944 102.689 288.919 102.318C287.793 101.923 288.069 100.101 288.597 100.156Z" stroke="#F1A697" stroke-width="0.25" stroke-miterlimit="10"/>
<path d="M290.299 88.3362L290.094 88.9989L286.524 88.9509L286.595 88.2253L290.299 88.3362Z" fill="#847878" stroke="black" stroke-opacity="0.1" stroke-width="0.25" stroke-miterlimit="10"/>
<path d="M293.641 88.9277L293.365 89.6306L297.014 90.3405L298.047 90.7037L297.622 89.7406L293.641 88.9277Z" fill="#847878" stroke="black" stroke-opacity="0.1" stroke-width="0.25" stroke-miterlimit="10"/>
<path d="M288.25 100.921C288.25 100.921 288.463 100.715 289.069 100.74C290.157 100.771 291.994 100.811 292.261 100.787C293.869 100.676 294.554 99.1455 294.554 99.1455C294.554 99.1455 293.396 100.093 292.844 100.306C292.498 100.439 291.371 100.424 290.709 100.361C288.865 100.179 288.423 100.242 288.314 100.392C288.132 100.605 288.225 100.7 288.25 100.921Z" fill="#F1A697"/>
<path d="M288.438 101.741C288.438 101.741 288.942 102.057 289.731 102.136C290.267 102.191 291.867 102.191 292.497 102.152C292.812 102.136 293.097 101.97 293.286 101.718L294.553 99.1455C294.553 99.1455 293.679 101.986 293.001 102.452C292.324 102.917 289.683 102.657 289.155 102.601C288.62 102.554 288.438 101.741 288.438 101.741Z" fill="#F1A697"/>
<path d="M303.469 113.884C303.469 113.884 301.466 109.955 300.907 107.5C300.354 105.047 301.065 100.991 301.065 100.991C301.065 100.991 296.163 107.871 293.751 107.611C291.339 107.351 287.674 106.72 287.674 106.72C287.674 106.72 288.415 107.327 288.281 108.645C288.147 109.962 287.493 113.891 286.39 114.318C285.286 114.744 292.134 118.082 294.563 117.79C296.99 117.498 304.123 115.281 303.469 113.884Z" fill="#F2C6A6" stroke="#FADDC8" stroke-width="0.25" stroke-miterlimit="10"/>
<path d="M329.018 143.515C329.138 150.196 325.463 169.768 323.868 177.272C323.007 181.334 313.57 185.545 313.926 172.385C314.286 159.058 314.84 160.878 314.617 153.357C313.958 128.911 319.809 128.218 323.554 128.199C326.739 128.182 328.899 136.833 329.018 143.515Z" fill="#F4CEB2" stroke="#EDC6AB" stroke-width="0.2433" stroke-miterlimit="10"/>
<path d="M323.745 127.649C323.745 127.649 321.118 125.305 319.165 123.514C317.21 121.723 303.461 113.885 303.461 113.885C303.461 113.885 298.046 118.978 292.199 117.459C288.101 115.819 286.39 114.32 286.39 114.32C286.39 114.32 270.701 120.484 267.911 121.809C265.121 123.127 265.97 128.606 266.932 132.039C267.894 135.471 275.236 179.89 275.236 179.89C275.236 179.89 279.348 184.543 291.497 184.543C302.29 184.543 311.927 182.747 311.927 182.747L315.411 147.931C315.411 147.931 314.29 133.61 319.632 130.675C324.976 127.741 323.745 127.649 323.745 127.649Z" fill="white"/>
<path d="M275.236 179.89C275.236 179.89 279.348 184.543 291.497 184.543C302.29 184.543 311.927 182.747 311.927 182.747L315.411 147.931C315.411 147.931 314.29 133.61 319.632 130.675C324.976 127.741 323.745 127.649 323.745 127.649C323.745 127.649 321.118 125.305 319.165 123.514C317.21 121.723 303.461 113.885 303.461 113.885C303.461 113.885 298.046 118.978 292.199 117.459C288.101 115.819 286.39 114.32 286.39 114.32C286.39 114.32 273 120 268.5 120.5C265 122 261.7 125.079 260.5 127.5C259 130.526 257.5 141 257.5 146M271.5 134L270 144.5" stroke="#898989" stroke-opacity="0.2" stroke-miterlimit="10"/>
<path d="M256.108 147.517L269.834 151.392L270.1 149.651L255.908 144.935L256.108 147.517Z" fill="#8E9DD6" stroke="#96A4D9" stroke-miterlimit="10"/>
<path d="M312.077 180.913C312.077 180.913 297.518 177.648 286.377 174.828C282.216 173.059 279.723 166.193 291.039 168.854C295.728 169.739 301.798 169.181 312.294 170.161C328.192 173.407 326.342 183.329 312.077 180.913Z" fill="#F4CEB2" stroke="#E5B99A" stroke-width="0.2466" stroke-miterlimit="10"/>
<path d="M267.506 165.667C267.506 165.667 268.474 162.761 268.611 161C269.197 161.37 268.374 162.477 275.831 161.805C275.501 163.992 275.278 165.586 276 168.289C274.467 169.766 272.031 173.113 269.11 171.629C266.189 170.144 266.988 166.843 267.506 165.667Z" fill="#D9AB8F"/>
<path d="M268.541 237.829L268.587 188.291L291.681 192.635C291.681 192.635 286.873 236.522 285.855 241.41C284.838 246.298 280.125 288.852 280.125 288.852L267.865 287.968C267.865 287.968 268.882 244.568 268.541 237.829Z" fill="#8A8DAA"/>
<path d="M306.111 239.284L309.615 189.871L286.27 192.544C286.27 192.544 287.919 236.665 288.584 241.612C289.249 246.56 290.899 289.342 290.899 289.342H303.191C303.191 289.342 305.288 245.982 306.111 239.284Z" fill="#8A8DAA"/>
<path d="M320.575 126.835C322.495 126.378 327.372 127.912 328.619 139.201C329.866 150.492 327.86 152.573 327.86 152.573L314.616 154.997C314.616 154.997 314.877 151.823 314.47 144.588C314.063 137.354 315.921 131.053 316.841 129.687C317.76 128.321 318.656 127.293 320.575 126.835Z" fill="#F8F7FB" stroke="#898989" stroke-opacity="0.2" stroke-miterlimit="10"/>
<path d="M289.807 292.253H305.529V287.305H288.584C288.584 287.305 287.747 292.253 289.807 292.253Z" fill="#5A575C"/>
<path d="M281.007 291.832L265.325 290.703L265.68 285.769L282.581 286.985C282.581 286.984 283.06 291.981 281.007 291.832Z" fill="#D6D5D7" stroke="black" stroke-miterlimit="10"/>
<path d="M281.084 301.566C285.475 301.779 290.9 301.566 290.9 301.566L297.942 299.529C297.942 299.529 305.529 300.111 305.529 299.529C305.529 298.946 305.529 296.327 305.529 296.327L303.51 292.253H290.9C290.9 292.253 290.515 294.873 287.847 294.873C285.179 294.873 279.91 293.546 279.347 296.974C278.784 300.402 279.302 301.479 281.084 301.566Z" fill="#2F3446" stroke="black" stroke-miterlimit="10"/>
<path d="M279.347 303.894C279.347 303.894 291.284 303.894 293.32 303.894C295.355 303.894 296.973 301.661 296.973 301.661L297.942 303.894L305.529 302.778V299.529H297.942C297.942 299.529 291.071 301.606 288.416 301.633C285.761 301.66 279.347 300.546 279.347 300.546C279.347 300.546 277.003 303.894 279.347 303.894Z" fill="#4D4C4E" stroke="black" stroke-miterlimit="10"/>
<path d="M311.412 188.822L312 182C312 182 297.92 184.505 287.683 184.166C277.445 183.826 279.099 191.638 279.099 191.638C279.099 191.638 294.089 193.488 311.412 188.822Z" fill="#8E9DD6" stroke="#7E8FD0" stroke-miterlimit="10"/>
<path d="M287.847 294.872L289.807 296.957V294.872L291.917 295.914L289.882 294.135H292.329" fill="#D6D5D7"/>
<path d="M287.847 294.872L289.807 296.957V294.872L291.917 295.914L289.882 294.135H292.329" stroke="black" stroke-miterlimit="10"/>
<path d="M282.873 282.623H225V314.371H282.873V282.623Z" fill="#E9E6E6"/>
<path d="M328.769 154.997L314.616 156.759V154.997L329.355 152.474L328.769 154.997Z" fill="#8E9DD6" stroke="#96A4D9" stroke-miterlimit="10"/>
<path d="M255.951 305.529H253.749V296.675C253.749 295.618 253.774 294.78 253.824 294.161C253.681 294.311 253.504 294.476 253.296 294.658C253.087 294.839 252.385 295.414 251.192 296.384L250.086 294.986L254.115 291.816H255.951V305.529Z" fill="#8562B9"/>
<path d="M282.873 282.623L297.005 279.131V310.879L282.873 314.371V282.623Z" fill="#B1AEAE"/>
<path d="M225 282.623L245.642 278.818L297.005 279.131L282.873 282.623H225Z" fill="#F1F1F1"/>
<path d="M268.573 163.074C271.758 164.304 275.969 163.951 278.184 162.681C280.391 161.411 283.054 154.011 283.054 154.011L279.547 146.393L270.431 146.834C270.431 146.834 266.522 153.535 266.491 156.091C266.459 158.648 265.737 161.977 268.573 163.074Z" fill="#F4CBB1" stroke="#CCA790" stroke-width="0.25" stroke-miterlimit="10"/>
<path d="M285.959 155.514C285.959 155.514 290.05 156.339 292.121 156.757C294.193 157.175 286.439 164.063 285.464 164.658C284.49 165.253 283.166 165.796 283.053 164.707C282.939 163.618 282.224 156.758 282.224 156.758L285.959 155.514Z" fill="#382F27" stroke="black" stroke-width="0.25" stroke-miterlimit="10"/>
<path d="M270.994 145.316C270.994 145.316 265.387 142.659 264.091 141.896C262.795 141.133 259.239 155.502 261.492 154.71C263.744 153.918 267.568 152.572 267.568 152.572L270.994 145.316Z" fill="#382F27" stroke="black" stroke-width="0.25" stroke-miterlimit="10"/>
<path d="M283.321 145.052C281.194 141.935 279.523 140.633 275.236 142.866C270.948 145.099 270.948 145.099 270.948 145.099L270.255 147.427L279.547 146.393L283.321 145.052Z" fill="#382F27" stroke="black" stroke-width="0.25" stroke-miterlimit="10"/>
<path d="M287.364 154.502C287.364 154.502 290.086 146.154 283.321 145.053C278.041 144.303 279.547 146.394 279.547 146.394C279.547 146.394 281.34 155.722 283.054 156.784C284.767 157.845 287.364 154.502 287.364 154.502Z" fill="#382F27" stroke="black" stroke-width="0.25" stroke-miterlimit="10"/>
<path d="M261.5 166.5C266.422 165.854 282.357 167.787 285 172.5C287.643 177.213 269.383 203.543 269.383 203.543L252.738 200.774C252.738 200.774 255.307 173.947 255.205 173.592C255.102 173.236 256.578 167.146 261.5 166.5Z" fill="#8360B8" stroke="black" stroke-opacity="0.3" stroke-width="0.25" stroke-miterlimit="10"/>
<path d="M282.768 172.325C280.943 172.855 276.709 178.685 276.644 181.57C276.581 184.458 273.318 198.702 273.318 198.702C273.318 198.702 274.563 204.992 276.644 202.606C278.719 200.213 292.539 169.509 282.768 172.325Z" fill="#A577EB" stroke="black" stroke-opacity="0.3" stroke-width="0.2269" stroke-miterlimit="10"/>
<path d="M260.5 166.888C257 173.5 257 175.5 256.5 179C256 185 247.67 192.564 247.67 192.564C247.67 192.564 242.043 195.626 242.543 192.5C242.96 189.947 252.853 169.333 258.701 166.888C260.022 166.336 260.5 166.5 260.5 166.888Z" fill="#A577EB" stroke="black" stroke-opacity="0.3" stroke-width="0.2269" stroke-miterlimit="10"/>
<path d="M259 171C259.257 169.716 261.298 170.097 261.492 171C261.492 172.5 262 174 261 178C260.492 179.209 261.23 177.145 262.5 175.5C263.777 173.866 264.181 174.095 264 175C263.635 176.818 262.913 175.443 262 180C261.635 181.819 261 182 260 182C258.5 181.5 258.5 181.5 258.5 180C258.5 177.327 258.635 177.819 259 176C259.395 174.06 259 174 259 171Z" fill="#F4CBB1" stroke="#E5B695" stroke-width="0.25" stroke-miterlimit="10"/>
<path d="M271.553 182.159C270.592 183.053 273.419 180.529 274.503 178.759C275.595 176.99 275.103 176.205 274.311 176.689C272.736 177.666 273.712 179.243 269.769 181.697C268.193 182.673 269.469 184.047 270.759 183.146L271.553 182.159Z" fill="#E2B192" stroke="#EFC5A9" stroke-width="0.25" stroke-miterlimit="10"/>
<path d="M266.661 182.529C266.267 185.095 267.875 185.112 267.875 185.112C270.704 184.329 270.547 181.68 271.927 180.441C273.393 179.124 273.496 178.537 275.418 175.272C276.173 173.745 274.356 172.925 273.047 173.936C271.127 175.418 272.392 174.317 268.724 178.273C268.724 178.273 267.054 179.962 266.661 182.529Z" fill="#F4CBB1" stroke="#E6B695" stroke-width="0.25" stroke-miterlimit="10"/>
<path d="M248.582 222.198C248.313 222.699 249.577 235.791 249.577 235.791L250.398 275.942C250.398 275.942 250.398 279.074 253.527 278.031C256.655 276.987 256.655 275.942 256.655 275.942C256.655 275.942 259.784 238.358 259.784 236.27C259.784 234.183 260.595 223.146 260.595 223.146L248.582 222.198Z" fill="#F4CBB1" stroke="#DE9868" stroke-width="0.3308" stroke-miterlimit="10"/>
<path d="M241.012 279.073C241.012 279.073 250.312 277.601 250.355 274.678C250.398 271.766 251.463 276.275 252.493 276.109C253.527 275.943 256.654 275.942 256.654 275.942C256.654 275.942 258.279 278.844 258.509 279.483C258.739 280.119 258.509 281.621 258.509 281.621C258.509 281.621 246.225 282.197 245.183 282.197C244.141 282.197 240.542 282.197 240.542 282.197L241.012 279.073Z" fill="#AFBDF4" stroke="#8D98C4" stroke-width="0.3308" stroke-miterlimit="10"/>
<path d="M258.673 222.386L264.461 275.904C264.461 275.904 266.921 277.177 268.854 276.304C270.786 275.431 269.936 273.259 269.936 273.259C269.936 273.259 270.312 235.806 269.93 233.548C269.548 231.292 270.313 222.975 270.313 222.975L258.673 222.386Z" fill="#F4CBB1" stroke="#F2B187" stroke-width="0.3308" stroke-miterlimit="10"/>
<path d="M254.782 279.465C254.782 279.465 263.996 277.514 263.894 274.602C263.792 271.689 265.082 276.148 266.098 275.924C267.122 275.702 270.246 275.548 270.246 275.548C270.246 275.548 272.021 278.363 272.278 278.992C272.537 279.615 272.388 281.13 272.388 281.13C272.388 281.13 260.143 282.334 259.103 282.384C258.062 282.437 254.475 282.624 254.475 282.624L254.782 279.465Z" fill="#AFBDF4" stroke="#8D98C5" stroke-width="0.3308" stroke-miterlimit="10"/>
<path d="M231.834 222.386L252.73 200.774L269.374 203.544L283.321 227.971C283.321 227.971 274.691 229.93 255.951 229.585C237.209 229.235 231.834 222.386 231.834 222.386Z" fill="white" stroke="#F9F9F9" stroke-width="0.25" stroke-miterlimit="10"/>
<path d="M266.243 184.308C266 185 269.043 199.866 272.164 202.199C275.283 204.533 277.236 201.815 277.236 201.815L277.365 197.741C277.365 197.741 271.5 184 270 183.5C268.5 183 266.486 183.615 266.243 184.308Z" fill="#A577EB" stroke="black" stroke-opacity="0.3" stroke-width="0.2217" stroke-miterlimit="10"/>
<path d="M261.033 182.021C261.033 182.021 250.385 195.289 246.532 195.853C242.678 196.417 242.256 193.097 242.256 193.097L244.081 189.452L257.966 179.376L261.033 182.021Z" fill="#A577EB" stroke="#303030" stroke-opacity="0.3" stroke-width="0.2217" stroke-miterlimit="10"/>
<path d="M273.485 174.635L273.058 168.691C273.058 168.691 273.858 166.811 275.147 165.712C276.436 164.612 285.008 167.807 285.008 167.807L287.193 167.898C287.193 167.898 290.324 167.91 290.729 170.763C291.008 172.734 291.123 173.337 289.725 174.19C287.916 175.293 286.311 174.656 286.311 174.656C286.311 174.656 285.234 169.698 279.892 170.124C278.873 170.206 278.302 172.682 278.302 172.682C278.302 172.682 277.938 176.378 276.03 176.021C274.118 175.661 273.485 174.635 273.485 174.635Z" fill="#F4CEB2"/>
<path d="M271.456 160.257C271.212 160.313 270.89 160.373 270.551 160.393C269.805 160.437 269.239 160.283 269.006 159.857C269.006 159.858 269.006 159.857 269.005 159.854C269.001 159.839 268.981 159.768 268.973 159.613C268.97 159.541 268.969 159.462 268.97 159.38C269.288 159.616 269.703 159.848 270.222 159.989L271.456 160.257ZM271.456 160.257C271.084 160.196 270.666 160.11 270.222 159.989L271.456 160.257Z" stroke="#EC6F6F" stroke-opacity="0.4" stroke-miterlimit="10"/>
<path d="M269.894 157.032C269.894 157.032 270.356 156.217 271.131 156.366C271.602 156.457 272.562 157.091 272.235 157.634" stroke="black" stroke-opacity="0.3" stroke-width="0.3308" stroke-miterlimit="10"/>
<path d="M269.765 153.108C270.019 153.108 270.226 152.855 270.226 152.543C270.226 152.23 270.019 151.977 269.765 151.977C269.51 151.977 269.303 152.23 269.303 152.543C269.303 152.855 269.51 153.108 269.765 153.108Z" fill="#373434" stroke="black" stroke-width="0.3308" stroke-miterlimit="10"/>
<path d="M275.65 155.633C275.904 155.633 276.11 155.379 276.11 155.067C276.11 154.754 275.904 154.501 275.65 154.501C275.396 154.501 275.189 154.754 275.189 155.067C275.189 155.379 275.396 155.633 275.65 155.633Z" fill="#373434" stroke="black" stroke-width="0.3308" stroke-miterlimit="10"/>
<path d="M277.386 156.092C277.386 156.092 276.387 154.521 275.951 154.412C275.515 154.303 274.515 155.215 274.515 155.215L275.951 155.983" stroke="#262423" stroke-width="0.4161" stroke-miterlimit="10"/>
<path d="M268.534 152.156C268.534 152.156 269.809 151.557 270.081 151.766C270.824 152.334 270.994 153.535 270.994 153.535L268.837 152.729" stroke="#262423" stroke-width="0.4161" stroke-miterlimit="10"/>
<path d="M275.35 152.988C275.35 152.988 277.343 152.961 277.802 153.535C278.155 153.975 278.66 155.248 278.66 155.248" stroke="black" stroke-width="0.3308" stroke-miterlimit="10"/>
<path d="M271.492 151.034L269.894 150.301L268.738 150.667" stroke="black" stroke-width="0.3308" stroke-miterlimit="10"/>
<path d="M281.979 156.467C281.979 156.467 283.635 155.188 283.627 156.783C283.618 158.377 282.851 159.833 281.979 159.797C281.107 159.76 280.712 159.907 280.849 159.083C280.986 158.259 281.979 156.467 281.979 156.467Z" fill="#F4CBB1" stroke="#EFCBB1" stroke-width="0.25" stroke-miterlimit="10"/>
<path d="M106.213 99.8821C108.723 93.7745 102.891 90.9661 102.116 89.9683C101.341 88.9705 95.8683 88.2773 95.8683 88.2773L96.6067 90.7627L102.116 99.8821H106.213Z" fill="#221E1B" stroke="black" stroke-miterlimit="10"/>
<path d="M83.4809 116.469C83.7383 117.63 93.6982 120.519 93.6982 120.519C93.6982 120.519 94.8502 129.183 95.0401 132.421C95.2301 135.659 97.5 120 97.5 120C97.5 120 83.2226 115.31 83.4809 116.469Z" fill="#6C5E69"/>
<path d="M93.6972 120.519C93.6972 120.519 94.8492 129.184 95.0391 132.422C95.177 134.765 95.66 127.135 95.9174 122.738C94.9441 121.5 94.6224 120.523 95.5354 117.233C96.6383 113.256 99.9185 113.769 99.9185 113.769L85.8726 109.778C85.8726 109.778 86.4016 113.488 85.6541 117.333L85.5683 117.759C88.5595 119.029 93.6972 120.519 93.6972 120.519Z" fill="#6C5E69"/>
<path d="M85.8736 109.778C85.8736 109.778 86.9255 117.058 84.0283 121.788C82.6067 124.107 79.9955 124.301 76.7102 125.77C71.4407 128.135 74.7995 170.755 74.7995 170.755L92.3328 173.526C92.3328 173.526 103.933 145.171 103.647 137.605C103.462 132.588 99.3558 126.86 96.6056 123.571C95.1289 121.807 94.4325 121.21 95.5354 117.233C96.6383 113.256 99.9185 113.769 99.9185 113.769L89.3174 108.042L85.8736 109.778Z" fill="#CCA790"/>
<path d="M96.9692 114.738C98.3121 113.523 99.9195 113.769 99.9195 113.769L90.1597 110.996C90.1985 111.506 90.2567 111.941 90.3456 112.207C90.751 113.427 94.4059 114.24 94.4059 114.24C94.4059 114.24 95.5283 114.474 96.9692 114.738Z" fill="#C79D82"/>
<path d="M98.7327 90.9773C98.7327 90.9773 101.381 91.6759 102.622 93.6951C103.862 95.7143 103.28 99.046 103.28 99.8534C103.28 100.661 103.345 101.129 103.899 102.479C104.725 104.498 107.122 105.242 106.172 105.911C104.725 106.922 105.346 106.72 104.519 109.142C103.692 111.565 103.617 113.374 102.622 113.879C101.626 114.384 93.7825 112.777 93.7825 112.777C93.7825 112.777 90.8776 111.874 90.4649 110.662C90.0522 109.45 89.4426 104.911 89.4426 104.911L91.5091 100.872L98.7327 90.9773Z" fill="#E3C6B2"/>
<path d="M97.9169 100.353C97.9169 100.353 98.8584 99.0875 100.076 99.4933C101.294 99.9002 101.922 99.8818 101.922 99.8818" stroke="black" stroke-width="0.7" stroke-miterlimit="10" stroke-linecap="round" stroke-linejoin="round"/>
<path d="M103.72 110.546C101.13 110.902 101 108 101 108L104.303 108.599C104.303 108.599 103.982 110.409 103.72 110.546Z" fill="#F2527B" fill-opacity="0.8"/>
<path d="M99 102.765C99 102.765 100.873 104.856 101.31 103.596C101.31 103.596 101.84 102.252 101.13 101.996C100.42 101.739 99 102.765 99 102.765Z" fill="#453D3D"/>
<path d="M101.5 103C101.5 103 101.5 102 101 102C100.188 101.797 98.8585 102.34 98.8585 102.34H97.5" stroke="black" stroke-width="0.7" stroke-miterlimit="10"/>
<path d="M93.2002 101.171C92.0876 96.5792 99.4417 94.8845 100.25 90.948C100.25 89.4114 98.7062 88.5769 97.6631 88.5769" stroke="black" stroke-opacity="0.2" stroke-width="0.2" stroke-miterlimit="10"/>
<path d="M124.069 141.209C124.069 141.209 99.4809 122.946 96.5 124C95 124.53 100 139.019 102 140.5C108.239 145.119 122.584 149.736 124.069 150.54C125.555 151.343 129.053 144.008 124.069 141.209Z" fill="#C4C4C4" stroke="#C4C4C4" stroke-width="0.25" stroke-miterlimit="10"/>
<path d="M154.162 161.515H150.471V75.5928C150.471 74.5766 151.301 73.7444 152.316 73.7444C153.331 73.7444 154.162 74.5766 154.162 75.5928V161.515V161.515Z" fill="#605B57"/>
<path d="M151.2 119.852C151.183 119.876 151.164 119.895 151.117 119.912C150.852 120.006 150.676 120.069 150.573 120.107C150.523 120.125 150.485 120.139 150.462 120.148C150.457 120.15 150.448 120.154 150.438 120.158C150.434 120.16 150.422 120.165 150.407 120.172C150.402 120.175 150.383 120.185 150.359 120.2C150.346 120.209 150.313 120.235 150.293 120.252C150.258 120.289 150.17 120.431 150.139 120.543C150.151 120.749 150.346 121.027 150.469 121.09C150.527 121.107 150.615 121.118 150.645 121.118C150.688 121.117 150.722 121.111 150.729 121.109L150.729 121.109C150.749 121.105 150.765 121.101 150.769 121.1L150.77 121.1C150.781 121.097 150.791 121.093 150.796 121.092C150.867 121.069 151.165 120.964 151.548 120.824C152.305 120.545 153.503 120.087 154.051 119.788C155.191 119.173 155.949 118.919 156.388 118.874C156.508 118.862 156.583 118.867 156.626 118.875C156.617 118.936 156.587 119.04 156.507 119.191C156.409 119.375 156.256 119.594 156.044 119.839C155.618 120.327 154.983 120.88 154.169 121.404L154.168 121.405C153.984 121.523 153.739 121.669 153.443 121.844C151.9 122.758 148.998 124.479 146.363 127.394L146.362 127.395C145.732 128.096 145.116 128.47 144.547 128.644C143.977 128.819 143.422 128.803 142.9 128.674C141.982 128.449 141.186 127.879 140.673 127.429L145.176 122.946L145.271 122.852L145.306 122.724L144.824 122.592L145.306 122.724L145.306 122.724L145.306 122.723L145.307 122.72L145.31 122.708L145.324 122.659L145.376 122.472C145.421 122.309 145.488 122.072 145.572 121.776C145.74 121.186 145.977 120.364 146.256 119.437C146.814 117.579 147.531 115.316 148.178 113.654C148.495 112.841 148.852 112.168 149.204 111.688C149.572 111.185 149.873 110.976 150.052 110.935C150.118 110.92 150.16 110.928 150.202 110.953C150.255 110.983 150.344 111.062 150.445 111.251C150.65 111.636 150.829 112.34 150.903 113.481C150.854 115.184 151.027 116.623 151.158 117.719C151.185 117.94 151.21 118.148 151.231 118.34C151.295 118.934 151.318 119.344 151.274 119.621C151.254 119.752 151.222 119.82 151.2 119.852Z" fill="#E6BEA2" stroke="#E5B28E"/>
<path d="M144.935 130.103C144.935 130.103 127.521 152.221 124.069 150.549C120.018 148.581 124.069 141.208 124.069 141.208L143.329 123.497L144.935 130.103Z" fill="#C4C4C4" stroke="#C4C4C4" stroke-miterlimit="10"/>
<path d="M52.1632 183.172C52.1632 183.172 52.9383 155.021 56.7035 154.3C61.1244 153.459 62.3417 160.129 62.3417 160.129C62.3417 160.129 58.219 184.372 57.2529 186.801C56.0836 182.877 52.1632 183.172 52.1632 183.172Z" fill="#C4C4C4"/>
<path d="M51.8399 190.013L53.1852 183.802C53.8419 183.995 54.7473 184.361 55.4318 185.01C55.8221 185.381 56.1353 185.839 56.2969 186.41C56.4585 186.981 56.4778 187.698 56.2304 188.602L56.2303 188.602C55.1927 192.408 55.3145 195.797 55.3787 197.587C55.3908 197.922 55.4008 198.201 55.4008 198.416C55.4008 199.385 55.279 200.218 55.0986 200.84C55.0083 201.151 54.9064 201.398 54.8046 201.579C54.7212 201.728 54.6502 201.81 54.604 201.85C54.5744 201.818 54.5289 201.757 54.4742 201.649C54.2747 201.254 54.0793 200.478 53.9812 199.183C53.9646 198.949 53.9975 198.571 54.0495 198.113C54.0611 198.011 54.0736 197.906 54.0862 197.8C54.1272 197.453 54.1699 197.093 54.1892 196.792C54.2018 196.595 54.2066 196.397 54.1892 196.227C54.1805 196.142 54.1646 196.045 54.1316 195.951C54.1007 195.862 54.0374 195.726 53.9008 195.622C53.7414 195.502 53.5537 195.48 53.3919 195.518C53.2523 195.551 53.1412 195.624 53.0638 195.686C52.9073 195.811 52.7462 196.004 52.5775 196.24C50.7494 198.795 49.6908 200.25 48.6392 201.696L48.6114 201.734L48.6114 201.734C48.1377 202.386 47.413 202.951 46.6189 203.383C45.8259 203.814 45 204.093 44.356 204.195C44.0313 204.246 43.7807 204.247 43.6147 204.218C43.5658 204.209 43.5319 204.199 43.5091 204.191C43.5183 204.16 43.5368 204.113 43.5742 204.046C43.6839 203.848 43.9111 203.565 44.3159 203.191L44.3517 203.158L44.3805 203.119L43.9771 202.824L44.3805 203.119L44.3805 203.119L44.3807 203.119L44.3813 203.118L44.3836 203.115L44.393 203.102L44.4304 203.051L44.5799 202.847C44.7127 202.665 44.9118 202.392 45.1773 202.028C45.7082 201.3 46.5043 200.208 47.5653 198.748C48.6606 197.246 49.7259 195.067 50.5099 193.291C50.9041 192.397 51.2314 191.596 51.4601 191.017C51.5745 190.728 51.6644 190.494 51.7258 190.333C51.7565 190.252 51.78 190.189 51.796 190.146L51.8142 190.097L51.819 190.084L51.8202 190.081L51.8205 190.08L51.8206 190.08C51.8207 190.08 51.8207 190.08 51.3513 189.907L51.8207 190.08L51.8326 190.047L51.8399 190.013ZM43.4673 204.171C43.4674 204.171 43.4679 204.171 43.4687 204.172C43.4677 204.171 43.4673 204.171 43.4673 204.171ZM43.5004 204.235C43.5007 204.237 43.5006 204.238 43.5005 204.238C43.5005 204.238 43.5003 204.237 43.5004 204.235Z" fill="#D8B398" stroke="#E5B28E"/>
<path d="M53.5745 264.994C53.5745 264.994 68.8744 225.828 69.0684 220.93C69.2625 216.034 79.5145 216.709 78.0746 222.382C76.6347 228.045 60.5096 265.409 60.5096 265.409C60.5096 265.409 51.6362 269.446 53.5745 264.994Z" fill="#C6CEF4"/>
<path d="M71.1088 275.155V273.169C71.1088 271.979 70.2326 270.963 69.0602 270.795C66.3652 270.416 62.0281 269.668 62.3416 268.892C62.8032 267.766 60.5116 265.41 60.5116 265.41L53.5755 264.995C53.5755 264.995 50.5874 268.907 51.241 272.95C53.5755 273.31 57.9463 273.473 57.9463 273.473L62.3427 275.156C62.3416 275.155 66.4939 276.081 71.1088 275.155Z" fill="#645B5B" stroke="black" stroke-width="0.25" stroke-miterlimit="10"/>
<path d="M75 168C75 168 70.9581 170.755 69.0694 176.5C68.1463 179.308 67.9533 204.865 69.0694 218.76C70.1856 232.656 78.2145 220.451 78.2145 220.451C78.2145 220.451 92.9149 183.172 91.235 174.654C89.5653 166.135 75 168 75 168Z" fill="#C6CEF4"/>
<path d="M51.1297 274.638L51.24 272.949L56.9159 273.4L57.257 274.638H51.1297Z" fill="#363535" stroke="black" stroke-width="0.25" stroke-miterlimit="10"/>
<path d="M107.089 238.025C107.089 238.025 119.206 197.316 119.114 192.411C119.021 187.505 130.187 186.295 129.091 192.033C127.992 197.77 113.224 237.38 113.224 237.38C113.224 237.38 105.42 242.588 107.089 238.025Z" fill="#C6CEF4"/>
<path d="M124.317 246.432L124.198 244.445C124.124 243.253 123.201 242.293 122.011 242.201C119.307 241.977 114.923 241.489 115.2 240.693C115.597 239.549 113.641 236.258 113.641 236.258L106.221 237.323C106.221 237.323 103.635 239.899 104.348 245.388C106.7 245.61 112.25 245.534 112.25 245.534L115.561 246.95C115.562 246.939 119.76 247.624 124.317 246.432Z" fill="#645B5B" stroke="black" stroke-width="0.25" stroke-miterlimit="10"/>
<path d="M104.33 247.088L104.349 245.387L110.043 245.507L110.449 246.726L104.33 247.088Z" fill="#363535" stroke="black" stroke-width="0.25" stroke-miterlimit="10"/>
<path d="M193.843 77.44C193.843 77.44 176.153 79.2874 168.844 77.44C162.449 75.8237 155.989 75.6202 154.484 75.5926C154.3 75.5926 154.162 75.7399 154.162 75.9157V113.583C154.162 113.759 154.3 113.906 154.475 113.906C156.958 113.952 173.468 114.174 183.691 111.615C191.342 109.702 217.791 99.6138 214.144 100.529C207.437 102.21 193.104 94.726 190.549 93.3499C190.355 93.2476 190.327 92.9798 190.484 92.8234L211.387 73.5684C211.663 73.3189 211.359 72.8763 211.026 73.0327C208 74.4834 201.982 76.8113 193.843 77.44Z" fill="url(#paint0_linear)" fill-opacity="0.7"/>
<path d="M96.6067 123.571C96.3513 123.266 96.1216 122.996 95.9184 122.738C95.7737 125.218 95.8192 128.816 95.5932 130.972C95.4186 132.638 94.9579 133.402 94.8978 132.381C94.7079 129.143 93.6982 120.519 93.6982 120.519C93.6982 120.519 83.7393 117.63 83.4809 116.47L82.1247 122.369C81.8357 122.911 79.3634 124.384 77.469 125.456C77.2178 125.558 76.9706 125.655 76.7112 125.771C76.5254 125.854 76.3528 125.992 76.1884 126.172C75.6349 126.475 75.2703 126.671 75.2703 126.671L75.4745 127.369C72.029 135.574 73 170 73 170L92.3339 173.527C92.3339 173.527 103.934 145.172 103.648 137.606C103.462 132.588 99.3568 126.86 96.6067 123.571Z" fill="#8360B8"/>
<path d="M63.7908 159.003C63.7908 159.003 84.5358 133.817 83.7148 130.75C82.8937 127.682 75.7881 123.866 70.7034 129.742C65.6187 135.618 55.4035 156.859 54.4895 158.282C53.5745 159.705 60.625 163.751 63.7908 159.003Z" fill="#C4C4C4"/>
<path d="M86 111.5C86 111.5 83.9721 109.611 81.4068 108.021C78.8415 106.441 77.7529 97.054 78.1583 94.6157C78.5637 92.1764 79.528 89.601 84.7975 86.7639C88.5352 84.7499 96.817 87.3069 96.817 87.3069C96.817 87.3069 97.892 87.7338 98.0915 88.8875C98.451 90.9659 99.3558 92.3706 95.2484 95.5205C91.1421 98.6806 91.2432 100.704 91.2432 100.704L89.8042 106.095L90.2214 109.085L86 111.5Z" fill="#2C2724"/>
<path d="M78.1675 94.616C72.0861 92.5835 65.9956 93.8022 64.7772 104.769C63.5589 115.736 63.5589 119.395 57.884 121.012C52.2081 122.638 55.042 132.385 58.6959 137.254C62.3508 142.132 57.5245 150.096 54.6631 148.544C51.8026 147.001 55.8538 152.277 57.4776 152.682C59.1013 153.089 67.2129 154.716 67.6193 148.618C68.1085 141.282 63.1525 132.376 68.8376 129.936C74.5136 127.498 83.0765 123.414 80.1977 115.717C76.5427 105.97 74.7249 97.7658 76.9492 98.6624C79.1836 99.5785 78.1675 94.616 78.1675 94.616Z" fill="#221E1B" stroke="black" stroke-width="0.7" stroke-miterlimit="10"/>
<path d="M97.9401 88.5025C94.695 87.5521 86.3551 86.4022 82.8505 90.797C79.3458 95.1919 78.8868 95.6415 79.0954 95.317" stroke="#070605" stroke-width="0.2"/>
<path d="M73.8487 185.379C73.8487 185.379 74.4114 188.225 77.1156 189.417C79.8188 190.608 107.07 195.551 120.995 195.801C134.921 196.05 126.652 187.22 126.652 187.22C126.652 187.22 90.5 168.537 75.5 170C66.8717 170.841 73.8487 185.379 73.8487 185.379Z" fill="#C6CEF4"/>
<path d="M91.4938 101.462C91.4938 101.462 90.2707 99.7975 89.0439 99.9707C87.8155 100.136 86.4673 101.655 88.066 103.404C88.9354 104.348 88.5519 105.794 89.4286 106.031C90.305 106.267 90.449 105.955 90.449 105.955L91.4938 101.462Z" fill="#E3C5B2"/>
<path d="M93.6147 169.096C92.6837 169.764 79.8828 169.653 73.0457 169.096L69.0125 175.216C70.5157 174.845 76.5622 172.99 78.1915 172.99C79.8207 172.99 88.8142 172.62 93.6147 172.99C94.3905 171.322 94.5457 168.429 93.6147 169.096Z" fill="white"/>
<path d="M98.2674 89C98.2674 89 93.4216 89 91.3372 92.6077C89.9299 94.2844 89.4692 99.3218 90.7596 101.369C92.0501 103.417 91.934 106.995 91.3371 108.585C90.7403 110.175 94.046 105.961 92.9334 101.369C91.8208 96.7774 99.1917 94.4827 100 90.5462" fill="#382F27"/>
<path d="M90.8473 108.877C92.4435 107.571 93.046 105.265 91.9334 100.673C90.8208 96.0807 98.1749 94.386 98.9831 90.4495C98.9831 89.364 97.9401 88.7805 97.9401 88.7805" stroke="black" stroke-width="0.2" stroke-miterlimit="10"/>
<path d="M94.8804 143.367V130.99H95.5584L96.4102 143.367C96.4102 143.367 96.4102 155.05 93.3506 169.653H90.5691C92.4234 163.904 94.8804 152.268 94.8804 143.367Z" fill="white" stroke="#C4C4C4" stroke-width="0.2"/>
<path d="M76.3835 94.2741C71.3768 94.2741 67.8165 93.3006 65.8138 101.645C63.3105 112.076 73.3238 118.334 65.8138 125.149C58.3038 131.963 63.0323 136.692 63.7277 138.917C64.4231 141.142 67.7609 153.937 55.2441 150.877" stroke="black" stroke-width="0.5"/>
<path d="M76.5438 92.9985H78.6199C78.6199 92.9985 79.9955 99.697 78.3891 99.882C76.3773 100.113 76.5427 99.4567 76.5427 99.4567V94.8746C76.5427 94.8746 75.7319 92.9985 76.5438 92.9985Z" fill="#6C5E69"/>
<defs>
<linearGradient id="paint0_linear" x1="184.324" y1="73" x2="184.324" y2="113.931" gradientUnits="userSpaceOnUse">
<stop stop-color="#EE5861"/>
<stop offset="1" stop-color="#EF295A"/>
</linearGradient>
</defs>
</svg>
