<svg width="400" height="326" viewBox="0 0 400 326" fill="none" xmlns="http://www.w3.org/2000/svg">
<g clip-path="url(#clip0)">
<path d="M42.9609 327H83.2599H325.054C331.502 319.804 387.002 273.42 397.592 224.452C408.876 172.279 378.249 145.292 352.457 123.703C326.666 102.114 350.845 60.7349 312.158 22.9541C273.471 -14.8268 217.053 10.3604 183.202 22.9541C149.35 35.5477 34.9011 -0.433903 34.9011 105.712C34.9011 179.211 -21.5176 192.068 9.10969 246.041C27.4463 278.355 47.7967 312.008 42.9609 327Z" fill="#EDEBF4"/>
<path d="M62.2547 221.849C59.814 219.985 59.3 169.21 59.7218 166.722C60.1436 164.235 100.252 162.509 101.944 165.095C103.637 167.68 102.244 217.223 101.672 220.396C101.1 223.569 64.6955 223.714 62.2547 221.849Z" fill="white" fill-opacity="0.6" stroke="#D2D0D0" stroke-width="2"/>
<path d="M66.4696 177.208L69.5275 181.795L72.5854 174.915M67.2341 189.44L70.292 194.027L73.3499 187.147M67.9985 200.143L71.0564 204.73L74.1144 197.849M77.9368 174.915H98.5777M77.9368 179.502H88.6395M77.9368 187.147H98.5777M77.9368 191.734H93.9908M77.9368 200.143H98.5777M77.9368 204.73H91.6974" stroke="#645B5B" stroke-width="2" stroke-linecap="round"/>
<path d="M170.89 104.987C173.154 100.912 180.2 94.4075 188.241 98.2163L191.203 99.486L191.224 99.4682C193.55 97.4644 196.607 94.8308 199.879 94.8308C202.218 94.8308 203.348 95.4895 205.404 96.0769C206.869 96.4953 208.663 97.5417 209.918 98.5455C210.47 98.9873 211.515 99.532 212.175 99.9092C213.13 100.455 213.609 101.387 214.479 101.931C217.385 103.747 222.097 109.385 222.097 113.028C222.097 116.137 223.259 119.928 221.885 122.95C221.077 124.728 221.25 127.354 221.25 129.321C221.25 130.904 222.431 132.576 222.52 134.188C222.616 135.914 224.6 138.536 225.388 140.113C229.714 146.038 232.254 152.386 233.946 155.771C235.639 159.157 235.216 165.505 229.714 171.43C224.213 177.354 223.573 180.642 220.404 185.395L167.928 194.282C168.516 191.93 168.224 190.307 167.928 187.934C167.636 185.598 167.039 184.155 166.235 182.01C165.333 179.604 162.426 176.212 159.464 173.546C156.501 170.879 153.577 162.966 156.078 157.464C157.249 154.888 159.962 148.738 160.733 146.038C162.056 141.409 162.426 138.207 162.426 133.342C162.426 127.325 163.634 121.481 165.388 115.779C166.608 111.816 169.95 106.68 170.89 104.987Z" fill="#221E1B" stroke="#221E1B" stroke-linecap="round" stroke-linejoin="round"/>
<path d="M187.818 176.931C190.188 173.546 189.652 164.235 189.087 160.003C190.78 160.568 192.473 162.119 197.128 161.696C199.488 161.482 203.194 158.593 204.746 157.041C205.028 160.85 205.931 169.737 207.285 174.815C208.639 179.894 211.517 181.728 212.787 182.01C211.376 184.972 206.692 190.897 199.244 190.897C191.796 190.897 185.702 185.536 183.586 182.856C184.009 182.292 185.448 180.317 187.818 176.931Z" fill="#FADDC8" stroke="black"/>
<path d="M196.282 164.235C181.724 162.204 175.827 136.868 174.699 124.455C174.31 121.069 191.627 115.144 191.627 107.103C191.627 103.656 211.094 123.185 218.288 123.185C217.018 137.715 210.84 166.267 196.282 164.235Z" fill="#FFE8D9" stroke="#E5B28E" stroke-linecap="round" stroke-linejoin="round"/>
<path d="M101.909 231.524C101.229 229.937 97.6766 234.909 95.5606 235.756C98.9462 248.028 128.993 290.348 132.379 293.311C135.764 296.273 135.764 295.004 140.843 294.58C144.906 294.242 156.078 258.609 161.156 240.834C157.489 238.013 147.927 228.063 147.191 229.831C145.075 234.909 138.304 271.728 134.495 268.765C130.686 265.803 104.448 237.449 101.909 231.524Z" fill="#FADDC8" stroke="#EABC9C"/>
<path d="M269.451 259.832C264.738 262.912 257.74 239.739 254.883 228.153C248.371 235.545 241.315 238.566 238.602 239.152C245.743 252.645 260.368 279.983 261.739 281.391C263.452 283.151 266.88 282.711 269.451 283.151C272.022 283.591 305.87 233.433 304.585 229.473C303.557 226.305 301.536 225.565 299.965 226.445C290.539 236.272 274.164 256.752 269.451 259.832Z" fill="#FADDC8" stroke="#EABC9C"/>
<path d="M218.711 140.959C217.514 142.156 216.172 142.37 215.326 141.806C216.172 138.42 217.049 131.383 217.442 131.226C221.674 129.533 219.981 133.342 219.981 134.611C219.981 135.881 220.404 139.267 218.711 140.959Z" fill="#EACEBA"/>
<path d="M318.586 318.703H88.3663C86.0291 318.703 84.1343 320.597 84.1343 322.935C84.1343 325.272 86.0291 327.167 88.3663 327.167H318.586C320.923 327.167 322.818 325.272 322.818 322.935C322.818 320.597 320.923 318.703 318.586 318.703Z" fill="#838383"/>
<path d="M299.119 195.975C296.41 198.007 301.658 204.016 304.621 206.555C307.583 203.17 311.892 198.938 310.545 196.822C308.175 193.098 305.467 196.116 304.621 197.668C303.915 196.399 301.827 193.944 299.119 195.975Z" fill="#FF3366" fill-opacity="0.8"/>
<path d="M313.244 183.095C311.148 184.655 315.209 188.946 317.501 190.897C319.794 188.296 322.395 185.395 321.972 184.07C320.921 180.781 317.971 182.934 317.316 184.126C316.771 183.15 315.34 181.534 313.244 183.095Z" fill="#FF3366" fill-opacity="0.1"/>
<path d="M297.766 173.093C296.337 174.547 299.731 178.944 302.024 180.895C303.955 178.779 307.536 174.902 306.494 173.277C305.137 171.161 302.679 172.876 302.024 174.068C301.478 173.093 299.598 171.229 297.766 173.093Z" fill="#8562B9"/>
<path d="M308.026 224.825C305.544 224.126 305.144 225.63 305.255 226.469C306.307 226.9 309.832 228.173 315.511 229.817C322.611 231.873 324.014 229.554 325.582 228.495C326.836 227.647 324.839 227.17 323.683 227.037C319.498 226.591 310.508 225.523 308.026 224.825Z" fill="#E6B28E" stroke="#FADDC8"/>
<path d="M303.351 225.176C301.32 223.822 299.119 227.715 298.273 229.831C299.627 228.477 302.222 230.395 303.351 231.524C306.878 232.652 314.862 235.163 318.586 236.179C323.241 237.449 323.664 236.179 324.934 234.909C326.204 233.64 328.32 231.524 332.552 228.561C336.784 225.599 334.668 225.176 332.552 225.176C330.436 225.176 321.972 231.101 320.702 231.524C319.432 231.947 305.89 226.869 303.351 225.176Z" fill="#FADDC8" stroke="#FADDC8"/>
<path d="M303.351 231.524C306.878 232.652 314.862 235.163 318.586 236.179C323.241 237.448 323.664 236.179 324.934 234.909C326.204 233.64 328.32 231.524 332.552 228.561C336.784 225.599 334.668 225.176 332.552 225.176C330.436 225.176 322.395 230.254 321.125 230.677C319.856 231.1 305.89 226.868 303.351 225.176C302.081 224.329 300.812 225.176 299.119 226.868" stroke="#EABC9C"/>
<path d="M211.517 134.188C211.94 133.342 211.94 132.072 211.94 132.072C210.924 132.749 207.285 133.765 205.592 134.188V135.035C205.592 135.035 211.094 135.035 211.517 134.188Z" fill="#344B58"/>
<path d="M187.395 135.035C186.125 135.035 181.893 133.342 181.893 133.342L182.316 132.495L188.664 133.765C188.664 133.765 188.664 135.035 187.395 135.035Z" fill="#344B58"/>
<path d="M211.517 134.188C211.94 133.342 211.94 132.072 211.94 132.072C210.924 132.749 207.285 133.765 205.592 134.188V135.035C205.592 135.035 211.094 135.035 211.517 134.188Z" stroke="black"/>
<path d="M187.395 135.035C186.125 135.035 181.893 133.342 181.893 133.342L182.316 132.495L188.664 133.765C188.664 133.765 188.664 135.035 187.395 135.035Z" stroke="black"/>
<path d="M79.056 231.947C77.0246 232.624 76.2347 233.358 76.0936 233.64C77.1093 234.656 78.4917 234.91 79.056 234.91L91.7519 231.947C94.2911 231.947 101.909 231.101 100.216 229.408C99.7927 227.715 96.4071 226.869 93.4447 227.292C90.4823 227.715 81.5952 231.101 79.056 231.947Z" fill="#E5B28E"/>
<path d="M64.244 227.292C62.5512 225.938 61.5637 227.856 61.2816 228.985C62.9744 230.678 76.0935 239.565 77.7863 240.411C79.4791 241.257 87.0967 236.602 90.9055 235.756C93.9525 235.079 94.7143 235.756 95.9839 236.602C98.2409 235.474 101.57 233.725 101.909 232.37C102.332 230.678 101.062 227.715 98.0998 227.715C96.0685 227.715 83.8522 232.652 77.7863 234.486C73.9776 232.652 65.9368 228.646 64.244 227.292Z" fill="#FADDC8"/>
<path d="M196.767 154.588C195.412 154.588 193.381 154.024 192.535 153.742C192.535 153.742 194.228 152.472 195.074 152.049C195.92 151.626 196.09 152.895 196.767 152.895C197.444 152.895 198.036 151.626 198.46 152.049C198.883 152.472 200.999 153.742 200.999 153.742C200.293 154.024 198.121 154.588 196.767 154.588Z" fill="#CF5959"/>
<path d="M161.58 240.411L141.266 231.101C144.652 215.866 157.178 192.59 161.58 190.897C165.981 189.204 178.225 184.549 182.316 182.433C184.855 185.254 191.542 190.897 197.975 190.897C204.407 190.897 210.812 185.254 213.21 182.433C218.288 182.574 229.01 185.836 236.486 193.013C247.066 203.17 253.414 219.251 257.222 227.292C253.272 231.665 241.987 240.411 239.025 240.411C236.062 240.411 235.639 233.64 233.523 233.64C231.407 233.64 239.025 256.069 239.025 256.069H163.696C163.696 256.069 167.504 236.602 167.504 233.64C167.504 230.677 161.58 240.411 161.58 240.411Z" fill="#C4C4C4" stroke="black" stroke-opacity="0.3" stroke-width="2"/>
<path d="M192.535 153.742C191.999 153.474 195.074 156.704 196.767 156.704C198.46 156.704 200.434 154.588 200.999 153.742C200.293 153.883 197.782 154.588 196.767 154.588C195.497 154.588 193.381 154.165 192.535 153.742Z" fill="#F97D7D"/>
<path d="M181.047 126.57C182.457 126.288 185.448 125.809 186.125 126.147C186.802 126.486 189.793 128.263 191.203 129.11M202.207 129.956L207.285 127.417L210.247 126.994M211.94 132.072C211.94 132.072 211.94 133.342 211.517 134.188C211.094 135.034 205.592 135.034 205.592 135.034V134.188C207.285 133.765 210.924 132.749 211.94 132.072ZM181.893 133.342C181.893 133.342 186.125 135.034 187.395 135.034C188.664 135.034 188.664 133.765 188.664 133.765L182.316 132.495L181.893 133.342Z" stroke="black" stroke-linecap="round"/>
<path d="M174.276 138.843C175.291 140.875 177.097 141.1 177.661 140.959C176.815 137.151 175.545 130.803 175.122 129.533C174.72 128.329 173.006 129.11 172.583 130.803C172.16 132.496 173.006 136.304 174.276 138.843Z" fill="#EACEBA"/>
<path d="M169.808 179.857C168.419 177.594 165.075 173.01 163.593 170.772C160.69 166.389 159.501 162.622 160.888 157.236C161.478 154.946 169.808 144.521 168.102 136.728" stroke="black" stroke-linecap="round" stroke-linejoin="round"/>
<path d="M173.193 186.242C173.193 182.04 175.334 183.346 173.193 179.857C171.804 177.594 168.461 173.01 166.979 170.772C164.076 166.389 162.887 162.622 164.274 157.236C164.864 154.946 173.193 144.521 171.487 136.728" stroke="black" stroke-linecap="round" stroke-linejoin="round"/>
<path d="M138.727 260.301C139.573 262.84 150.859 297.26 156.078 311.085H253.837C256.94 295.991 264.565 265.08 266.533 260.301C269.495 253.107 265.263 252.683 260.608 253.107C255.953 253.53 147.614 251.837 142.113 251.837C136.611 251.837 136.611 253.953 138.727 260.301Z" fill="#DFDFDF" stroke="white"/>
<path d="M212.363 283.153C211.094 287.808 206.862 289.501 203.476 289.501C199.244 289.501 195.859 286.116 194.589 283.153C193.052 279.567 196.282 275.959 199.244 277.228C202.207 278.498 203.053 281.037 205.169 278.498C208.638 274.335 213.633 278.498 212.363 283.153Z" fill="#B5B0B0" stroke="white"/>
<path d="M156.501 312.354L157.348 318.279H254.26V312.354H156.501Z" fill="#C4C4C4" stroke="white" stroke-linecap="round" stroke-linejoin="round"/>
<path d="M177.918 120.646C185.535 115.356 188.498 109.643 190.19 107.95V110.912C188.498 113.875 186.481 117.161 184.266 119.376C181.715 121.927 180.529 123.455 177.918 125.936C173.066 130.545 167.436 135.848 160.99 137.997C159.739 138.414 156.739 139.34 155.488 139.267C154.739 139.223 155.911 137.574 155.488 135.881C155.488 134.393 156.535 127.547 158.874 127.417C162.683 127.417 170.3 125.936 177.918 120.646Z" fill="#44372D" stroke="black" stroke-linecap="round" stroke-linejoin="round"/>
<path d="M189.344 106.257C187.651 107.95 184.689 113.663 177.071 118.953C169.454 124.243 161.836 125.724 158.027 125.724C156.372 125.816 154.601 129.167 154.155 132.919C153.971 134.469 154.155 137.574 153.539 138.843M159.887 136.727C166.333 134.579 172.219 128.852 177.071 124.243C179.682 121.762 180.869 120.234 183.419 117.683C185.635 115.468 187.651 112.182 189.344 109.219" stroke="black" stroke-linecap="round" stroke-linejoin="round"/>
<path d="M215.749 124.455C206.082 121.002 196.321 112.295 193.319 102.448C191.345 102.448 187.395 103.633 187.395 108.373C188.781 110.902 193.007 114.714 195.012 116.837C199.009 121.069 205.733 124.525 209.401 126.665C212.701 128.412 219.685 131.083 223.366 131.649C227.042 132.215 228.644 132.919 232.254 132.919C232.254 132.919 231.249 128.052 230.044 127.088C229.342 126.526 226.604 126.994 225.694 126.994C222.247 126.994 218.993 125.614 215.749 124.455Z" fill="#221E1B"/>
<path d="M215.749 122.339C206.082 118.886 196.321 110.179 193.319 100.332C191.345 100.332 187.395 101.517 187.395 106.257C188.781 108.786 193.007 112.598 195.012 114.721C199.009 118.953 205.733 122.409 209.401 124.549C212.701 126.295 219.685 128.967 223.366 129.533C227.042 130.098 228.644 130.803 232.254 130.803C232.254 130.803 231.249 125.936 230.044 124.972C229.342 124.41 226.604 124.878 225.694 124.878C222.247 124.878 218.993 123.497 215.749 122.339Z" fill="#44372D"/>
<path d="M194.288 144.345C193.782 144.658 192.921 145.473 193.528 146.226C194.288 147.166 194.288 148.577 195.048 148.577C195.808 148.577 198.847 148.577 199.227 148.577C199.607 148.577 199.718 146.558 199.987 146.226C200.367 145.756 199.607 144.972 199.227 144.345" stroke="#CCAC96" stroke-linecap="round"/>
<path d="M203.899 134.188C207.879 133.795 210.552 133.28 213.633 131.226" stroke="black" stroke-linecap="round" stroke-linejoin="round"/>
<path d="M181.047 132.072C184.474 133.088 187.747 133.765 191.203 133.765" stroke="black" stroke-linecap="round" stroke-linejoin="round"/>
<g opacity="0.8">
<path d="M77.0537 82.5578C78.5844 86.1368 88.4439 86.7898 82.8647 88.4826C85.0971 92.8706 86.135 95.2697 88.8671 96.0992C89.4646 94.8418 92.9908 102.503 93.5503 101.179C96.0046 95.0845 94.7729 88.7013 93.8502 86.2715C90.3494 73.7841 81.5099 70.7634 77.0537 68.1037C75.977 67.3905 74.0087 66.4014 72.726 66.4808C71.5534 66.5534 73.0864 69.2748 73.1116 69.7267C73.2918 72.9498 75.7847 79.5909 77.0537 82.5578Z" fill="#683DA9"/>
<path d="M114.572 75.1286C113.506 79.9237 112.706 84.2282 110.034 88.4593C108.213 92.4014 103.542 100.671 99.4304 102.213C99.4304 97.1749 99.4903 90.7917 101.452 86.1317C102.522 83.5907 99.4304 79.5956 101.452 76.21C102.514 73.29 106.37 74.613 107.833 71.9781C107.833 67.3229 112.823 65.6541 114.854 64.7838C114.922 64.7543 114.757 74.2922 114.572 75.1286Z" fill="#9FB2F4"/>
<path d="M118.263 89.9406C112.762 92.3854 107.775 98.1935 104.509 103.06L103.239 105.599C105.04 102.898 108.938 102.428 111.915 101.767C116.36 100.779 118.574 97.5465 120.261 93.7494C120.722 92.7127 121.322 89.6941 122.072 89.0942C122.544 88.716 118.941 89.6391 118.263 89.9406Z" fill="#9FB2F4" fill-opacity="0.81"/>
<path d="M98.5231 105.834C102.101 96.5898 103.308 86.7865 109.587 78.9375" stroke="black" stroke-linecap="round" stroke-linejoin="round"/>
<path d="M81.5951 77.4792C85.973 80.3999 87.6621 83.2443 89.4753 87.9102C91.8413 93.9985 93.1611 100.642 94.291 107.103" stroke="black" stroke-linecap="round" stroke-linejoin="round"/>
<path d="M102.755 106.257C106.141 101.602 109.949 98.2163 112.065 96.5235C114.181 94.8307 115.874 93.5611 117.99 92.2915" stroke="black" stroke-linecap="round" stroke-linejoin="round"/>
<path d="M104.086 107.715C96.3822 107.715 88.7059 108.707 81.2329 110.677C83.2078 118.436 87.4116 134.038 88.4273 134.377C89.443 134.715 100.136 134.518 105.355 134.377C108.496 126.054 114.417 109.239 112.973 108.561C112.193 107.002 105.672 107.715 104.086 107.715Z" fill="#D0D0D0"/>
</g>
<path d="M246.854 124.455C244.678 120.646 244.526 119.376 246.854 115.356C249.182 111.336 251.35 110.912 250.266 98.6397C249.657 94.831 250.367 87.4673 255.106 85.0974C261.592 81.6636 266.238 88.5526 272.457 85.0974C275.867 82.7698 277.083 78.3561 280.075 75.3637C283.884 71.5549 300.182 71.5549 303.821 76.2101C308.493 80.7487 310.513 86.4493 308.946 91.5393C308.354 93.4653 307.107 96.8426 307.583 98.6397C308.263 101.211 315.177 100.309 318.163 104.141C321.149 107.974 322.818 116.414 313.484 121.069C310.539 122.538 302.928 121.069 299.542 123.608C296.157 126.148 296.58 131.649 290.655 131.649C285.841 131.649 279.241 130.198 275.843 127.417C272.875 124.989 269.27 122.875 266.109 124.455C262.516 126.252 261.612 129.11 257.222 129.11C253.786 129.11 248.701 127.687 246.854 124.455Z" fill="white" fill-opacity="0.7"/>
<path d="M239.025 121.069C237.871 123.608 240.294 125.301 242.834 124.455C245.373 123.608 241.141 116.414 239.025 121.069Z" fill="white" fill-opacity="0.7"/>
<path d="M234.793 129.11C236.909 130.803 239.448 127.417 236.909 126.148C234.37 124.878 233.523 127.417 234.793 129.11Z" fill="white" fill-opacity="0.7"/>
<path d="M246.854 124.455C244.678 120.646 244.526 119.376 246.854 115.356C249.182 111.336 251.35 110.912 250.266 98.6397C249.657 94.831 250.367 87.4673 255.106 85.0974C261.592 81.6636 266.238 88.5526 272.457 85.0974C275.867 82.7698 277.083 78.3561 280.075 75.3637C283.884 71.5549 300.182 71.5549 303.821 76.2101C308.493 80.7487 310.513 86.4493 308.946 91.5393C308.354 93.4653 307.107 96.8426 307.583 98.6397C308.263 101.211 315.177 100.309 318.163 104.141C321.149 107.974 322.818 116.414 313.484 121.069C310.539 122.538 302.928 121.069 299.542 123.608C296.157 126.148 296.58 131.649 290.655 131.649C285.841 131.649 279.241 130.198 275.843 127.417C272.875 124.989 269.27 122.875 266.109 124.455C262.516 126.252 261.612 129.11 257.222 129.11C253.786 129.11 248.701 127.687 246.854 124.455Z" stroke="#E0DDDD" stroke-width="2" stroke-linecap="round" stroke-linejoin="round"/>
<path d="M239.025 121.069C237.871 123.608 240.294 125.301 242.834 124.455C245.373 123.608 241.141 116.414 239.025 121.069Z" stroke="#E0DDDD" stroke-width="2" stroke-linecap="round" stroke-linejoin="round"/>
<path d="M234.793 129.11C236.909 130.803 239.448 127.417 236.909 126.148C234.37 124.878 233.523 127.417 234.793 129.11Z" stroke="#E0DDDD" stroke-width="2" stroke-linecap="round" stroke-linejoin="round"/>
<g clip-path="url(#clip1)">
<path d="M343.078 179.285C343.042 178.476 342.914 177.923 342.727 177.439C342.534 176.939 342.276 176.515 341.856 176.092C341.436 175.669 341.014 175.409 340.517 175.215C340.036 175.027 339.487 174.898 338.682 174.861C337.875 174.824 337.618 174.815 335.566 174.815C333.513 174.815 333.255 174.824 332.449 174.861C331.645 174.898 331.095 175.027 330.614 175.215C330.117 175.409 329.696 175.67 329.275 176.092C328.855 176.515 328.596 176.939 328.403 177.439C328.216 177.923 328.089 178.476 328.052 179.285C328.015 180.096 328.007 180.356 328.007 182.421C328.007 184.487 328.015 184.745 328.052 185.557C328.089 186.367 328.216 186.919 328.403 187.403C328.596 187.904 328.855 188.328 329.275 188.751C329.695 189.173 330.117 189.434 330.614 189.628C331.095 189.816 331.644 189.945 332.449 189.981C333.255 190.018 333.512 190.027 335.566 190.027C337.618 190.027 337.875 190.018 338.682 189.981C339.487 189.945 340.036 189.816 340.517 189.628C341.015 189.434 341.436 189.173 341.856 188.751C342.276 188.328 342.534 187.904 342.728 187.403C342.915 186.919 343.042 186.367 343.079 185.557C343.116 184.745 343.125 184.487 343.125 182.421C343.124 180.356 343.115 180.097 343.078 179.285ZM341.718 185.495C341.684 186.236 341.562 186.64 341.458 186.908C341.321 187.262 341.157 187.516 340.893 187.782C340.628 188.047 340.376 188.213 340.024 188.351C339.758 188.455 339.357 188.579 338.62 188.612C337.823 188.648 337.584 188.657 335.566 188.657C333.547 188.657 333.308 188.648 332.512 188.612C331.774 188.579 331.374 188.455 331.108 188.351C330.755 188.213 330.503 188.047 330.238 187.782C329.974 187.516 329.81 187.262 329.673 186.908C329.57 186.64 329.447 186.237 329.413 185.495C329.377 184.693 329.369 184.452 329.369 182.422C329.369 180.391 329.376 180.15 329.413 179.348C329.447 178.607 329.57 178.204 329.673 177.936C329.81 177.582 329.974 177.328 330.238 177.062C330.503 176.795 330.755 176.631 331.108 176.492C331.374 176.388 331.774 176.264 332.512 176.231C333.308 176.194 333.548 176.186 335.566 176.186C337.584 176.186 337.823 176.194 338.62 176.231C339.357 176.264 339.758 176.388 340.024 176.492C340.376 176.631 340.628 176.795 340.893 177.062C341.157 177.328 341.321 177.581 341.458 177.935C341.562 178.204 341.685 178.606 341.718 179.348C341.754 180.15 341.762 180.39 341.762 182.422C341.762 184.452 341.755 184.693 341.718 185.495Z" fill="url(#paint0_linear)"/>
<path d="M339.6 179.274C340.101 179.274 340.507 178.865 340.507 178.361C340.507 177.858 340.101 177.449 339.6 177.449C339.099 177.449 338.693 177.858 338.693 178.361C338.693 178.865 339.099 179.274 339.6 179.274Z" fill="url(#paint1_linear)"/>
<path d="M335.566 178.515C333.422 178.515 331.684 180.264 331.684 182.421C331.684 184.578 333.422 186.327 335.566 186.327C337.709 186.327 339.447 184.578 339.447 182.421C339.447 180.264 337.709 178.515 335.566 178.515ZM335.566 184.957C334.174 184.957 333.046 183.822 333.046 182.422C333.046 181.022 334.174 179.887 335.566 179.887C336.957 179.887 338.085 181.021 338.085 182.422C338.085 183.822 336.957 184.957 335.566 184.957Z" fill="url(#paint2_linear)"/>
</g>
<g clip-path="url(#clip2)">
<path d="M323.126 213.402C322.59 213.402 322.013 213.402 321.741 213.402C321.464 213.402 321.188 213.687 321.188 213.896C321.188 214.11 321.188 215.311 321.188 215.311C321.188 215.311 322.9 215.311 323.121 215.311C323.042 216.395 322.883 217.388 322.883 217.388H321.176V223.06H318.63V217.392H317.391V215.324H318.63C318.63 215.324 318.63 213.942 318.63 213.632C318.63 213.323 318.567 211.255 321.242 211.251C321.598 211.251 322.41 211.251 323.126 211.251C323.126 212.147 323.126 213.122 323.126 213.402Z" fill="url(#paint3_linear)"/>
</g>
<path d="M286.476 169.215V170.399C285.915 170.399 285.355 170.291 284.831 170.076C284.495 169.933 284.196 169.753 283.897 169.538V173.125C283.897 173.95 283.56 174.704 282.962 175.278C282.476 175.744 281.841 176.031 281.168 176.139C281.019 176.175 280.832 176.175 280.682 176.175C279.972 176.175 279.262 175.959 278.701 175.529C278.589 175.457 278.477 175.35 278.402 175.278C277.729 174.668 277.393 173.807 277.467 172.91C277.505 172.229 277.804 171.583 278.252 171.081C278.888 170.399 279.748 170.04 280.682 170.04C280.832 170.04 281.019 170.04 281.168 170.076V170.507V171.726C281.019 171.69 280.869 171.655 280.682 171.655C279.822 171.655 279.149 172.336 279.149 173.125C279.149 173.663 279.449 174.094 279.897 174.345C280.121 174.453 280.346 174.524 280.607 174.56C280.794 174.56 280.981 174.56 281.168 174.489C281.766 174.309 282.215 173.735 282.215 173.089V170.686V166.345H283.897C283.897 166.489 283.897 166.668 283.934 166.812C284.046 167.421 284.42 167.924 284.906 168.282C285.355 168.605 285.878 168.785 286.476 168.785V169.215Z" fill="url(#paint4_linear)"/>
<path d="M296.342 112.259H297.053L296.812 111.59C296.693 111.257 296.632 110.728 296.695 110.11C296.757 109.499 296.937 108.837 297.261 108.242C297.584 107.65 298.045 107.13 298.672 106.78C299.298 106.432 300.118 106.234 301.19 106.332C302.257 106.429 303.001 106.788 303.529 107.254C304.063 107.724 304.406 108.33 304.624 108.96C305.017 110.094 304.982 111.225 304.97 111.638C304.968 111.69 304.967 111.731 304.967 111.759C304.967 112.071 305.204 112.224 305.285 112.268C305.386 112.323 305.497 112.352 305.583 112.37C305.763 112.407 305.996 112.427 306.243 112.437C306.744 112.457 307.407 112.443 308.069 112.417C308.734 112.39 309.412 112.35 309.95 112.317C310.052 112.311 310.148 112.305 310.237 112.299C310.632 112.275 310.893 112.259 310.969 112.259H313.508C313.706 112.259 313.879 112.16 313.983 112.005C314.067 111.881 314.087 111.751 314.093 111.675C314.106 111.518 314.078 111.343 314.046 111.193C313.977 110.875 313.84 110.469 313.682 110.067C313.522 109.661 313.332 109.238 313.148 108.881C312.976 108.546 312.777 108.205 312.592 108.019C312.484 107.911 312.309 107.794 312.129 107.684C311.935 107.565 311.689 107.426 311.403 107.275C310.83 106.974 310.084 106.615 309.251 106.254C307.595 105.536 305.56 104.795 303.861 104.495C302.545 104.263 301.242 104.047 300.203 103.89C299.305 103.754 298.563 103.654 298.192 103.633C297.024 103.051 295.234 102.195 293.533 101.458C292.659 101.08 291.804 100.73 291.065 100.464C290.342 100.204 289.686 100.007 289.232 99.9616C288.24 99.8624 286.674 99.8142 285.167 99.8385C283.674 99.8626 282.171 99.9583 281.336 100.167C279.78 100.556 274.391 101.903 273.441 102.093C273.234 102.135 272.783 102.181 272.155 102.233C271.75 102.267 271.289 102.301 270.797 102.338C270.538 102.358 270.272 102.378 270 102.399C268.441 102.519 266.718 102.665 265.716 102.866C264.725 103.064 264.041 103.326 263.579 103.726C263.095 104.146 262.919 104.661 262.813 105.189C262.784 105.333 262.749 105.404 262.725 105.44C262.701 105.478 262.676 105.504 262.615 105.56C262.612 105.564 262.608 105.567 262.605 105.57C262.547 105.624 262.436 105.726 262.354 105.875C262.261 106.044 262.224 106.233 262.224 106.446V109.643V109.731L262.254 109.814C262.293 109.921 262.326 110.017 262.359 110.114C262.38 110.176 262.401 110.239 262.424 110.305C262.478 110.46 262.54 110.625 262.616 110.773C262.693 110.92 262.8 111.083 262.962 111.209C263.135 111.343 263.342 111.412 263.57 111.412H265.686H266.38L266.161 110.754C266.095 110.557 266.079 110.183 266.188 109.692C266.294 109.214 266.508 108.677 266.843 108.174C267.506 107.179 268.63 106.334 270.342 106.334C272.25 106.334 273.265 107.27 273.827 108.207C274.114 108.685 274.284 109.168 274.381 109.533C274.43 109.715 274.46 109.866 274.477 109.968C274.486 110.02 274.492 110.059 274.495 110.084L274.497 110.098C274.497 110.113 274.498 110.133 274.499 110.156C274.501 110.209 274.504 110.283 274.512 110.372C274.526 110.546 274.556 110.787 274.617 111.033C274.677 111.273 274.777 111.559 274.954 111.794C275.141 112.044 275.435 112.259 275.843 112.259H296.342Z" fill="#9EA8CD" stroke="#BEC8EB"/>
<path d="M283.388 103.935V101.618C283.874 101.602 285.509 101.602 287.963 101.602L288.116 101.602C290.588 101.602 293.83 103.163 295.31 103.935C295.31 103.935 297.211 104.938 296.58 104.987C295.948 105.037 291.632 105.508 289.809 104.987C286.126 103.935 286.846 103.935 283.388 103.935Z" fill="#454D69"/>
<path d="M282.036 103.935V101.618C280.685 101.618 277.208 102.583 276.822 103.163C276.513 103.626 280.17 103.871 282.036 103.935Z" fill="#454D69"/>
<path d="M283.388 103.935V101.618C283.874 101.602 285.509 101.602 287.963 101.602L288.116 101.602C290.588 101.602 293.83 103.163 295.31 103.935C295.31 103.935 297.211 104.938 296.58 104.987C295.948 105.037 291.632 105.508 289.809 104.987C286.126 103.935 286.846 103.935 283.388 103.935Z" stroke="#6A7497" stroke-opacity="0.9" stroke-width="0.5"/>
<path d="M282.036 103.935V101.618C280.685 101.618 277.208 102.583 276.822 103.163C276.513 103.626 280.17 103.871 282.036 103.935Z" stroke="#6A7497" stroke-opacity="0.9" stroke-width="0.5"/>
<path d="M273.518 110.489C273.518 112.302 272.048 113.772 270.235 113.772C268.422 113.772 266.952 112.302 266.952 110.489C266.952 108.676 268.422 107.206 270.235 107.206C272.048 107.206 273.518 108.676 273.518 110.489Z" fill="#454D69"/>
<path d="M273.018 110.489C273.018 112.026 271.772 113.272 270.235 113.272C268.698 113.272 267.452 112.026 267.452 110.489C267.452 108.952 268.698 107.706 270.235 107.706C271.772 107.706 273.018 108.952 273.018 110.489Z" stroke="black" stroke-opacity="0.1"/>
<path d="M304.074 110.489C304.074 112.302 302.604 113.772 300.791 113.772C298.977 113.772 297.508 112.302 297.508 110.489C297.508 108.676 298.977 107.206 300.791 107.206C302.604 107.206 304.074 108.676 304.074 110.489Z" fill="#454D69"/>
<path d="M303.574 110.489C303.574 112.026 302.328 113.272 300.791 113.272C299.254 113.272 298.008 112.026 298.008 110.489C298.008 108.952 299.254 107.706 300.791 107.706C302.328 107.706 303.574 108.952 303.574 110.489Z" stroke="black" stroke-opacity="0.1"/>
<path d="M254.683 106.257H260.608M258.492 107.95H253.414" stroke="#2A3D81" stroke-opacity="0.2"/>
<rect x="66.36" y="136.728" width="61.7869" height="5.07838" rx="2" fill="#C4C4C4"/>
<rect x="254.26" y="113.875" width="56.7085" height="1.69279" fill="#C4C4C4"/>
</g>
<defs>
<linearGradient id="paint0_linear" x1="335.566" y1="174.815" x2="335.566" y2="190.027" gradientUnits="userSpaceOnUse">
<stop stop-color="#F97D7D"/>
<stop offset="1" stop-color="#FF3366"/>
</linearGradient>
<linearGradient id="paint1_linear" x1="339.6" y1="177.449" x2="339.6" y2="179.274" gradientUnits="userSpaceOnUse">
<stop stop-color="#F97D7D"/>
<stop offset="1" stop-color="#FF3366"/>
</linearGradient>
<linearGradient id="paint2_linear" x1="335.565" y1="178.515" x2="335.565" y2="186.327" gradientUnits="userSpaceOnUse">
<stop stop-color="#F97D7D"/>
<stop offset="1" stop-color="#FF3366"/>
</linearGradient>
<linearGradient id="paint3_linear" x1="320.258" y1="211.251" x2="320.258" y2="223.06" gradientUnits="userSpaceOnUse">
<stop stop-color="#8562B9"/>
<stop offset="1" stop-color="#B1C0F5"/>
</linearGradient>
<linearGradient id="paint4_linear" x1="281.967" y1="166.345" x2="281.967" y2="176.175" gradientUnits="userSpaceOnUse">
<stop stop-color="#FB8194"/>
<stop offset="1" stop-color="#F97D7D"/>
</linearGradient>
<clipPath id="clip0">
<rect width="400" height="326" fill="white"/>
</clipPath>
<clipPath id="clip1">
<rect width="19.4671" height="15.2351" fill="white" transform="translate(326.204 174.815)"/>
</clipPath>
<clipPath id="clip2">
<rect width="15.2351" height="11.8495" fill="white" transform="translate(312.661 211.21)"/>
</clipPath>
</defs>
</svg>
