<svg width="28" height="28" viewBox="0 0 28 28" fill="none" xmlns="http://www.w3.org/2000/svg">
<g clip-path="url(#clip0)">
<path d="M28.206 8.215C28.138 6.727 27.902 5.711 27.557 4.821C27.199 3.902 26.722 3.123 25.945 2.346C25.169 1.569 24.389 1.09 23.469 0.734C22.579 0.388 21.564 0.152 20.075 0.084C18.584 0.016 18.108 0 14.313 0C10.517 0 10.04 0.016 8.54898 0.084C7.06198 0.152 6.04498 0.388 5.15598 0.734C4.23598 1.091 3.45798 1.57 2.67998 2.347C1.90298 3.124 1.42498 3.903 1.06698 4.822C0.721984 5.711 0.485984 6.728 0.417984 8.215C0.349984 9.705 0.333984 10.182 0.333984 13.978C0.333984 17.775 0.349984 18.249 0.417984 19.742C0.485984 21.23 0.721984 22.245 1.06698 23.135C1.42398 24.055 1.90298 24.834 2.67998 25.611C3.45698 26.388 4.23598 26.866 5.15598 27.223C6.04498 27.569 7.06098 27.806 8.54898 27.872C10.04 27.94 10.516 27.957 14.313 27.957C18.109 27.957 18.584 27.94 20.076 27.872C21.564 27.806 22.58 27.568 23.47 27.223C24.39 26.866 25.169 26.388 25.946 25.611C26.723 24.835 27.2 24.055 27.558 23.135C27.904 22.245 28.139 21.231 28.207 19.742C28.275 18.25 28.292 17.775 28.292 13.978C28.291 10.182 28.274 9.706 28.206 8.215ZM25.69 19.628C25.628 20.99 25.401 21.732 25.21 22.224C24.956 22.875 24.652 23.342 24.164 23.83C23.675 24.318 23.209 24.622 22.557 24.876C22.065 25.067 21.325 25.296 19.962 25.356C18.487 25.423 18.045 25.438 14.313 25.438C10.58 25.438 10.138 25.423 8.66498 25.356C7.30198 25.295 6.56098 25.067 6.06898 24.876C5.41698 24.622 4.95098 24.318 4.46098 23.83C3.97198 23.342 3.66898 22.875 3.41598 22.224C3.22498 21.732 2.99698 20.991 2.93498 19.628C2.86798 18.153 2.85298 17.711 2.85298 13.98C2.85298 10.247 2.86698 9.805 2.93498 8.331C2.99798 6.968 3.22498 6.227 3.41598 5.735C3.66898 5.084 3.97298 4.617 4.46098 4.129C4.94998 3.639 5.41598 3.336 6.06898 3.082C6.56098 2.89 7.30098 2.663 8.66498 2.601C10.138 2.533 10.581 2.519 14.313 2.519C18.045 2.519 18.487 2.533 19.962 2.601C21.324 2.663 22.065 2.891 22.557 3.082C23.209 3.336 23.675 3.639 24.164 4.128C24.652 4.617 24.956 5.083 25.21 5.734C25.401 6.227 25.629 6.967 25.69 8.33C25.757 9.804 25.772 10.246 25.772 13.979C25.772 17.711 25.758 18.153 25.69 19.628Z" fill="url(#paint0_linear)"/>
<path d="M21.774 8.19384C22.7002 8.19384 23.451 7.44303 23.451 6.51684C23.451 5.59066 22.7002 4.83984 21.774 4.83984C20.8478 4.83984 20.097 5.59066 20.097 6.51684C20.097 7.44303 20.8478 8.19384 21.774 8.19384Z" fill="url(#paint1_linear)"/>
<path d="M14.313 6.7998C10.348 6.7998 7.13501 10.0128 7.13501 13.9778C7.13501 17.9428 10.348 21.1558 14.313 21.1558C18.277 21.1558 21.49 17.9428 21.49 13.9778C21.49 10.0128 18.277 6.7998 14.313 6.7998ZM14.313 18.6378C11.74 18.6378 9.65301 16.5518 9.65301 13.9788C9.65301 11.4058 11.739 9.3198 14.313 9.3198C16.886 9.3198 18.972 11.4048 18.972 13.9788C18.972 16.5528 16.886 18.6378 14.313 18.6378Z" fill="url(#paint2_linear)"/>
</g>
<defs>
<linearGradient id="paint0_linear" x1="14.313" y1="0" x2="14.313" y2="27.957" gradientUnits="userSpaceOnUse">
<stop stop-color="#E3A83C"/>
<stop offset="1" stop-color="#F97D7D"/>
</linearGradient>
<linearGradient id="paint1_linear" x1="21.774" y1="4.83984" x2="21.774" y2="8.19384" gradientUnits="userSpaceOnUse">
<stop stop-color="#E3A83C"/>
<stop offset="1" stop-color="#F97D7D"/>
</linearGradient>
<linearGradient id="paint2_linear" x1="14.3125" y1="6.7998" x2="14.3125" y2="21.1558" gradientUnits="userSpaceOnUse">
<stop stop-color="#E3A83C"/>
<stop offset="1" stop-color="#F97D7D"/>
</linearGradient>
<clipPath id="clip0">
<rect width="28" height="28" fill="white"/>
</clipPath>
</defs>
</svg>
