<svg width="55" height="42" viewBox="0 0 55 42" fill="none" xmlns="http://www.w3.org/2000/svg">
<g clip-path="url(#clip0)">
<path d="M31.7685 2.61214L31.7685 20.1542C31.7685 20.6291 32.1552 21.015 32.6311 21.015L45.1541 21.015C45.6895 21.015 46.0762 21.4602 46.0167 21.9648C45.4813 28.3464 39.7404 33.4517 32.6014 33.8079C32.1254 33.8376 31.7685 34.1938 31.7685 34.639L31.7685 39.3584C31.7685 39.8333 32.1849 40.2489 32.6609 40.2192C44.0832 39.8037 53.2152 31.3443 53.2152 21.015L53.2152 2.64182C53.2152 2.16691 52.8285 1.78104 52.3526 1.78104L32.6609 1.78104C32.1552 1.78104 31.7685 2.13723 31.7685 2.61214Z" stroke="#EDB056" stroke-width="2" stroke-miterlimit="10"/>
<path d="M2.64735 21.015L15.1703 21.015C15.7058 21.015 16.0925 21.4602 16.033 21.9648C15.4975 28.3464 9.7566 33.4517 2.6176 33.8079C2.14167 33.8376 1.78472 34.1938 1.78472 34.639L1.78472 39.3584C1.78472 39.8333 2.20116 40.2489 2.6771 40.2192C14.0995 39.8037 23.2314 31.3443 23.2314 21.015L23.2314 2.64182C23.2314 2.16691 22.8448 1.78104 22.3688 1.78104L2.64735 1.78104C2.17142 1.78104 1.78473 2.1669 1.78473 2.64182L1.78472 20.1839C1.78472 20.6291 2.17142 21.015 2.64735 21.015Z" stroke="#EDB056" stroke-width="2" stroke-miterlimit="10"/>
</g>
<defs>
<clipPath id="clip0">
<rect width="55" height="42" fill="white" transform="translate(55 42) rotate(-180)"/>
</clipPath>
</defs>
</svg>
