<svg width="55" height="42" viewBox="0 0 55 42" fill="none" xmlns="http://www.w3.org/2000/svg">
<path d="M23.2315 39.3879V21.8458C23.2315 21.3709 22.8448 20.985 22.3688 20.985H9.84584C9.31042 20.985 8.92372 20.5398 8.98322 20.0352C9.51864 13.6536 15.2596 8.54829 22.3986 8.1921C22.8745 8.16242 23.2315 7.80624 23.2315 7.36101V2.64157C23.2315 2.16666 22.815 1.75111 22.3391 1.7808C10.9167 2.19634 1.78473 10.6557 1.78473 20.985V39.3582C1.78473 39.8331 2.17142 40.219 2.64736 40.219H22.3391C22.8448 40.219 23.2315 39.8628 23.2315 39.3879Z" stroke="#EDB056" stroke-width="2" stroke-miterlimit="10"/>
<path d="M52.3527 20.985H39.8297C39.2942 20.985 38.9075 20.5398 38.967 20.0352C39.5025 13.6536 45.2434 8.54829 52.3824 8.1921C52.8583 8.16242 53.2153 7.80624 53.2153 7.36101V2.64157C53.2153 2.16666 52.7988 1.75111 52.3229 1.7808C40.9005 2.19634 31.7686 10.6557 31.7686 20.985V39.3582C31.7686 39.8331 32.1552 40.219 32.6312 40.219H52.3527C52.8286 40.219 53.2153 39.8331 53.2153 39.3582V21.8161C53.2153 21.3709 52.8286 20.985 52.3527 20.985Z" stroke="#EDB056" stroke-width="2" stroke-miterlimit="10"/>
</svg>
