<svg width="26" height="28" viewBox="0 0 26 28" fill="none" xmlns="http://www.w3.org/2000/svg">
<g clip-path="url(#clip0)">
<path d="M24.5 8.6001V11.9001C23 11.9001 21.5 11.6001 20.1 11.0001C19.2 10.6001 18.4 10.1001 17.6 9.5001V19.5001C17.6 21.8001 16.7 23.9001 15.1 25.5001C13.8 26.8001 12.1 27.6001 10.3 27.9001C9.89998 28.0001 9.39998 28.0001 8.99998 28.0001C7.09998 28.0001 5.19998 27.4001 3.69998 26.2001C3.39998 26.0001 3.09998 25.7001 2.89998 25.5001C1.09998 23.8001 0.199983 21.4001 0.399983 18.9001C0.499983 17.0001 1.29998 15.2001 2.49998 13.8001C4.19998 11.9001 6.49998 10.9001 8.99998 10.9001C9.39998 10.9001 9.89998 10.9001 10.3 11.0001V12.2001V15.6001C9.89998 15.5001 9.49998 15.4001 8.99998 15.4001C6.69998 15.4001 4.89998 17.3001 4.89998 19.5001C4.89998 21.0001 5.69998 22.2001 6.89998 22.9001C7.49998 23.2001 8.09998 23.4001 8.79998 23.5001C9.29998 23.5001 9.79998 23.5001 10.3 23.3001C11.9 22.8001 13.1 21.2001 13.1 19.4001V12.7001V0.600098H17.6C17.6 1.0001 17.6 1.5001 17.7 1.9001C18 3.6001 19 5.0001 20.3 6.0001C21.5 6.9001 22.9 7.4001 24.5 7.4001V8.6001Z" fill="url(#paint0_linear)"/>
</g>
<defs>
<linearGradient id="paint0_linear" x1="12.4363" y1="0.600098" x2="12.4363" y2="28.0001" gradientUnits="userSpaceOnUse">
<stop stop-color="#E3A83C"/>
<stop offset="1" stop-color="#F97D7D"/>
</linearGradient>
<clipPath id="clip0">
<rect width="26" height="28" fill="white"/>
</clipPath>
</defs>
</svg>
