<svg width="36" height="28" viewBox="0 0 36 28" fill="none" xmlns="http://www.w3.org/2000/svg">
<path d="M34.877 23.9931C33.642 24.7651 28.62 24.9981 27.403 24.1121C26.734 23.6301 23.859 20.3951 23.561 20.0391C23.056 19.4481 22.277 18.9421 21.664 19.6701C20.736 20.7611 21.806 23.1351 20.57 23.9471C20.154 24.2201 19.737 24.3011 19.22 24.2611C19.22 24.2611 16.334 24.3341 15.568 24.1961C14.714 24.0421 13.843 23.7401 12.882 23.1631C11.507 22.3371 9.747 21.0581 8.684 19.8301C5.79 16.4851 2.527 12.5261 1.018 8.32214C0.706999 7.45814 -0.114001 5.74714 0.664999 5.00714C1.722 4.23814 6.914 4.02114 7.723 5.21014C8.052 5.69314 8.612 7.23214 8.844 7.77914C9.135 8.46214 11.112 12.0751 11.536 12.6821C11.823 13.0941 12.66 13.8081 13.139 13.8681C13.579 13.9251 13.729 13.4221 13.884 12.9071C14.141 12.0491 13.933 8.95714 13.955 8.27814C13.975 7.69914 14.026 6.88214 13.683 6.40814C13.124 5.63714 11.878 6.21514 11.781 5.17814C11.987 4.88314 11.944 4.62314 13.318 4.16914C14.401 3.81414 15.097 3.88914 15.814 3.88214C17.339 3.86814 18.812 3.60514 20.216 4.07614C21.561 4.52914 21.354 6.43614 21.307 7.58014C21.249 9.14014 21.313 10.6631 21.307 12.2471C21.305 12.9671 21.298 13.8631 22.179 13.8041C23.002 13.7491 23.195 12.9341 23.589 12.3621C24.137 11.5641 26.043 7.60614 26.751 6.50614C27 6.11214 27.218 5.27414 27.608 4.96214C27.902 4.72614 28.462 4.85014 28.819 4.85014C28.819 4.85014 33.685 4.68114 34.638 4.81514C38.749 5.39614 29.469 14.1871 29.951 15.7571C30.286 16.8401 32.402 18.0511 33.168 18.9391C34.183 20.1241 37.306 22.4721 34.877 23.9931Z" fill="url(#paint0_linear)"/>
<defs>
<linearGradient id="paint0_linear" x1="18.06" y1="3.79639" x2="18.06" y2="24.6813" gradientUnits="userSpaceOnUse">
<stop stop-color="#E3A83C"/>
<stop offset="1" stop-color="#F97D7D"/>
</linearGradient>
</defs>
</svg>
